<svg xmlns="http://www.w3.org/2000/svg" xmlns:xlink="http://www.w3.org/1999/xlink" width="936" height="338"><defs><path id="a" d="M0 0h936v338H0z"/></defs><g fill="none" fill-rule="evenodd"><mask id="b" fill="#fff"><use xlink:href="#a"/></mask><use fill="#ED2524" xlink:href="#a"/><g mask="url(#b)"><path fill="#C52323" d="M664.805-32.071c-.837.836-3.333 2.393-5.473 4.117 1.049 1.746.845 4.726 2.889 4.916 2.884.282 2.612 4.676-.55 3.987-3.158-.688-3.167 4.256-.416 8.516 2.75 4.256-5.22 9.066-3.02 11.265 2.197 2.185.412 4.805 1.37 6.178.965 1.372 12.647-.546 17.728-5.767 5.09-5.226 6.458-4.533 9.07-3.844 2.616.684 5.223-1.927 3.84-3.988-1.372-2.06-2.884-7.138-2.472-13.464.245-3.669-4.762-10.304-9.62-15.603-1.503 1.21-2.866 1.852-4.905 1.852-3.305 0-6.971.365-8.441 1.835"/><path stroke="#C52323" stroke-width="1.155" d="M664.805-32.071c-.837.836-3.333 2.393-5.473 4.117 1.049 1.746.845 4.726 2.889 4.916 2.884.282 2.612 4.676-.55 3.987-3.158-.688-3.167 4.256-.416 8.516 2.75 4.256-5.22 9.066-3.02 11.265 2.197 2.185.412 4.805 1.37 6.178.965 1.372 12.647-.546 17.728-5.767 5.09-5.226 6.458-4.533 9.07-3.844 2.616.684 5.223-1.927 3.84-3.988-1.372-2.06-2.884-7.138-2.472-13.464.245-3.669-4.762-10.304-9.62-15.603-1.503 1.21-2.866 1.852-4.905 1.852-3.305 0-6.971.365-8.441 1.835z"/><path fill="#C52323" d="M347.855 134.221c-1.641-9.102-2.556-17.932-3.758-17.932-1.665 0-3.888 7.79-6.671 7.231-2.792-.55-2.792-10.013.55-10.013 3.342 0 7.24-7.235 7.24-9.467 0-2.218-3.334-2.218-6.68-2.218-3.343 0-10.582.555-10.582.555s-4.461-1.668-4.461-4.455c0-2.786-1.664-5.013-6.125-5.013-4.447 0-4.447-4.445-7.79 0-3.342 4.454 7.24 4.454 6.126 7.8-1.114 3.331-4.457 1.113-5.011 3.89-.56 2.782.564 10.022 2.228 13.913 1.28 3.003 3.208 10.604 3.277 16.998 2.594-.499 3.805-1.7 6.213-1.7 3.019 0 7.142-.407 7.415-3.572.278-3.155 3.712-5.489 5.63-4.532 1.928.965 4.813 8.654 4.952 12.637.041 1.27.591 2.948 1.447 4.69 1.534-1.516 3.328-2.722 3.328-2.722s1.128-4.237 2.672-6.09"/><path stroke="#C52323" stroke-width="1.155" d="M347.855 134.221c-1.641-9.102-2.556-17.932-3.758-17.932-1.665 0-3.888 7.79-6.671 7.231-2.792-.55-2.792-10.013.55-10.013 3.342 0 7.24-7.235 7.24-9.467 0-2.218-3.334-2.218-6.68-2.218-3.343 0-10.582.555-10.582.555s-4.461-1.668-4.461-4.455c0-2.786-1.664-5.013-6.125-5.013-4.447 0-4.447-4.445-7.79 0-3.342 4.454 7.24 4.454 6.126 7.8-1.114 3.331-4.457 1.113-5.011 3.89-.56 2.782.564 10.022 2.228 13.913 1.28 3.003 3.208 10.604 3.277 16.998 2.594-.499 3.805-1.7 6.213-1.7 3.019 0 7.142-.407 7.415-3.572.278-3.155 3.712-5.489 5.63-4.532 1.928.965 4.813 8.654 4.952 12.637.041 1.27.591 2.948 1.447 4.69 1.534-1.516 3.328-2.722 3.328-2.722s1.128-4.237 2.672-6.09z"/><path fill="#C52323" d="M312.92 118.512c-1.663-3.891-2.787-11.131-2.227-13.913.554-2.777 3.897-.559 5.01-3.89 1.115-3.346-9.467-3.346-6.125-7.8 3.343-4.445 3.343 0 7.79 0 4.46 0 6.125 2.227 6.125 5.013 0 2.787 4.46 4.455 4.46 4.455s7.24-.555 10.582-.555c3.347 0 6.68 0 6.68 2.218 0 2.232-3.897 9.467-7.239 9.467s-3.342 9.463-.55 10.013c2.783.56 5.006-7.231 6.67-7.231 1.203 0 2.118 8.83 3.759 17.932.434-.513.883-.882 1.359-.882 2.2 0 1.1-7.698 2.57-9.902 1.47-2.2.74-9.163 1.84-9.163s7.706 2.2 7.341.366c-.37-1.835 4.031-8.077 3.3-11.376-.739-3.3 2.566-7.338 2.566-11.367 0-4.033 3.67-5.133 6.241-7.337 2.566-2.2 6.971-5.133 7.706-3.304.735 1.835 6.236 3.304 4.036 0-2.205-3.299-2.205-5.494-.735-6.228 1.47-.735 2.205-4.404 2.205-4.404s-4.77-.734-5.506-2.938c-.735-2.195-3.675-4.394-3.675-6.233 0-1.835-2.57-1.1-4.766.739-2.205 1.834-6.24-2.204-11.011.365-4.766 2.569-5.871 5.494-8.072 5.129-2.205-.37-1.84 1.834-3.67 3.668-1.835 1.835-3.305 4.039-4.401 4.039-1.1 0-4.77 1.834-4.77 1.834s2.57 5.499 1.1 8.068c-1.47 2.569-5.146 0-9.172 1.104-4.04 1.1-5.876-1.474-8.816-.735-2.93.735-4.761-1.839-6.227-1.474-1.474.37-3.675-3.303-2.94-6.233.735-2.93-1.474-6.968-2.94-4.768-1.465 2.204-3.66 1.104-3.66 4.403 0 3.295 1.834 7.333-.37 9.537-2.206 2.204-13.952 3.308-16.148 1.47-2.205-1.835-11.742-2.935-12.107-4.774-.365-1.834-3.305-5.128-5.145-5.128-1.83 0-7.341 2.56-8.802 1.46-1.47-1.095-5.14-4.03-7.71-4.395-2.57-.37-6.606-2.208-6.972-3.673-.365-1.465-6.236-2.2-7.34-3.669-1.1-1.469-4.767-1.83-4.767-3.664 0-1.83 1.47-4.768 1.47-6.972 0-2.204 4.401-4.394 4.401-5.863 0-1.47-4.03-4.039-4.03-4.039s-2.576-4.768-5.511-4.768c-2.94 0-5.14-5.134-7.706-5.499-2.566-.365-1.836-5.503-3.306-7.342-1.46-1.83-.365-6.228 2.205-4.029 2.566 2.2 7.341 0 5.502-3.303-1.836-3.3-5.136-6.224-5.136-8.063 0-1.834 2.21-7.342-.366-8.811-2.57-1.46-4.77-3.665-5.505-6.229-.735-2.569-3.67-4.408-3.67-4.408l-3.667.37s-2.2 5.868-3.67 6.602c-1.47.73-6.61 1.835-9.176 3.665-2.561 1.834-9.902-2.565-13.938-2.565-4.04 0-6.615 4.034-4.78 5.138 1.84 1.1 1.475 8.798 1.475 8.798s2.2 9.536 5.501 8.806c3.3-.73 7.341 3.295 4.4 4.03-2.93.734-4.4 4.038-4.765 6.976-.37 2.934.365 6.599-1.83 6.964-2.206.365-4.406 1.1-4.406 5.138s-4.77 2.938-5.506 4.398c-.735 1.474-2.57 8.807-3.67 9.907-1.1 1.1-7.346 1.469-7.711 4.768-.37 3.3-3.296 7.337-5.131 6.968-1.84-.365-5.14-1.84-6.246.37-1.1 2.203-5.861-1.835-6.966-.735-1.1 1.1-6.976 5.868-6.976 8.797 0 2.939 6.24 2.939 5.876 6.612-.37 3.664 2.205 7.698 4.04 9.528 1.826 1.839 4.761 6.237 3.291 8.441-1.465 2.195-3.661 2.56-6.966 1.83-3.306-.735-2.94 1.465-8.807.365-5.875-1.1-6.24 3.304-8.44 5.873-.14.162-.343.388-.592.674 2.769 2.19 3.933 6.095 8.542 7.874 5.363 2.06 10.175-3.438 10.175.545 0 3.988-12.648 3.165-12.916 4.399-.277 1.238 13.045 17.308 19.785 16.07 6.731-1.238 11.678-8.52 9.75-9.615-1.923-1.095 1.105-5.633 2.89-4.806 1.783.823.276 7.961 2.334 9.611 2.066 1.645 1.377 4.667 0 8.52-1.369 3.844 1.377 11.394 1.784 15.655.416 4.255 3.3 10.433 4.267 16.749.961 6.33 4.946 17.863 8.658 24.863 3.712 7.005 6.588 20.741 9.06 24.036 2.474 3.294 8.798 13.32 8.798 19.498 0 6.183 6.735 14.832 9.07 16.486 2.339 1.645 7.424-1.922 8.658-5.775 1.239-3.844 8.243-5.355 8.654-8.65.416-3.294 1.096-5.905 3.573-6.316 2.473-.416 2.473-3.017 2.473-6.594 0-3.571.273-8.65 2.751-11.81 2.469-3.155 2.885-11.676 1.373-15.104-1.512-3.433-.689-8.238.689-11.68 1.368-3.43.823-7.421 3.434-7.685 2.608-.277 6.458-2.62 9.204-6.32 2.756-3.71 11.132-8.793 14.155-11.265 3.019-2.472 12.227-10.577 14.983-15.105 2.74-4.537 10.572-6.039 14.15-9.754 3.573-3.7 2.196-5.623 2.884-9.615.69-3.974 12.223-5.623 16.624-5.623.901 0 1.641-.097 2.311-.227-.07-6.394-1.997-13.995-3.277-16.998"/><path stroke="#C52323" stroke-width="1.155" d="M312.92 118.512c-1.663-3.891-2.787-11.131-2.227-13.913.554-2.777 3.897-.559 5.01-3.89 1.115-3.346-9.467-3.346-6.125-7.8 3.343-4.445 3.343 0 7.79 0 4.46 0 6.125 2.227 6.125 5.013 0 2.787 4.46 4.455 4.46 4.455s7.24-.555 10.582-.555c3.347 0 6.68 0 6.68 2.218 0 2.232-3.897 9.467-7.239 9.467s-3.342 9.463-.55 10.013c2.783.56 5.006-7.231 6.67-7.231 1.203 0 2.118 8.83 3.759 17.932.434-.513.883-.882 1.359-.882 2.2 0 1.1-7.698 2.57-9.902 1.47-2.2.74-9.163 1.84-9.163s7.706 2.2 7.341.366c-.37-1.835 4.031-8.077 3.3-11.376-.739-3.3 2.566-7.338 2.566-11.367 0-4.033 3.67-5.133 6.241-7.337 2.566-2.2 6.971-5.133 7.706-3.304.735 1.835 6.236 3.304 4.036 0-2.205-3.299-2.205-5.494-.735-6.228 1.47-.735 2.205-4.404 2.205-4.404s-4.77-.734-5.506-2.938c-.735-2.195-3.675-4.394-3.675-6.233 0-1.835-2.57-1.1-4.766.739-2.205 1.834-6.24-2.204-11.011.365-4.766 2.569-5.871 5.494-8.072 5.129-2.205-.37-1.84 1.834-3.67 3.668-1.835 1.835-3.305 4.039-4.401 4.039-1.1 0-4.77 1.834-4.77 1.834s2.57 5.499 1.1 8.068c-1.47 2.569-5.146 0-9.172 1.104-4.04 1.1-5.876-1.474-8.816-.735-2.93.735-4.761-1.839-6.227-1.474-1.474.37-3.675-3.303-2.94-6.233.735-2.93-1.474-6.968-2.94-4.768-1.465 2.204-3.66 1.104-3.66 4.403 0 3.295 1.834 7.333-.37 9.537-2.206 2.204-13.952 3.308-16.148 1.47-2.205-1.835-11.742-2.935-12.107-4.774-.365-1.834-3.305-5.128-5.145-5.128-1.83 0-7.341 2.56-8.802 1.46-1.47-1.095-5.14-4.03-7.71-4.395-2.57-.37-6.606-2.208-6.972-3.673-.365-1.465-6.236-2.2-7.34-3.669-1.1-1.469-4.767-1.83-4.767-3.664 0-1.83 1.47-4.768 1.47-6.972 0-2.204 4.401-4.394 4.401-5.863 0-1.47-4.03-4.039-4.03-4.039s-2.576-4.768-5.511-4.768c-2.94 0-5.14-5.134-7.706-5.499-2.566-.365-1.836-5.503-3.306-7.342-1.46-1.83-.365-6.228 2.205-4.029 2.566 2.2 7.341 0 5.502-3.303-1.836-3.3-5.136-6.224-5.136-8.063 0-1.834 2.21-7.342-.366-8.811-2.57-1.46-4.77-3.665-5.505-6.229-.735-2.569-3.67-4.408-3.67-4.408l-3.667.37s-2.2 5.868-3.67 6.602c-1.47.73-6.61 1.835-9.176 3.665-2.561 1.834-9.902-2.565-13.938-2.565-4.04 0-6.615 4.034-4.78 5.138 1.84 1.1 1.475 8.798 1.475 8.798s2.2 9.536 5.501 8.806c3.3-.73 7.341 3.295 4.4 4.03-2.93.734-4.4 4.038-4.765 6.976-.37 2.934.365 6.599-1.83 6.964-2.206.365-4.406 1.1-4.406 5.138s-4.77 2.938-5.506 4.398c-.735 1.474-2.57 8.807-3.67 9.907-1.1 1.1-7.346 1.469-7.711 4.768-.37 3.3-3.296 7.337-5.131 6.968-1.84-.365-5.14-1.84-6.246.37-1.1 2.203-5.861-1.835-6.966-.735-1.1 1.1-6.976 5.868-6.976 8.797 0 2.939 6.24 2.939 5.876 6.612-.37 3.664 2.205 7.698 4.04 9.528 1.826 1.839 4.761 6.237 3.291 8.441-1.465 2.195-3.661 2.56-6.966 1.83-3.306-.735-2.94 1.465-8.807.365-5.875-1.1-6.24 3.304-8.44 5.873-.14.162-.343.388-.592.674 2.769 2.19 3.933 6.095 8.542 7.874 5.363 2.06 10.175-3.438 10.175.545 0 3.988-12.648 3.165-12.916 4.399-.277 1.238 13.045 17.308 19.785 16.07 6.731-1.238 11.678-8.52 9.75-9.615-1.923-1.095 1.105-5.633 2.89-4.806 1.783.823.276 7.961 2.334 9.611 2.066 1.645 1.377 4.667 0 8.52-1.369 3.844 1.377 11.394 1.784 15.655.416 4.255 3.3 10.433 4.267 16.749.961 6.33 4.946 17.863 8.658 24.863 3.712 7.005 6.588 20.741 9.06 24.036 2.474 3.294 8.798 13.32 8.798 19.498 0 6.183 6.735 14.832 9.07 16.486 2.339 1.645 7.424-1.922 8.658-5.775 1.239-3.844 8.243-5.355 8.654-8.65.416-3.294 1.096-5.905 3.573-6.316 2.473-.416 2.473-3.017 2.473-6.594 0-3.571.273-8.65 2.751-11.81 2.469-3.155 2.885-11.676 1.373-15.104-1.512-3.433-.689-8.238.689-11.68 1.368-3.43.823-7.421 3.434-7.685 2.608-.277 6.458-2.62 9.204-6.32 2.756-3.71 11.132-8.793 14.155-11.265 3.019-2.472 12.227-10.577 14.983-15.105 2.74-4.537 10.572-6.039 14.15-9.754 3.573-3.7 2.196-5.623 2.884-9.615.69-3.974 12.223-5.623 16.624-5.623.901 0 1.641-.097 2.311-.227-.07-6.394-1.997-13.995-3.277-16.998z"/><path fill="#C52323" d="M229.383-8.825c-3.3-.19-9.634 3.077-10.535 6.048.651.716 1.276 1.603 1.567 2.615.735 2.564 2.935 4.768 5.505 6.229 1.581.9 1.355 3.34.939 5.498 1.46-.05 2.954-.166 3.962-.402 2.685-.62 8.455-8.858 9.273-11.126.827-2.264-7.207-8.654-10.711-8.862"/><path stroke="#C52323" stroke-width="1.155" d="M229.383-8.825c-3.3-.19-9.634 3.077-10.535 6.048.651.716 1.276 1.603 1.567 2.615.735 2.564 2.935 4.768 5.505 6.229 1.581.9 1.355 3.34.939 5.498 1.46-.05 2.954-.166 3.962-.402 2.685-.62 8.455-8.858 9.273-11.126.827-2.264-7.207-8.654-10.711-8.862z"/><path fill="#C52323" d="M308.39 75.485a20.655 20.655 0 0 0-2.13-.046c-5.358.208-8.654-2.472-12.163-2.269-3.504.204-13.596-3.705-17.932-7.208-4.322-3.502-16.073-10.918-18.962-13.801-2.885-2.883-7.004-2.883-7.42-1.442-.374 1.322-2.496 1.437-5.695 1.76-.818 1.433-4.22 3.364-4.22 5.305 0 2.204-1.47 5.143-1.47 6.972 0 1.835 3.665 2.195 4.765 3.664 1.105 1.47 6.976 2.204 7.341 3.67.366 1.464 4.401 3.303 6.971 3.672 2.57.365 6.241 3.3 7.711 4.395 1.461 1.1 6.971-1.46 8.802-1.46 1.84 0 4.78 3.294 5.145 5.128.365 1.84 9.902 2.939 12.107 4.773 2.196 1.84 13.942.735 16.147-1.47 2.205-2.203.37-6.241.37-9.536 0-1.1.254-1.69.633-2.107"/><path stroke="#C52323" stroke-width="1.155" d="M308.39 75.485a20.655 20.655 0 0 0-2.13-.046c-5.358.208-8.654-2.472-12.163-2.269-3.504.204-13.596-3.705-17.932-7.208-4.322-3.502-16.073-10.918-18.962-13.801-2.885-2.883-7.004-2.883-7.42-1.442-.374 1.322-2.496 1.437-5.695 1.76-.818 1.433-4.22 3.364-4.22 5.305 0 2.204-1.47 5.143-1.47 6.972 0 1.835 3.665 2.195 4.765 3.664 1.105 1.47 6.976 2.204 7.341 3.67.366 1.464 4.401 3.303 6.971 3.672 2.57.365 6.241 3.3 7.711 4.395 1.461 1.1 6.971-1.46 8.802-1.46 1.84 0 4.78 3.294 5.145 5.128.365 1.84 9.902 2.939 12.107 4.773 2.196 1.84 13.942.735 16.147-1.47 2.205-2.203.37-6.241.37-9.536 0-1.1.254-1.69.633-2.107z"/><path fill="#C52323" d="M406.097 227.602c0-3.66-2.93-4.03-2.93-6.963 0-2.934 0-8.072-3.671-11.367-3.675-3.303-5.51-8.08-3.306-9.91 2.2-1.826.366-6.968 1.466-6.603 1.105.37 2.575-3.304.365-4.4-2.2-1.099 0-5.498-1.83-6.232-1.84-.735-6.972-6.603-6.972-8.433 0-1.834 1.47-12.11 1.836-14.67.365-2.573 4.03-2.938 5.135-2.938 1.1 0 5.506.365 6.976-2.204 1.47-2.565 7.702-2.934 8.437-4.769.735-1.825 4.775-1.825 4.775-4.029 0-2.204 4.761-7.707 4.761-7.707.074-.014.125.023.19.023-.55-.975-1.757-.097-4.184.869-4.118 1.654-6.18-.615-5.769-3.087.412-2.476-2.884-2.476-5.154-2.476-2.265 0-.823-3.706 0-6.178.832-2.472-.823-3.909-3.504-4.121-2.677-.204-3.916-5.97-2.885-7.624 1.036-1.645-5.561-3.087-8.446-1.645-2.889 1.441-.827-2.472-1.65-4.538-.827-2.056 3.708-9.06 7.628-12.97 3.915-3.917 2.265-9.07 2.265-13.602 0-4.533-1.854-4.533-3.708-4.533-1.858 0-2.066-2.675-2.066-5.147 0-2.472-3.916-4.325-6.18-2.675-.315.226-.874.55-1.568.914.093.024.176.037.176.037s-.735 3.67-2.205 4.404c-1.47.734-1.47 2.93.735 6.228 2.2 3.304-3.3 1.835-4.036 0-.735-1.83-5.14 1.105-7.706 3.304-2.57 2.204-6.24 3.304-6.24 7.337 0 4.03-3.306 8.068-2.566 11.367.73 3.299-3.67 9.541-3.301 11.376.365 1.834-6.24-.366-7.34-.366-1.101 0-.37 6.964-1.84 9.163-1.47 2.204-.37 9.902-2.571 9.902-2.196 0-4.031 6.972-4.031 6.972s-1.794 1.206-3.328 2.722c1.798 3.678 5.08 7.688 8.723 9.185 5.357 2.19 8.926 13.04 10.581 18.81 1.646 5.767.546 11.681-1.373 14.97-1.927 3.3.68 3.438 3.842 5.083 3.166 1.645 6.735 2.2 9.07-1.1 2.343-3.298 7.146-5.627 7.835-9.337.689-3.706 2.885 1.783 4.808 3.71 1.928 1.922 3.3 5.628 3.712 10.294.411 4.672.823 16.348 4.803 20.053 3.99 3.706 4.678 11.815 3.573 14.698-1.09 2.888 2.067 7.827 1.24 10.993-.167.628-.343 1.524-.542 2.522 3.583.684 7.97-15.312 7.97-15.312"/><path stroke="#C52323" stroke-width="1.155" d="M406.097 227.602c0-3.66-2.93-4.03-2.93-6.963 0-2.934 0-8.072-3.671-11.367-3.675-3.303-5.51-8.08-3.306-9.91 2.2-1.826.366-6.968 1.466-6.603 1.105.37 2.575-3.304.365-4.4-2.2-1.099 0-5.498-1.83-6.232-1.84-.735-6.972-6.603-6.972-8.433 0-1.834 1.47-12.11 1.836-14.67.365-2.573 4.03-2.938 5.135-2.938 1.1 0 5.506.365 6.976-2.204 1.47-2.565 7.702-2.934 8.437-4.769.735-1.825 4.775-1.825 4.775-4.029 0-2.204 4.761-7.707 4.761-7.707.074-.014.125.023.19.023-.55-.975-1.757-.097-4.184.869-4.118 1.654-6.18-.615-5.769-3.087.412-2.476-2.884-2.476-5.154-2.476-2.265 0-.823-3.706 0-6.178.832-2.472-.823-3.909-3.504-4.121-2.677-.204-3.916-5.97-2.885-7.624 1.036-1.645-5.561-3.087-8.446-1.645-2.889 1.441-.827-2.472-1.65-4.538-.827-2.056 3.708-9.06 7.628-12.97 3.915-3.917 2.265-9.07 2.265-13.602 0-4.533-1.854-4.533-3.708-4.533-1.858 0-2.066-2.675-2.066-5.147 0-2.472-3.916-4.325-6.18-2.675-.315.226-.874.55-1.568.914.093.024.176.037.176.037s-.735 3.67-2.205 4.404c-1.47.734-1.47 2.93.735 6.228 2.2 3.304-3.3 1.835-4.036 0-.735-1.83-5.14 1.105-7.706 3.304-2.57 2.204-6.24 3.304-6.24 7.337 0 4.03-3.306 8.068-2.566 11.367.73 3.299-3.67 9.541-3.301 11.376.365 1.834-6.24-.366-7.34-.366-1.101 0-.37 6.964-1.84 9.163-1.47 2.204-.37 9.902-2.571 9.902-2.196 0-4.031 6.972-4.031 6.972s-1.794 1.206-3.328 2.722c1.798 3.678 5.08 7.688 8.723 9.185 5.357 2.19 8.926 13.04 10.581 18.81 1.646 5.767.546 11.681-1.373 14.97-1.927 3.3.68 3.438 3.842 5.083 3.166 1.645 6.735 2.2 9.07-1.1 2.343-3.298 7.146-5.627 7.835-9.337.689-3.706 2.885 1.783 4.808 3.71 1.928 1.922 3.3 5.628 3.712 10.294.411 4.672.823 16.348 4.803 20.053 3.99 3.706 4.678 11.815 3.573 14.698-1.09 2.888 2.067 7.827 1.24 10.993-.167.628-.343 1.524-.542 2.522 3.583.684 7.97-15.312 7.97-15.312z"/><path fill="#C52323" d="M341.929 76.511c-5.534-5.078-7.036-.984-10.73-2.93-3.915-2.056-5.77-2.675-7.623-1.233-1.858 1.442-4.743 1.234-6.601 5.766-.606 1.488-1.364 2.879-2.094 3.923.642 1.382 1.627 2.352 2.417 2.153 1.466-.365 3.297 2.209 6.227 1.474 2.94-.739 4.776 1.835 8.816.735 4.026-1.104 7.701 1.465 9.171-1.104 1.47-2.57-1.1-8.068-1.1-8.068s.675-.337 1.517-.716"/><path stroke="#C52323" stroke-width="1.155" d="M341.929 76.511c-5.534-5.078-7.036-.984-10.73-2.93-3.915-2.056-5.77-2.675-7.623-1.233-1.858 1.442-4.743 1.234-6.601 5.766-.606 1.488-1.364 2.879-2.094 3.923.642 1.382 1.627 2.352 2.417 2.153 1.466-.365 3.297 2.209 6.227 1.474 2.94-.739 4.776 1.835 8.816.735 4.026-1.104 7.701 1.465 9.171-1.104 1.47-2.57-1.1-8.068-1.1-8.068s.675-.337 1.517-.716z"/><path fill="#C52323" d="M482.053 137.377c-2.565-.365-9.171-5.129-9.171-6.968 0-1.834 3.31-4.768-2.57-5.498-5.862-.735-6.602-2.939-7.702-4.038-1.1-1.1-5.875 2.199-7.34 4.768-1.462 2.569-2.936-.73-6.237 1.1-3.305 1.834-6.601-2.565-8.071 0-1.47 2.569-5.14-1.465-6.976.73-.698.84-1.613 1.52-2.533 1.973 1.609 1.797 3.351 3.548 3.351 4.902 0 2.352 4.71 4.117 4.71 7.06 0 2.943 5.89 5.305 7.66 4.122 1.767-1.179 5.895-2.357 6.477 1.76.587 4.126 2.945 4.126 2.945 7.065 0 2.943-5.89 1.183-7.068 4.117-1.179 2.943 10.008 6.473 10.008 8.83 0 2.347 3.532 5.295 4.71 8.233 1.18 2.944 6.482 6.478 7.651 10.008 1.18 3.526 5.89 5.295 7.66 7.056 1.761 1.77 2.349 5.891 1.761 9.417-.582 3.53-.591 10.003 2.945 15.303 3.532 5.3-4.123 7.647-6.476 10.59-2.349 2.939-1.18 7.06-8.243 5.295-7.063-1.77 1.184 5.887 0 8.234-1.178 2.36-10.595-2.347-10.595 0 0 1.418-3.18 3.257-5.723 4.496 1.012 1.321 2.44 2.06 4.11 3.11 2.205 1.371-2.737 3.71-2.603 8.099.134 4.399 3.435 5.498 4.669 3.71 1.234-1.788 6.324-5.77 8.386-6.455 2.061-.683 0-3.705 2.195-3.571 2.196.134 1.512-3.16 2.478-4.949.966-1.779 2.469-1.1 5.77-.956 3.3.138 7.964-3.027 12.638-6.044 4.674-3.022 5.497-3.706 7.28-12.36 1.795-8.65-2.06-18.953-2.195-21.564-.13-2.606-6.458-14.693-8.792-14.554-2.34.138-13.055-10.854-14.983-12.638-1.918-1.788-1.368-4.805-4.119-7.148-2.75-2.328-3.023-8.372-2.334-12.627.689-4.26 6.735-5.222 6.601-8.11-.138-2.883.541-5.35 3.56-5.484 3.028-.148 5.912-2.62 7.285-4.815.199-.323.481-.526.79-.674-.767-.883-1.432-1.451-1.909-1.525"/><path fill="#C52323" d="M458.949 241.436c0-2.347 9.417 2.36 10.595 0 1.184-2.347-7.063-10.004 0-8.234 7.064 1.765 5.894-2.356 8.243-5.295 2.353-2.943 10.008-5.29 6.476-10.59-2.5-3.761-3.222-8.086-3.222-11.556-2.274 1.793-5.034 1.931-6.592 1.312-1.988-.8-6.347-1.192-6.347 1.982 0 3.165-3.171 3.96-2.778 2.375.397-1.58-3.171-1.187-5.155-3.567-1.987-2.38-9.125.795-12.694-.393-3.573-1.196-9.125 1.978-12.685 6.344-3.582 4.357.389 4.357.389 8.322 0 3.969 2.38 3.969 1.192 7.134-.037.079-.06.194-.087.282 3.499 1.538 2.121 5.905 2.51 8.368.411 2.6 3.85 1.09 5.769.956 1.928-.139-1.239 3.017.411 4.944 1.65 1.922 6.458-1.645 7.42.688.231.555.513 1.012.832 1.424 2.543-1.239 5.723-3.078 5.723-4.496"/><path stroke="#C52323" stroke-width="1.155" d="M458.949 241.436c0-2.347 9.417 2.36 10.595 0 1.184-2.347-7.063-10.004 0-8.234 7.064 1.765 5.894-2.356 8.243-5.295 2.353-2.943 10.008-5.29 6.476-10.59-2.5-3.761-3.222-8.086-3.222-11.556-2.274 1.793-5.034 1.931-6.592 1.312-1.988-.8-6.347-1.192-6.347 1.982 0 3.165-3.171 3.96-2.778 2.375.397-1.58-3.171-1.187-5.155-3.567-1.987-2.38-9.125.795-12.694-.393-3.573-1.196-9.125 1.978-12.685 6.344-3.582 4.357.389 4.357.389 8.322 0 3.969 2.38 3.969 1.192 7.134-.037.079-.06.194-.087.282 3.499 1.538 2.121 5.905 2.51 8.368.411 2.6 3.85 1.09 5.769.956 1.928-.139-1.239 3.017.411 4.944 1.65 1.922 6.458-1.645 7.42.688.231.555.513 1.012.832 1.424 2.543-1.239 5.723-3.078 5.723-4.496z"/><path fill="#C52323" d="M459.536 167.3c0-2.357-11.187-5.887-10.008-8.83 1.179-2.934 7.068-1.174 7.068-4.117 0-2.939-2.358-2.939-2.945-7.065-.582-4.117-4.71-2.939-6.476-1.76-1.77 1.183-7.66-1.179-7.66-4.122 0-2.943-4.71-4.708-4.71-7.06 0-1.354-1.743-3.105-3.352-4.902-1.493.748-3.019.915-3.703.23-1.1-1.099-2.57 3.665-1.465 4.764 1.1 1.105 2.565 8.072-.366 7.342-2.94-.734-2.94-4.768-4.78-4.403 0 0-4.761 5.503-4.761 7.707 0 1.479-1.826 1.973-3.25 2.69.85.752 1.572 1.436 1.817 1.81.8 1.183-.388 4.358.79 7.135 1.193 2.772 5.164-1.585 6.347 2.38 1.198 3.959-.785 5.946-.785 9.906 0 3.969-3.176 3.576-2.381 7.143.79 3.562 5.154-.79 8.325-3.174 3.176-2.39 5.562-1.987 6.745-.393 1.193 1.585 5.16.393 5.954-1.594.795-1.973 6.74-2.773 8.723-.393 1.988 2.38 3.967 5.156 6.74 6.741 2.779 1.58-1.978 10.309.795 11.103 2.779.79 6.745 5.152 6.352 9.911-.342 4.09 1.942 7.014-1.197 10.53 1.95 1.267 4.294 1.253 3.97 2.551-.392 1.585 2.779.79 2.779-2.375 0-3.174 4.36-2.781 6.347-1.982 1.558.62 4.318.48 6.592-1.312 0-1.428.106-2.717.277-3.747.588-3.526 0-7.647-1.76-9.417-1.771-1.76-6.482-3.53-7.66-7.056-1.17-3.53-6.473-7.064-7.651-10.008-1.18-2.938-4.711-5.886-4.711-8.233"/><path stroke="#C52323" stroke-width="1.155" d="M459.536 167.3c0-2.357-11.187-5.887-10.008-8.83 1.179-2.934 7.068-1.174 7.068-4.117 0-2.939-2.358-2.939-2.945-7.065-.582-4.117-4.71-2.939-6.476-1.76-1.77 1.183-7.66-1.179-7.66-4.122 0-2.943-4.71-4.708-4.71-7.06 0-1.354-1.743-3.105-3.352-4.902-1.493.748-3.019.915-3.703.23-1.1-1.099-2.57 3.665-1.465 4.764 1.1 1.105 2.565 8.072-.366 7.342-2.94-.734-2.94-4.768-4.78-4.403 0 0-4.761 5.503-4.761 7.707 0 1.479-1.826 1.973-3.25 2.69.85.752 1.572 1.436 1.817 1.81.8 1.183-.388 4.358.79 7.135 1.193 2.772 5.164-1.585 6.347 2.38 1.198 3.959-.785 5.946-.785 9.906 0 3.969-3.176 3.576-2.381 7.143.79 3.562 5.154-.79 8.325-3.174 3.176-2.39 5.562-1.987 6.745-.393 1.193 1.585 5.16.393 5.954-1.594.795-1.973 6.74-2.773 8.723-.393 1.988 2.38 3.967 5.156 6.74 6.741 2.779 1.58-1.978 10.309.795 11.103 2.779.79 6.745 5.152 6.352 9.911-.342 4.09 1.942 7.014-1.197 10.53 1.95 1.267 4.294 1.253 3.97 2.551-.392 1.585 2.779.79 2.779-2.375 0-3.174 4.36-2.781 6.347-1.982 1.558.62 4.318.48 6.592-1.312 0-1.428.106-2.717.277-3.747.588-3.526 0-7.647-1.76-9.417-1.771-1.76-6.482-3.53-7.66-7.056-1.17-3.53-6.473-7.064-7.651-10.008-1.18-2.938-4.711-5.886-4.711-8.233z"/><path fill="#C52323" d="M435.179 222.136c0-3.965-3.971-3.965-.389-8.322 3.56-4.366 9.112-7.54 12.685-6.344 3.569 1.188 10.707-1.986 12.694.393.352.43.763.735 1.184 1.017 3.139-3.517.855-6.441 1.197-10.53.393-4.76-3.573-9.121-6.352-9.912-2.773-.794 1.984-9.522-.795-11.103-2.773-1.585-4.752-4.361-6.74-6.741-1.983-2.38-7.928-1.58-8.723.393-.795 1.987-4.761 3.179-5.954 1.594-1.183-1.594-3.569-1.996-6.745.393-3.17 2.384-7.535 6.736-8.325 3.174-.795-3.567 2.38-3.174 2.38-7.143 0-3.96 1.984-5.947.786-9.907-1.183-3.964-5.154.393-6.347-2.38-1.178-2.776.01-5.95-.79-7.134-.245-.374-.966-1.058-1.817-1.81-.684.346-1.285.748-1.525 1.34-.735 1.834-6.967 2.203-8.437 4.768-1.47 2.569-5.875 2.204-6.976 2.204-1.104 0-4.77.365-5.135 2.938-.366 2.56-1.836 12.836-1.836 14.67 0 1.83 5.132 7.698 6.971 8.433 1.831.734-.37 5.133 1.831 6.233 2.21 1.095.74 4.768-.365 4.399-1.1-.365.735 4.777-1.466 6.602-2.205 1.83-.37 6.608 3.306 9.911 3.67 3.295 3.67 8.433 3.67 11.367 0 2.934 2.931 3.303 2.931 6.963 0 0-4.387 15.996-7.97 15.312-.767 3.997-1.733 10.272-2.62 13.682-1.096 4.255-1.92 7.96.554 8.238 2.473.277 7.42 5.9 12.223 11.949a21.26 21.26 0 0 1 2.782 4.597 22.309 22.309 0 0 1 5.395.36c3.652.684 4.563 3.65 4.563 5.48 0 1.83 6.18 1.146 7.322.91.874-.17-.25-2.748 2.862-3.746-1.868-2.653-6.717-5.873-10.693-6.229-4.669-.411-6.874-7.42-6.458-10.572.412-3.16-3.434-5.91-3.434-8.65 0-2.753-2.75-2.887-5.904-4.403-3.166-1.51.68-10.844 1.096-14.832.407-3.978 7.008-15.381 5.09-18.948-1.928-3.572 6.726-6.317 7.83-2.343 1.096 3.988 1.508 5.91 7.009 5.637 5.492-.272 5.492 3.983 9.888 5.226.259.065.434.19.652.282.027-.088.05-.203.087-.282 1.188-3.165-1.192-3.165-1.192-7.134"/><path stroke="#C52323" stroke-width="1.155" d="M435.179 222.136c0-3.965-3.971-3.965-.389-8.322 3.56-4.366 9.112-7.54 12.685-6.344 3.569 1.188 10.707-1.986 12.694.393.352.43.763.735 1.184 1.017 3.139-3.517.855-6.441 1.197-10.53.393-4.76-3.573-9.121-6.352-9.912-2.773-.794 1.984-9.522-.795-11.103-2.773-1.585-4.752-4.361-6.74-6.741-1.983-2.38-7.928-1.58-8.723.393-.795 1.987-4.761 3.179-5.954 1.594-1.183-1.594-3.569-1.996-6.745.393-3.17 2.384-7.535 6.736-8.325 3.174-.795-3.567 2.38-3.174 2.38-7.143 0-3.96 1.984-5.947.786-9.907-1.183-3.964-5.154.393-6.347-2.38-1.178-2.776.01-5.95-.79-7.134-.245-.374-.966-1.058-1.817-1.81-.684.346-1.285.748-1.525 1.34-.735 1.834-6.967 2.203-8.437 4.768-1.47 2.569-5.875 2.204-6.976 2.204-1.104 0-4.77.365-5.135 2.938-.366 2.56-1.836 12.836-1.836 14.67 0 1.83 5.132 7.698 6.971 8.433 1.831.734-.37 5.133 1.831 6.233 2.21 1.095.74 4.768-.365 4.399-1.1-.365.735 4.777-1.466 6.602-2.205 1.83-.37 6.608 3.306 9.911 3.67 3.295 3.67 8.433 3.67 11.367 0 2.934 2.931 3.303 2.931 6.963 0 0-4.387 15.996-7.97 15.312-.767 3.997-1.733 10.272-2.62 13.682-1.096 4.255-1.92 7.96.554 8.238 2.473.277 7.42 5.9 12.223 11.949a21.26 21.26 0 0 1 2.782 4.597 22.309 22.309 0 0 1 5.395.36c3.652.684 4.563 3.65 4.563 5.48 0 1.83 6.18 1.146 7.322.91.874-.17-.25-2.748 2.862-3.746-1.868-2.653-6.717-5.873-10.693-6.229-4.669-.411-6.874-7.42-6.458-10.572.412-3.16-3.434-5.91-3.434-8.65 0-2.753-2.75-2.887-5.904-4.403-3.166-1.51.68-10.844 1.096-14.832.407-3.978 7.008-15.381 5.09-18.948-1.928-3.572 6.726-6.317 7.83-2.343 1.096 3.988 1.508 5.91 7.009 5.637 5.492-.272 5.492 3.983 9.888 5.226.259.065.434.19.652.282.027-.088.05-.203.087-.282 1.188-3.165-1.192-3.165-1.192-7.134z"/><path fill="#C52323" d="M-71.679 62.552s-14.312-1.83-16.512-1.83c-2.205 0-7.702-.734-11.007-3.673-3.31-2.938-19.448-15.04-22.383-16.504-2.94-1.465-15.047-10.272-18.357-10.637-3.305-.37-3.666 0-7.706 0-4.036 0-2.196 2.57-9.537 2.934-7.341.37-11.377 5.138-9.176 5.869 2.205.734 9.176 6.963 6.97 8.067-2.195 1.1-2.56 4.403-5.5 4.403-2.936 0-5.876.37-5.876 2.57 0 2.199-4.03 5.863-7.336 5.502-1.882-.212-6.019-2.324-9.236-4.103l-.966 2.662-.356 2.513c.647 1.946-.32 9.953 1.557 10.581 2.062.689 3.162 4.394 7.554 9.204 4.396 4.801 13.327 17.715 13.466 20.871.134 3.165 1.65 6.598 7.142 10.304 5.497 3.71 5.497 8.238 8.381 10.442 2.885 2.195 2.205 4.801 2.34 10.3.138 5.489 2.616 12.627 7.562 15.658 4.942 3.022 8.381 6.312 10.716 12.222 2.33 5.905 5.362 10.987 8.515 14.148 3.162 3.156 1.377 4.805 3.162 7.138.915 1.197 2.182 3.249 3.06 5.393 2.441-1.17 4.147-2.07 4.295-2.338.522-1.068-1.068-3.993-.268-5.05.79-1.063 2.385-2.925 3.98-3.448 1.59-.535 3.448 1.59 6.906 1.059 3.453-.527 10.619.268 11.418 1.062.79.795 10.623.264 13.013 2.13 2.386 1.853 4.78 1.322 6.375-2.393 1.59-3.715 12.736-11.676 14.335-12.48 1.595-.795 13.55 0 18.33-1.063 4.775-1.058 36.113-11.144 37.444-12.203 1.327-1.062 6.37-17.516 6.37-19.383 0-1.857-2.385-6.898-4.78-6.63-2.394.259-22.041-1.858-23.373-2.652-1.072-.647-6.286-4.575-7.008-9.98-1.544-1.179-3.328-3.73-3.85-5.943-2.266.296-5.802-.226-7.771-5.34-1.822-1.248-6.643-8.105-4.965-10.018 2.062-2.329-1.096-7.273-4.119-10.022-3.023-2.75-9.208-7.827-9.481-10.988-.074-.868-.541-2.3-1.165-3.941l-7.397-.379-4.766-4.034"/><path stroke="#C52323" stroke-width="1.155" d="M-71.679 62.552s-14.312-1.83-16.512-1.83c-2.205 0-7.702-.734-11.007-3.673-3.31-2.938-19.448-15.04-22.383-16.504-2.94-1.465-15.047-10.272-18.357-10.637-3.305-.37-3.666 0-7.706 0-4.036 0-2.196 2.57-9.537 2.934-7.341.37-11.377 5.138-9.176 5.869 2.205.734 9.176 6.963 6.97 8.067-2.195 1.1-2.56 4.403-5.5 4.403-2.936 0-5.876.37-5.876 2.57 0 2.199-4.03 5.863-7.336 5.502-1.882-.212-6.019-2.324-9.236-4.103l-.966 2.662-.356 2.513c.647 1.946-.32 9.953 1.557 10.581 2.062.689 3.162 4.394 7.554 9.204 4.396 4.801 13.327 17.715 13.466 20.871.134 3.165 1.65 6.598 7.142 10.304 5.497 3.71 5.497 8.238 8.381 10.442 2.885 2.195 2.205 4.801 2.34 10.3.138 5.489 2.616 12.627 7.562 15.658 4.942 3.022 8.381 6.312 10.716 12.222 2.33 5.905 5.362 10.987 8.515 14.148 3.162 3.156 1.377 4.805 3.162 7.138.915 1.197 2.182 3.249 3.06 5.393 2.441-1.17 4.147-2.07 4.295-2.338.522-1.068-1.068-3.993-.268-5.05.79-1.063 2.385-2.925 3.98-3.448 1.59-.535 3.448 1.59 6.906 1.059 3.453-.527 10.619.268 11.418 1.062.79.795 10.623.264 13.013 2.13 2.386 1.853 4.78 1.322 6.375-2.393 1.59-3.715 12.736-11.676 14.335-12.48 1.595-.795 13.55 0 18.33-1.063 4.775-1.058 36.113-11.144 37.444-12.203 1.327-1.062 6.37-17.516 6.37-19.383 0-1.857-2.385-6.898-4.78-6.63-2.394.259-22.041-1.858-23.373-2.652-1.072-.647-6.286-4.575-7.008-9.98-1.544-1.179-3.328-3.73-3.85-5.943-2.266.296-5.802-.226-7.771-5.34-1.822-1.248-6.643-8.105-4.965-10.018 2.062-2.329-1.096-7.273-4.119-10.022-3.023-2.75-9.208-7.827-9.481-10.988-.074-.868-.541-2.3-1.165-3.941l-7.397-.379-4.766-4.034z"/><path fill="#C52323" d="M9.317 103.532v7.037l-5.867 7.434-3.134 7.823c.892.05 1.572.064 1.9.023 2.395-.268 4.78 4.773 4.78 6.63 0 1.867-5.043 18.32-6.37 19.383-.962.767-17.525 6.22-28.48 9.606 2.375 4.921 7.114 14.721 11.39 23.468a17.666 17.666 0 0 0 2.353-1.137c5.223-3.017 11.131-1.501 15.12-2.606 3.985-1.095.135-4.398 3.574-7.281 3.435-2.884 8.381-.684 10.16-1.65 1.794-.956 3.033-7.268 6.052-8.506 3.019-1.243 6.32-.416 5.903-3.027-.411-2.61.282-11.948 3.167-12.498 2.884-.546 7.42-3.577 7.558-5.222.139-1.649 5.908-7.827 7.692-10.844 1.78-3.022 1.928-4.671-.684-5.082-2.612-.412-6.735-7.698-7.826-9.754-1.1-2.061-9.075-.689-15.533-5.767-2.625-2.06-4.077-5.965-5.006-9.874l-3.227 1.844H9.317"/><path stroke="#C52323" stroke-width="1.155" d="M9.317 103.532v7.037l-5.867 7.434-3.134 7.823c.892.05 1.572.064 1.9.023 2.395-.268 4.78 4.773 4.78 6.63 0 1.867-5.043 18.32-6.37 19.383-.962.767-17.525 6.22-28.48 9.606 2.375 4.921 7.114 14.721 11.39 23.468a17.666 17.666 0 0 0 2.353-1.137c5.223-3.017 11.131-1.501 15.12-2.606 3.985-1.095.135-4.398 3.574-7.281 3.435-2.884 8.381-.684 10.16-1.65 1.794-.956 3.033-7.268 6.052-8.506 3.019-1.243 6.32-.416 5.903-3.027-.411-2.61.282-11.948 3.167-12.498 2.884-.546 7.42-3.577 7.558-5.222.139-1.649 5.908-7.827 7.692-10.844 1.78-3.022 1.928-4.671-.684-5.082-2.612-.412-6.735-7.698-7.826-9.754-1.1-2.061-9.075-.689-15.533-5.767-2.625-2.06-4.077-5.965-5.006-9.874l-3.227 1.844H9.317z"/><path fill="#C52323" d="M-21.157 123.197c1.152.684 15.898 2.352 21.473 2.629l3.134-7.823 5.867-7.434v-7.037h3.522l3.227-1.844c-1.364-5.72-1.567-11.468-2.547-11.556-1.65-.134-8.39 7.144-11.136 12.499-2.746 5.355-10.711 9.472-17.585 8.243-6.88-1.239-9.204 1.645-10.998 2.883-.458.319-1.179.06-1.965-.54.722 5.405 5.936 9.333 7.008 9.98"/><path stroke="#C52323" stroke-width="1.155" d="M-21.157 123.197c1.152.684 15.898 2.352 21.473 2.629l3.134-7.823 5.867-7.434v-7.037h3.522l3.227-1.844c-1.364-5.72-1.567-11.468-2.547-11.556-1.65-.134-8.39 7.144-11.136 12.499-2.746 5.355-10.711 9.472-17.585 8.243-6.88-1.239-9.204 1.645-10.998 2.883-.458.319-1.179.06-1.965-.54.722 5.405 5.936 9.333 7.008 9.98z"/><path fill="#C52323" d="M584.17 289.42c-2.468.545-8.242.272-8.242-2.2 0-2.471-5.224-7.138-8.52-7.138-3.3 0-7.151 6.589-7.42 9.338-.272 2.75-5.5 2.472-4.95 6.311.217 1.52-.759 2.168-2.016 2.565.841 3.317 1.313 5.71.092 5.406-2.195-.55-2.75 2.2-6.041 2.2-1.133 0-3.033-2.847-5.04-6.557-.06-.01-.129-.037-.184-.037-2.196 0-7.142 7.688-8.243 12.91-1.1 5.22-6.041 3.571-13.466 4.116-7.42.555-4.4 8.243-6.046 11.82-1.507 3.262-9.657-2.639-13.78-3.475.693 2.943 1.664 5.942 2.782 5.942 2.2 0 5.501 5.494 7.697 3.84 2.2-1.64 8.788 0 12.089-1.095 3.3-1.09 3.85-3.845 9.351-3.845 5.492 0 3.297 4.4 8.788 1.65 5.501-2.75 8.802-.55 8.243-5.494-.546-4.94 3.3-4.94 2.75-8.788-.545-3.849 6.056-1.1 5.492-8.248-.54-7.138 9.902-6.034 14.294-6.034 1.017 0 2.598.6 4.4 1.492 3.255-1.603 7.92-3.715 5.77-5.614-2.469-2.194 7.424-.277 8.52-3.571 1.1-3.3-3.847-6.049-6.32-5.494zm-140.564 10.567c.139-6.178-5.774-5.485-7.147-9.74-1.377-4.26-3.712-1.793-4.54-4.537-.12-.407-.383-.86-.711-1.326-3.111.998-1.988 3.576-2.862 3.747-1.141.235-7.322.92-7.322-.91s-.91-4.797-4.563-5.48a22.309 22.309 0 0 0-5.395-.36c2.2 4.888 2.478 10.063 2.575 14.217.148 5.493 8.247 14.286 9.486 17.853 1.24 3.572 3.574 4.672 8.936 8.52 5.358 3.845 15.8 10.022 17.858 9.066 2.061-.966-3.158-10.031-6.18-13.182-3.024-3.166-.278-11.686-.135-17.868z"/><path stroke="#C52323" stroke-width="1.155" d="M584.17 289.42c-2.468.545-8.242.272-8.242-2.2 0-2.471-5.224-7.138-8.52-7.138-3.3 0-7.151 6.589-7.42 9.338-.272 2.75-5.5 2.472-4.95 6.311.217 1.52-.759 2.168-2.016 2.565.841 3.317 1.313 5.71.092 5.406-2.195-.55-2.75 2.2-6.041 2.2-1.133 0-3.033-2.847-5.04-6.557-.06-.01-.129-.037-.184-.037-2.196 0-7.142 7.688-8.243 12.91-1.1 5.22-6.041 3.571-13.466 4.116-7.42.555-4.4 8.243-6.046 11.82-1.507 3.262-9.657-2.639-13.78-3.475.693 2.943 1.664 5.942 2.782 5.942 2.2 0 5.501 5.494 7.697 3.84 2.2-1.64 8.788 0 12.089-1.095 3.3-1.09 3.85-3.845 9.351-3.845 5.492 0 3.297 4.4 8.788 1.65 5.501-2.75 8.802-.55 8.243-5.494-.546-4.94 3.3-4.94 2.75-8.788-.545-3.849 6.056-1.1 5.492-8.248-.54-7.138 9.902-6.034 14.294-6.034 1.017 0 2.598.6 4.4 1.492 3.255-1.603 7.92-3.715 5.77-5.614-2.469-2.194 7.424-.277 8.52-3.571 1.1-3.3-3.847-6.049-6.32-5.494zm-140.564 10.567c.139-6.178-5.774-5.485-7.147-9.74-1.377-4.26-3.712-1.793-4.54-4.537-.12-.407-.383-.86-.711-1.326-3.111.998-1.988 3.576-2.862 3.747-1.141.235-7.322.92-7.322-.91s-.91-4.797-4.563-5.48a22.309 22.309 0 0 0-5.395-.36c2.2 4.888 2.478 10.063 2.575 14.217.148 5.493 8.247 14.286 9.486 17.853 1.24 3.572 3.574 4.672 8.936 8.52 5.358 3.845 15.8 10.022 17.858 9.066 2.061-.966-3.158-10.031-6.18-13.182-3.024-3.166-.278-11.686-.135-17.868z"/><path fill="#C52323" d="M547.073 305.901c3.29 0 3.846-2.749 6.041-2.2 1.22.306.75-2.088-.092-5.405-1.955.619-4.581.605-4.581 2.107 0 2.416-4.16-.897-6.407-1.058 2.006 3.71 3.906 6.556 5.039 6.556"/><path stroke="#C52323" stroke-width="1.155" d="M547.073 305.901c3.29 0 3.846-2.749 6.041-2.2 1.22.306.75-2.088-.092-5.405-1.955.619-4.581.605-4.581 2.107 0 2.416-4.16-.897-6.407-1.058 2.006 3.71 3.906 6.556 5.039 6.556zM708.66 20.783c0-2.75-6.046-2.204-6.318-4.676-.278-2.472-4.397-1.09-8.515 1.927-4.124 3.017-5.502 3.567-3.851 6.589 1.65 3.021 4.119.277 5.219-2.745 1.1-3.022 3.855 4.394 1.377 9.338-2.477 4.949.315 11.912 3.57 11.26 2.75-.545 6.323-10.437 10.447-15.659 4.119-5.216-1.928-3.299-1.928-6.034zm18.963-10.72c-1.1 3.027-4.396 1.654-8.792 2.477-4.396.822-4.549 11.302-1.373 12.36 2.469.822 4.396.822 5.22-2.472.822-3.295 5.223-4.394 7.973-3.027 2.746 1.382 6.32-4.121 6.32-8.238 0-4.122-8.247-4.122-9.348-1.1zm60.461-71.419c-2.745 1.377-4.673 9.892-1.645 12.36 3.018 2.472-4.947 7.148-4.678 12.364.277 5.222-4.947 5.222-5.774 9.061-.823 3.854-3.842 3.027-8.515 6.594-4.665 3.571-7.147-.55-6.047-3.018 1.1-2.476-7.142 1.373-6.874 7.421.282 6.039-7.688 6.584-5.77 9.333 1.929 2.754-6.036 4.39-5.773 1.918.282-2.467-4.946-1.086-11.256 1.382-6.32 2.472-10.175-2.75-13.744.822-3.573 3.576-9.624 9.893-14.293 10.715-4.665.822-1.974 6.478 0 5.494 3.3-1.654 8.524 0 10.174-2.477 1.646-2.472 15.107-5.489 23.35-5.766 8.242-.277 3.3 3.84 3.85 8.243.55 4.394 7.425 3.571 10.993-.55 3.574-4.122 6.32-3.854 3.297-6.326-3.024-2.467.554-4.666 2.755-1.367 2.19 3.294 9.065 3.571 11.81-.823 2.751-4.398 3.574.823 6.87.546 3.3-.273 5.224-8.511 5.501-5.494.278 3.022 5.497 2.2 8.793-1.368 3.3-3.576.277-9.892 2.473-13.187 2.196-3.294 4.396-10.165 2.196-14.287-2.196-4.116 4.95-6.866 8.52-10.165 3.578-3.294-4.12-19.77-4.397-24.72-.272-4.943-9.07 1.923-11.816 3.295zm50.569-37.63c-1.923-2.467-5.22 1.377-9.343 2.195-4.123.823-17.04-9.883-20.34-14.832-3.3-4.939-8.792-.817-6.042 2.75 2.75 3.571-.56 4.666-.56 9.615 0 4.94-3.29 4.94-2.74 8.238.55 3.295-4.401 2.75-7.702 3.295-3.291.554.282 3.853-3.569 5.503-3.846 1.645-3.573 4.39-1.65 5.489 1.928 1.095.555 4.667 0 7.139-.55 2.472 2.473.554 4.678-1.923 2.196-2.467 4.489 1.193 4.947-1.1.55-2.74-5.774-4.116-5.502-6.87.278-2.735 4.397.827 7.697-.818 3.301-1.65 9.893-.272 14.012 3.295 4.123 3.571 5.228 2.204 6.051-2.195.823-4.394 7.142-6.316 13.462-6.316 6.323 0 6.869-3.031 4.946-4.4-1.919-1.367 10.447-9.337 10.17-11.532-.273-2.2-6.592 4.944-8.515 2.467z"/><path fill="#C52323" d="M502.55 153.452c-3.573 0-12.647 5.216-9.07 12.628 3.574 7.416 15.39 2.476 15.663-.823.277-3.294 5.663-8.478 4.95-10.983-.55-1.922-7.964-.822-11.542-.822zm98.11-37.357c-3.02 10.988 4.021 16.574 4.946 15.932 2.746-1.923 14.016-25.547 11.543-28.842-2.473-3.294-13.466 1.918-16.49 12.91zm134.66-260.126c.282-4.949-5.5-3.294-7.42-1.922-1.922 1.372-7.419 0-9.069 3.294-1.65 3.295-4.396 1.373-8.242 1.927-3.842.55-9.348-1.104-9.07-3.576.277-2.472-2.205-4.94-1.923-7.961.272-3.022-3.846-1.65-6.602-4.4-2.75-2.744-8.237-4.666-9.342-4.116-1.096.545-4.396-3.022-9.07-3.299-4.669-.282-4.119-3.3-3.569-5.221.546-1.918-3.85-7.966-4.678-11.265-.823-3.29-4.114-3.84-5.492-10.983-1.373-7.139-5.224-5.217-4.396-8.511.823-3.294-4.67-4.949-6.047-6.875-1.373-1.922-7.146-1.1-11.27-3.29-4.123-2.195-6.592-.55-10.438-1.65-3.846-1.1-12.648 1.1-13.739 1.1-1.1 0-7.974-1.377-11.816 3.84-3.85 5.225-.827 4.948.819 4.948 1.65 0 2.473 4.944 2.75 6.594.282 1.645-2.75 4.121-4.123 4.666-1.369.555-5.22 6.594-5.77 8.798-.55 2.195-4.946 7.684-4.4 9.61.545 1.923-2.192 3.84-4.12 4.117-1.922.282-7.142 4.122-8.792 4.672-1.65.55-8.242-.55-9.07-2.472-.259-.624-1.068-1.137-2.07-1.548l-7.434 14.86-.601 4.786s-4.78 1.202-1.197 4.787c3.592 3.59 4.188.596 9.583.596 5.38 0 7.78 4.191 8.982 1.202 1.192-2.99 5.982-4.787 8.972-1.202 2.996 3.59 12.579 9.583 11.983 12.568-.606 2.994-5.987 2.394-9.579 1.197-3.6-1.197-8.385 2.393-11.973 2.393-3.6 0-7.784 1.202-11.38 4.792-3.597 3.59-2.996 7.18-8.387 7.78-5.385.601-7.78 0-13.766 4.187-5.987 4.19-12.579 2.393-14.964 1.201-2.4-1.201-6.592-1.797-8.991 2.389-2.386 4.186 3 5.984 2.399 10.77-.601 4.787-6.583 3.6-11.377 8.978-4.789 5.392-12.574 7.781-16.762 7.185-4.188-.6-13.175-2.99-20.95.596-7.785 3.59-13.18 8.982-16.17 8.382-2.996-.601-2.991-4.2-7.184-3.6-4.193.601-6.578-.6-9.574-2.388-3-1.798-5.39 1.196-10.184-2.394-4.79-3.585-13.17-2.99-16.762-3.585-3.592-.601-17.363 0-22.157-.601-4.784-.6-11.372 1.197-11.973-1.197-.596-2.398-4.193-4.195-5.385-9.574-1.198-5.392-4.193-7.19-7.184-7.785-3-.6-3.352-3.752-5.987-4.186-1.266-.208-2.792-4.205-6.975-4.205-4.184 0-18.829-1.705-20.923-5.124-2.09-3.429 2.094-4.19 2.094-7.61s2.28-7.984.569-9.315c-1.715-1.335-4.567-4.38-4.947-7.033-.379-2.67-4.946-6.27-7.992-6.464-3.042-.194-5.506-2.097-8.363-4.565-2.857-2.472-5.52-2.291-6.661-8.557-.074-.411-.199-.74-.3-1.109-1.147-.125-2.613-.568-3.551-.568-.744 0-1.632-.615-2.436-1.451-.749 2.615-3.222 3.918-3.222 5.984 0 2.278-.953 5.124-3.999 5.124-3.037 0-5.89 2.287-6.083 7.041-.195 4.75 2.662 5.323 1.33 7.416-1.33 2.093-6.85 4.177-8.755 3.23-1.9-.952-5.51-.383-8.556-.758-3.042-.379-5.33-4.186-6.278 0-.952 4.187-7.23 16.537-5.704 17.872 1.52 1.336 2.658 4.371 0 4.371-2.663 0-5.326-.378-6.657-1.714-1.332-1.321-5.69 1.862-8.751 1.714-1.424-.073-7.401 2.606-5.34 3.637 2.062 1.03 2.062 5.974 2.062 8.03 0 2.061 4.535 8.243 3.712 10.304-.822 2.06-4.946 4.325-4.946 7 0 2.68.823 5.157-.615 5.776-1.447.619-5.982 2.472-8.251 4.121-2.266 1.645-5.978 1.645-7.212 4.122-1.239 2.467-3.097 4.602-7.42 4.117-3.711-.416-5.565-1.035-8.454 2.467-2.885 3.502-3.5 2.065-5.566 3.71-2.057 1.65-4.12-1.233-5.77-1.848-1.64-.624-3.915 1.848-5.56 1.848-1.646 0-3.093 2.676-5.15 3.3-2.067.619-4.128 0-4.128 2.471 0 1.52-.393 3.286-1.521 4.602h.009l1.465 8.063s8.816 2.939 9.181 5.877c.37 2.935 1.835 12.471 1.835 12.471s-.115.014-.268.028c3.569 2.8 8.47 5.785 8.47 6.866 0 1.238.415 4.944 4.737 7.005 2.746 1.303 5.557 2.694 7.258 3.849.213-.527.351-.878.351-.878l3.666-.37s1.082.689 2.104 1.793c.901-2.971 7.234-6.238 10.535-6.048 3.504.208 11.538 6.598 10.71 8.862-.817 2.268-6.587 10.507-9.272 11.126-1.008.236-2.501.351-3.962.402-.25 1.354-.573 2.606-.573 3.313 0 1.839 3.3 4.764 5.136 8.063 1.84 3.303-2.936 5.503-5.502 3.303-2.57-2.199-3.665 2.2-2.205 4.03 1.47 1.838.74 6.976 3.306 7.341 2.565.365 4.766 5.499 7.706 5.499 2.935 0 5.51 4.768 5.51 4.768s4.031 2.57 4.031 4.039c0 .17-.07.36-.18.559 3.199-.324 5.32-.44 5.695-1.76.416-1.442 4.535-1.442 7.42 1.44 2.889 2.884 14.64 10.3 18.962 13.802 4.336 3.503 14.428 7.412 17.932 7.208 3.509-.203 6.805 2.477 12.162 2.269.81-.023 1.498 0 2.131.046.763-.804 2.048-.822 3.028-2.296 1.466-2.2 3.675 1.839 2.94 4.768-.342 1.363-.037 2.879.523 4.08.73-1.044 1.488-2.435 2.094-3.923 1.858-4.532 4.743-4.324 6.601-5.766 1.854-1.442 3.708-.823 7.623 1.234 3.694 1.945 5.196-2.149 10.73 2.929 1.15-.513 2.616-1.118 3.254-1.118 1.096 0 2.566-2.204 4.4-4.039 1.831-1.834 1.466-4.038 3.671-3.668 2.2.365 3.306-2.56 8.072-5.129 4.77-2.569 8.806 1.47 11.011-.365 2.196-1.839 4.766-2.574 4.766-.74 0 1.84 2.94 4.04 3.675 6.234.657 1.973 4.517 2.767 5.33 2.901.694-.365 1.253-.688 1.567-.914 2.265-1.65 6.18.203 6.18 2.675s.209 5.147 2.067 5.147c1.854 0 3.708 0 3.708 4.533s1.65 9.685-2.265 13.603c-3.92 3.909-8.455 10.913-7.628 12.97.823 2.065-1.239 5.978 1.65 4.537 2.885-1.442 9.482 0 8.446 1.645-1.03 1.654.208 7.42 2.885 7.624 2.681.212 4.336 1.65 3.504 4.121-.823 2.472-2.265 6.178 0 6.178 2.27 0 5.566 0 5.154 2.476-.411 2.472 1.65 4.741 5.77 3.087 2.426-.966 3.633-1.844 4.183-.869 1.641-.055 1.757 3.673 4.59 4.38 2.931.73 1.466-6.237.366-7.342-1.105-1.1.365-5.863 1.465-4.763 1.1 1.1 4.396 0 6.236-2.204 1.835-2.195 5.506 1.839 6.976-.73 1.47-2.565 4.766 1.834 8.071 0 3.3-1.83 4.775 1.469 6.236-1.1 1.466-2.569 6.241-5.868 7.341-4.768 1.1 1.1 1.84 3.303 7.702 4.038 5.88.73 2.57 3.664 2.57 5.498 0 1.84 6.606 6.603 9.171 6.968.477.074 1.142.642 1.91 1.525 1.784-.873 4.97.587 5.676-1.516.823-2.476 3.842-1.797 5.076.268 1.24 2.056 2.612 2.472 5.363 0 2.75-2.472 4.118 2.472 2.473 3.854-1.65 1.363-.546 5.618 2.062 8.095 2.607 2.472 3.018-1.51 2.473-3.978-.55-2.472 4.396-4.949 13.054-7.827 8.654-2.888 17.997-9.21 18.135-10.577.14-1.372 6.186 2.468 9.07.273 2.885-2.195 13.328-2.472 16.078-2.61 2.75-.135 2.607-2.477 5.497-4.802 2.88-2.342 2.195-3.442 5.496-4.398 3.296-.961 5.353-3.988 5.353-5.637 0-1.65 6.186-2.195 6.324-3.979.139-1.783 4.678-2.333 4.678-4.532 0-2.19 2.742-1.788 3.985-3.438 1.24-1.645-.966-6.45 1.24-7.139 2.186-.688-.833-3.299-1.24-4.528-.416-1.238 4.124-1.52 6.449-3.026 2.34-1.511 3.855-3.85 4.262-6.455.416-2.61 4.258-4.94 6.042-5.632 1.794-.68 2.478-4.39 1.928-7.55-.546-3.16 3.166-2.343 1.516-3.577-1.65-1.233.684-4.666 3.98-5.623 3.296-.96-2.061-2.476-3.846-1.1-1.784 1.373-3.712-3.982-5.362-1.926-1.641 2.06-6.315-1.239-3.296-1.918 3.023-.693 7.697-4.121 9.763-4.81 2.057-.693-3.033-5.22-5.64-5.082-2.607.134-5.492-6.044-8.242-6.044-2.75 0 2.057-1.922 5.224-.273 3.157 1.64 6.864 3.022 8.242 1.64 1.373-1.367-5.358-6.856-7.831-8.783-2.478-1.927-.143-4.533-1.65-5.637-1.512-1.09-4.813-8.095-5.913-11.256-1.095-3.165-6.87-3.71-8.242-5.766-1.369-2.065.138-6.87 4.4-8.654 4.258-1.784 2.47-5.36 4.397-4.949 1.928.416 3.564-.411 5.085-3.567 1.512-3.156 4.119-1.238 5.63-2.888 1.517-1.645 8.247-1.506 10.577-3.155 2.34-1.645-2.196-6.733-5.357-5.91-3.153.822-6.865-.411-9.07-3.706-2.196-3.299-7.965 6.044-12.366 8.105-4.396 2.06-7.281-3.71-5.774-7.416 1.516-3.71-3.43-3.572-9.615-3.3-6.186.278-3.846-10.987-.134-11.532 3.712-.55 9.203 3.428 11.543-3.433 2.334-6.87 5.626-1.516 10.854-7.555 5.224-6.043 11.26-9.754 15.8-6.182 4.53 3.567-4.807 9.204-6.319 12.633-1.512 3.433 1.368 4.537-1.373 7.138-2.75 2.62 1.091 3.3 6.454-.134 5.357-3.424 11.95-7.55 17.178-9.606 1.391-.55 2.93-.693 4.484-.568.735-1.992 1.6-3.576 2.62-4.085 3.593-1.797 15.566-7.18 17.364-9.578 1.798-2.389 3.592-6.575 5.986-6.575 2.39 0 2.39 2.389 5.987 2.389 3.596 0 7.78 1.197 5.986-1.793-1.798-2.999-.591-2.999 3.592-3.6 4.188-.59 3.592-4.777 6.592-4.777 2.987 0 2.386-7.185 5.381-7.185 2.996 0 4.198 4.196 7.79 2.994.679-.235 1.571-.05 2.551.37a67.657 67.657 0 0 1 2.27-1.705c-.36-3.747.074-7.111-.656-8.88-1.378-3.3 0-5.767-.56-7.69-.545-1.926-.823-6.593 1.382-6.593 2.196 0 4.947-5.498 7.688-3.571 2.75 1.926 8.242 2.472 8.242 0s3.851-2.75 4.401-6.049c.546-3.294 4.67-4.117 5.501-7.138.819-3.018 2.196-10.166 4.942-11.81 2.75-1.65-.55-2.74-.273-7.689z"/><path stroke="#C52323" stroke-width="1.155" d="M502.55 153.452c-3.573 0-12.647 5.216-9.07 12.628 3.574 7.416 15.39 2.476 15.663-.823.277-3.294 5.663-8.478 4.95-10.983-.55-1.922-7.964-.822-11.542-.822zm98.11-37.357c-3.02 10.988 4.021 16.574 4.946 15.932 2.746-1.923 14.016-25.547 11.543-28.842-2.473-3.294-13.466 1.918-16.49 12.91zm134.66-260.126c.282-4.949-5.5-3.294-7.42-1.922-1.922 1.372-7.419 0-9.069 3.294-1.65 3.295-4.396 1.373-8.242 1.927-3.842.55-9.348-1.104-9.07-3.576.277-2.472-2.205-4.94-1.923-7.961.272-3.022-3.846-1.65-6.602-4.4-2.75-2.744-8.237-4.666-9.342-4.116-1.096.545-4.396-3.022-9.07-3.299-4.669-.282-4.119-3.3-3.569-5.221.546-1.918-3.85-7.966-4.678-11.265-.823-3.29-4.114-3.84-5.492-10.983-1.373-7.139-5.224-5.217-4.396-8.511.823-3.294-4.67-4.949-6.047-6.875-1.373-1.922-7.146-1.1-11.27-3.29-4.123-2.195-6.592-.55-10.438-1.65-3.846-1.1-12.648 1.1-13.739 1.1-1.1 0-7.974-1.377-11.816 3.84-3.85 5.225-.827 4.948.819 4.948 1.65 0 2.473 4.944 2.75 6.594.282 1.645-2.75 4.121-4.123 4.666-1.369.555-5.22 6.594-5.77 8.798-.55 2.195-4.946 7.684-4.4 9.61.545 1.923-2.192 3.84-4.12 4.117-1.922.282-7.142 4.122-8.792 4.672-1.65.55-8.242-.55-9.07-2.472-.259-.624-1.068-1.137-2.07-1.548l-7.434 14.86-.601 4.786s-4.78 1.202-1.197 4.787c3.592 3.59 4.188.596 9.583.596 5.38 0 7.78 4.191 8.982 1.202 1.192-2.99 5.982-4.787 8.972-1.202 2.996 3.59 12.579 9.583 11.983 12.568-.606 2.994-5.987 2.394-9.579 1.197-3.6-1.197-8.385 2.393-11.973 2.393-3.6 0-7.784 1.202-11.38 4.792-3.597 3.59-2.996 7.18-8.387 7.78-5.385.601-7.78 0-13.766 4.187-5.987 4.19-12.579 2.393-14.964 1.201-2.4-1.201-6.592-1.797-8.991 2.389-2.386 4.186 3 5.984 2.399 10.77-.601 4.787-6.583 3.6-11.377 8.978-4.789 5.392-12.574 7.781-16.762 7.185-4.188-.6-13.175-2.99-20.95.596-7.785 3.59-13.18 8.982-16.17 8.382-2.996-.601-2.991-4.2-7.184-3.6-4.193.601-6.578-.6-9.574-2.388-3-1.798-5.39 1.196-10.184-2.394-4.79-3.585-13.17-2.99-16.762-3.585-3.592-.601-17.363 0-22.157-.601-4.784-.6-11.372 1.197-11.973-1.197-.596-2.398-4.193-4.195-5.385-9.574-1.198-5.392-4.193-7.19-7.184-7.785-3-.6-3.352-3.752-5.987-4.186-1.266-.208-2.792-4.205-6.975-4.205-4.184 0-18.829-1.705-20.923-5.124-2.09-3.429 2.094-4.19 2.094-7.61s2.28-7.984.569-9.315c-1.715-1.335-4.567-4.38-4.947-7.033-.379-2.67-4.946-6.27-7.992-6.464-3.042-.194-5.506-2.097-8.363-4.565-2.857-2.472-5.52-2.291-6.661-8.557-.074-.411-.199-.74-.3-1.109-1.147-.125-2.613-.568-3.551-.568-.744 0-1.632-.615-2.436-1.451-.749 2.615-3.222 3.918-3.222 5.984 0 2.278-.953 5.124-3.999 5.124-3.037 0-5.89 2.287-6.083 7.041-.195 4.75 2.662 5.323 1.33 7.416-1.33 2.093-6.85 4.177-8.755 3.23-1.9-.952-5.51-.383-8.556-.758-3.042-.379-5.33-4.186-6.278 0-.952 4.187-7.23 16.537-5.704 17.872 1.52 1.336 2.658 4.371 0 4.371-2.663 0-5.326-.378-6.657-1.714-1.332-1.321-5.69 1.862-8.751 1.714-1.424-.073-7.401 2.606-5.34 3.637 2.062 1.03 2.062 5.974 2.062 8.03 0 2.061 4.535 8.243 3.712 10.304-.822 2.06-4.946 4.325-4.946 7 0 2.68.823 5.157-.615 5.776-1.447.619-5.982 2.472-8.251 4.121-2.266 1.645-5.978 1.645-7.212 4.122-1.239 2.467-3.097 4.602-7.42 4.117-3.711-.416-5.565-1.035-8.454 2.467-2.885 3.502-3.5 2.065-5.566 3.71-2.057 1.65-4.12-1.233-5.77-1.848-1.64-.624-3.915 1.848-5.56 1.848-1.646 0-3.093 2.676-5.15 3.3-2.067.619-4.128 0-4.128 2.471 0 1.52-.393 3.286-1.521 4.602h.009l1.465 8.063s8.816 2.939 9.181 5.877c.37 2.935 1.835 12.471 1.835 12.471s-.115.014-.268.028c3.569 2.8 8.47 5.785 8.47 6.866 0 1.238.415 4.944 4.737 7.005 2.746 1.303 5.557 2.694 7.258 3.849.213-.527.351-.878.351-.878l3.666-.37s1.082.689 2.104 1.793c.901-2.971 7.234-6.238 10.535-6.048 3.504.208 11.538 6.598 10.71 8.862-.817 2.268-6.587 10.507-9.272 11.126-1.008.236-2.501.351-3.962.402-.25 1.354-.573 2.606-.573 3.313 0 1.839 3.3 4.764 5.136 8.063 1.84 3.303-2.936 5.503-5.502 3.303-2.57-2.199-3.665 2.2-2.205 4.03 1.47 1.838.74 6.976 3.306 7.341 2.565.365 4.766 5.499 7.706 5.499 2.935 0 5.51 4.768 5.51 4.768s4.031 2.57 4.031 4.039c0 .17-.07.36-.18.559 3.199-.324 5.32-.44 5.695-1.76.416-1.442 4.535-1.442 7.42 1.44 2.889 2.884 14.64 10.3 18.962 13.802 4.336 3.503 14.428 7.412 17.932 7.208 3.509-.203 6.805 2.477 12.162 2.269.81-.023 1.498 0 2.131.046.763-.804 2.048-.822 3.028-2.296 1.466-2.2 3.675 1.839 2.94 4.768-.342 1.363-.037 2.879.523 4.08.73-1.044 1.488-2.435 2.094-3.923 1.858-4.532 4.743-4.324 6.601-5.766 1.854-1.442 3.708-.823 7.623 1.234 3.694 1.945 5.196-2.149 10.73 2.929 1.15-.513 2.616-1.118 3.254-1.118 1.096 0 2.566-2.204 4.4-4.039 1.831-1.834 1.466-4.038 3.671-3.668 2.2.365 3.306-2.56 8.072-5.129 4.77-2.569 8.806 1.47 11.011-.365 2.196-1.839 4.766-2.574 4.766-.74 0 1.84 2.94 4.04 3.675 6.234.657 1.973 4.517 2.767 5.33 2.901.694-.365 1.253-.688 1.567-.914 2.265-1.65 6.18.203 6.18 2.675s.209 5.147 2.067 5.147c1.854 0 3.708 0 3.708 4.533s1.65 9.685-2.265 13.603c-3.92 3.909-8.455 10.913-7.628 12.97.823 2.065-1.239 5.978 1.65 4.537 2.885-1.442 9.482 0 8.446 1.645-1.03 1.654.208 7.42 2.885 7.624 2.681.212 4.336 1.65 3.504 4.121-.823 2.472-2.265 6.178 0 6.178 2.27 0 5.566 0 5.154 2.476-.411 2.472 1.65 4.741 5.77 3.087 2.426-.966 3.633-1.844 4.183-.869 1.641-.055 1.757 3.673 4.59 4.38 2.931.73 1.466-6.237.366-7.342-1.105-1.1.365-5.863 1.465-4.763 1.1 1.1 4.396 0 6.236-2.204 1.835-2.195 5.506 1.839 6.976-.73 1.47-2.565 4.766 1.834 8.071 0 3.3-1.83 4.775 1.469 6.236-1.1 1.466-2.569 6.241-5.868 7.341-4.768 1.1 1.1 1.84 3.303 7.702 4.038 5.88.73 2.57 3.664 2.57 5.498 0 1.84 6.606 6.603 9.171 6.968.477.074 1.142.642 1.91 1.525 1.784-.873 4.97.587 5.676-1.516.823-2.476 3.842-1.797 5.076.268 1.24 2.056 2.612 2.472 5.363 0 2.75-2.472 4.118 2.472 2.473 3.854-1.65 1.363-.546 5.618 2.062 8.095 2.607 2.472 3.018-1.51 2.473-3.978-.55-2.472 4.396-4.949 13.054-7.827 8.654-2.888 17.997-9.21 18.135-10.577.14-1.372 6.186 2.468 9.07.273 2.885-2.195 13.328-2.472 16.078-2.61 2.75-.135 2.607-2.477 5.497-4.802 2.88-2.342 2.195-3.442 5.496-4.398 3.296-.961 5.353-3.988 5.353-5.637 0-1.65 6.186-2.195 6.324-3.979.139-1.783 4.678-2.333 4.678-4.532 0-2.19 2.742-1.788 3.985-3.438 1.24-1.645-.966-6.45 1.24-7.139 2.186-.688-.833-3.299-1.24-4.528-.416-1.238 4.124-1.52 6.449-3.026 2.34-1.511 3.855-3.85 4.262-6.455.416-2.61 4.258-4.94 6.042-5.632 1.794-.68 2.478-4.39 1.928-7.55-.546-3.16 3.166-2.343 1.516-3.577-1.65-1.233.684-4.666 3.98-5.623 3.296-.96-2.061-2.476-3.846-1.1-1.784 1.373-3.712-3.982-5.362-1.926-1.641 2.06-6.315-1.239-3.296-1.918 3.023-.693 7.697-4.121 9.763-4.81 2.057-.693-3.033-5.22-5.64-5.082-2.607.134-5.492-6.044-8.242-6.044-2.75 0 2.057-1.922 5.224-.273 3.157 1.64 6.864 3.022 8.242 1.64 1.373-1.367-5.358-6.856-7.831-8.783-2.478-1.927-.143-4.533-1.65-5.637-1.512-1.09-4.813-8.095-5.913-11.256-1.095-3.165-6.87-3.71-8.242-5.766-1.369-2.065.138-6.87 4.4-8.654 4.258-1.784 2.47-5.36 4.397-4.949 1.928.416 3.564-.411 5.085-3.567 1.512-3.156 4.119-1.238 5.63-2.888 1.517-1.645 8.247-1.506 10.577-3.155 2.34-1.645-2.196-6.733-5.357-5.91-3.153.822-6.865-.411-9.07-3.706-2.196-3.299-7.965 6.044-12.366 8.105-4.396 2.06-7.281-3.71-5.774-7.416 1.516-3.71-3.43-3.572-9.615-3.3-6.186.278-3.846-10.987-.134-11.532 3.712-.55 9.203 3.428 11.543-3.433 2.334-6.87 5.626-1.516 10.854-7.555 5.224-6.043 11.26-9.754 15.8-6.182 4.53 3.567-4.807 9.204-6.319 12.633-1.512 3.433 1.368 4.537-1.373 7.138-2.75 2.62 1.091 3.3 6.454-.134 5.357-3.424 11.95-7.55 17.178-9.606 1.391-.55 2.93-.693 4.484-.568.735-1.992 1.6-3.576 2.62-4.085 3.593-1.797 15.566-7.18 17.364-9.578 1.798-2.389 3.592-6.575 5.986-6.575 2.39 0 2.39 2.389 5.987 2.389 3.596 0 7.78 1.197 5.986-1.793-1.798-2.999-.591-2.999 3.592-3.6 4.188-.59 3.592-4.777 6.592-4.777 2.987 0 2.386-7.185 5.381-7.185 2.996 0 4.198 4.196 7.79 2.994.679-.235 1.571-.05 2.551.37a67.657 67.657 0 0 1 2.27-1.705c-.36-3.747.074-7.111-.656-8.88-1.378-3.3 0-5.767-.56-7.69-.545-1.926-.823-6.593 1.382-6.593 2.196 0 4.947-5.498 7.688-3.571 2.75 1.926 8.242 2.472 8.242 0s3.851-2.75 4.401-6.049c.546-3.294 4.67-4.117 5.501-7.138.819-3.018 2.196-10.166 4.942-11.81 2.75-1.65-.55-2.74-.273-7.689z"/><path fill="#C52323" d="M658.92 276.233c3.3-3.849-2.2-14.01-2.2-20.594 0-6.598-9.07-4.68-6.592-.559 2.473 4.117-4.67.823-5.224 4.944-.546 4.122-5.774.827-5.497 4.122.282 3.294-5.491 0-8.242-1.923-2.75-1.922-6.597 5.217-10.72 6.321-4.119 1.1-6.31 9.847-3.573 9.611 3.3-.273 4.946-4.671 8.242-4.39 3.3.269 2.205-3.298 6.874-2.476 4.669.827 1.373 14.836 7.701 15.932 6.315 1.1 6.592 4.943 9.611 4.943 3.019 0-.54-8.783-.273-11.81.273-3.026 6.592-.272 9.893-4.121zm-24.736-21.425c1.105 2.749 9.07-1.645 6.874-4.395-2.196-2.744-7.688 2.338-6.874 4.395zm-48.914-5.494c-3.841 4.944-13.031 13.154-11.82 15.386 1.65 3.017 11.82-12.092 16.771-15.659 4.942-3.567 4.12-6.589 2.474-9.888-1.655-3.299-3.579 5.217-7.425 10.16zm32.424-5.217c1.383-.277 4.683 0 4.947-2.749.277-2.745 3.3 4.944.827 7.411-2.473 2.482-2.473 9.348 1.378 10.175 3.846.822 10.988-12.36 9.888-14.837-1.096-2.476-4.396 1.645-3.569-1.645.823-3.299-9.897-11.814-14.016-10.997-4.124.832-2.69 13.284.545 12.642zm-15.384-26.646c.827 3.849 2.75 11.819 8.792 9.888 6.047-1.918-9.388-12.651-8.792-9.888zm17.59-2.468c5.223-.831 12.365 5.767 11.265 8.239-1.1 2.467.277 10.433 2.75 8.233 2.474-2.185 6.32.55 3.847 4.122-2.473 3.576 3.846 7.143 4.669 11.542.823 4.394 3.573.822 3.028-2.472-.546-3.299.545-3.026 4.119-5.494 3.578-2.472-.278-6.593-2.474-11.265-2.19-4.666-10.447-3.017-10.447-7.42 0-4.39-6.037-5.767-6.32-8.239-.272-2.471-8.242-4.943-12.91-2.194-4.67 2.749-1.383-4.949-4.674-8.516-3.301-3.572 2.473-8.793 6.324-13.187 3.841-4.39-1.105-11.805-.555-15.104.555-3.295.273-4.394-1.65-3.295-1.919 1.095-9.893-3.294-13.462-1.1-3.573 2.2-.273 20.326-1.928 21.703-1.645 1.368-3.781-2.943-4.4-1.1-.823 2.468.281 12.633 2.477 12.633 2.205 0 3.851 2.75 2.473 7.143-1.372 4.394 4.12 4.94 9.343 3.017 5.228-1.917 3.3 3.577 8.524 2.754z"/><path stroke="#C52323" stroke-width="1.155" d="M658.92 276.233c3.3-3.849-2.2-14.01-2.2-20.594 0-6.598-9.07-4.68-6.592-.559 2.473 4.117-4.67.823-5.224 4.944-.546 4.122-5.774.827-5.497 4.122.282 3.294-5.491 0-8.242-1.923-2.75-1.922-6.597 5.217-10.72 6.321-4.119 1.1-6.31 9.847-3.573 9.611 3.3-.273 4.946-4.671 8.242-4.39 3.3.269 2.205-3.298 6.874-2.476 4.669.827 1.373 14.836 7.701 15.932 6.315 1.1 6.592 4.943 9.611 4.943 3.019 0-.54-8.783-.273-11.81.273-3.026 6.592-.272 9.893-4.121zm-24.736-21.425c1.105 2.749 9.07-1.645 6.874-4.395-2.196-2.744-7.688 2.338-6.874 4.395zm-48.914-5.494c-3.841 4.944-13.031 13.154-11.82 15.386 1.65 3.017 11.82-12.092 16.771-15.659 4.942-3.567 4.12-6.589 2.474-9.888-1.655-3.299-3.579 5.217-7.425 10.16zm32.424-5.217c1.383-.277 4.683 0 4.947-2.749.277-2.745 3.3 4.944.827 7.411-2.473 2.482-2.473 9.348 1.378 10.175 3.846.822 10.988-12.36 9.888-14.837-1.096-2.476-4.396 1.645-3.569-1.645.823-3.299-9.897-11.814-14.016-10.997-4.124.832-2.69 13.284.545 12.642zm-15.384-26.646c.827 3.849 2.75 11.819 8.792 9.888 6.047-1.918-9.388-12.651-8.792-9.888zm17.59-2.468c5.223-.831 12.365 5.767 11.265 8.239-1.1 2.467.277 10.433 2.75 8.233 2.474-2.185 6.32.55 3.847 4.122-2.473 3.576 3.846 7.143 4.669 11.542.823 4.394 3.573.822 3.028-2.472-.546-3.299.545-3.026 4.119-5.494 3.578-2.472-.278-6.593-2.474-11.265-2.19-4.666-10.447-3.017-10.447-7.42 0-4.39-6.037-5.767-6.32-8.239-.272-2.471-8.242-4.943-12.91-2.194-4.67 2.749-1.383-4.949-4.674-8.516-3.301-3.572 2.473-8.793 6.324-13.187 3.841-4.39-1.105-11.805-.555-15.104.555-3.295.273-4.394-1.65-3.295-1.919 1.095-9.893-3.294-13.462-1.1-3.573 2.2-.273 20.326-1.928 21.703-1.645 1.368-3.781-2.943-4.4-1.1-.823 2.468.281 12.633 2.477 12.633 2.205 0 3.851 2.75 2.473 7.143-1.372 4.394 4.12 4.94 9.343 3.017 5.228-1.917 3.3 3.577 8.524 2.754z"/><path fill="#C52323" d="M237.625 252.34c-2.473.273-1.923 5.217-3.3 8.784-1.373 3.576-1.091 7.139-.546 12.36.546 5.226 0 10.715 4.674 13.737 5.362 3.47 14.011-5.494 14.293-13.187.268-7.689-13.045-21.925-15.12-21.694"/><path stroke="#C52323" stroke-width="1.155" d="M237.625 252.34c-2.473.273-1.923 5.217-3.3 8.784-1.373 3.576-1.091 7.139-.546 12.36.546 5.226 0 10.715 4.674 13.737 5.362 3.47 14.011-5.494 14.293-13.187.268-7.689-13.045-21.925-15.12-21.694z"/><path fill="#C52323" d="M77.304 80.161c-2.206-.734 0-8.437-4.401-10.271-4.406-1.84-8.317-4.81-9.542-8.068-1.1-2.934-6.606-5.872-6.24-8.072.365-2.194 11.006-9.171 9.541-13.205-1.475-4.03-8.441-3.295-9.176-4.764-.73-1.47.37-6.603-1.466-10.636-1.835-4.039 1.466-7.707 0-9.907-1.465-2.194.735-6.598 1.1-8.072.366-1.464 4.032-3.664 3.666-7.328-.217-2.218.902-3.618 2.067-4.223-1.262-3.715-1.664-10.22-1.664-11.371 0-1.372-4.387-1.372-6.592-1.1-2.196.282-4.12-5.216-6.32-5.216-2.196 0-4.119-1.645-4.119-3.295 0-1.645-5.223-2.744-7.97-2.472-2.75.268-3.3-2.2-4.4-2.2-1.1 0-5.492-1.371-6.874-3.021-1.368-1.65-9.338-2.195-10.711-.277-1.378 1.927-4.124.822-6.601.822-2.474 0-6.865 3.85-8.243 5.767-.836 1.183-4.761 1.432-7.678 1.455.11 2.366.11 4.265-.287 4.87-1.437 2.158-12.097 4.117-20.067 4.394-7.97.273-8.515-10.16-17.035-10.16-6.2 0-10.919-5.665-11.243-10.974-3.67-1.4-7.165-3.803-6.656-4.815.73-1.464 2.565-10.64-1.836-8.441-4.405 2.204-10.641 9.171-18.708 8.072-8.08-1.105-2.214-1.835-6.245-3.664-4.036-1.835-1.47-6.243-5.506-6.973-4.03-.734-1.105 4.769-3.296 4.769-2.21 0-.37 6.233.365 7.698.735 1.469-1.47 9.536 0 9.901 1.466.37 4.762 6.243 4.401 7.342-.37 1.105 3.3 4.769 3.3 7.328 0 2.574 3.306 5.513 5.141 5.513 1.84 0 4.397 1.1 3.666 3.299-.735 2.2 1.1 5.498-1.1 5.498s-1.84 6.242-3.666 7.338c-1.835 1.1-.365 7.702 1.1 8.437 1.47.73 4.766 2.569 4.397 5.133-.37 2.569 7.71 6.598 10.285 6.968 2.561.365 2.926 4.033 4.396 5.503 1.47 1.47-1.1 4.403-.735 6.233.366 1.839 3.67 3.304 3.306 6.238-.218 1.774 2.764 4.736 5.247 7.31.818-.25 1.608-.398 2.255-.398 2.478 0 2.34-2.74 4.258-1.09 1.928 1.649 4.53-.148 6.463-.282 1.923-.13 7.142 9.753 9.476 14.554 2.344 4.815 2.2 6.464 5.363 8.52 3.162 2.066 6.73.962 11.265 5.633s16.212 7.832 21.159 8.1c4.941.277 8.658-5.35 14.982-4.122 6.315 1.238 4.803 9.343 7.142 12.23 2.34 2.884 28.033 4.81 32.433 6.044 1.6.453 5.441.735 9.727.837-.102-.915-.185-1.738-.24-2.315-.366-4.408 2.94-8.072 5.88-9.532 2.93-1.474 5.496-2.204 8.436-2.574 2.94-.365 0-6.233-2.2-6.968"/><path stroke="#C52323" stroke-width="1.155" d="M77.304 80.161c-2.206-.734 0-8.437-4.401-10.271-4.406-1.84-8.317-4.81-9.542-8.068-1.1-2.934-6.606-5.872-6.24-8.072.365-2.194 11.006-9.171 9.541-13.205-1.475-4.03-8.441-3.295-9.176-4.764-.73-1.47.37-6.603-1.466-10.636-1.835-4.039 1.466-7.707 0-9.907-1.465-2.194.735-6.598 1.1-8.072.366-1.464 4.032-3.664 3.666-7.328-.217-2.218.902-3.618 2.067-4.223-1.262-3.715-1.664-10.22-1.664-11.371 0-1.372-4.387-1.372-6.592-1.1-2.196.282-4.12-5.216-6.32-5.216-2.196 0-4.119-1.645-4.119-3.295 0-1.645-5.223-2.744-7.97-2.472-2.75.268-3.3-2.2-4.4-2.2-1.1 0-5.492-1.371-6.874-3.021-1.368-1.65-9.338-2.195-10.711-.277-1.378 1.927-4.124.822-6.601.822-2.474 0-6.865 3.85-8.243 5.767-.836 1.183-4.761 1.432-7.678 1.455.11 2.366.11 4.265-.287 4.87-1.437 2.158-12.097 4.117-20.067 4.394-7.97.273-8.515-10.16-17.035-10.16-6.2 0-10.919-5.665-11.243-10.974-3.67-1.4-7.165-3.803-6.656-4.815.73-1.464 2.565-10.64-1.836-8.441-4.405 2.204-10.641 9.171-18.708 8.072-8.08-1.105-2.214-1.835-6.245-3.664-4.036-1.835-1.47-6.243-5.506-6.973-4.03-.734-1.105 4.769-3.296 4.769-2.21 0-.37 6.233.365 7.698.735 1.469-1.47 9.536 0 9.901 1.466.37 4.762 6.243 4.401 7.342-.37 1.105 3.3 4.769 3.3 7.328 0 2.574 3.306 5.513 5.141 5.513 1.84 0 4.397 1.1 3.666 3.299-.735 2.2 1.1 5.498-1.1 5.498s-1.84 6.242-3.666 7.338c-1.835 1.1-.365 7.702 1.1 8.437 1.47.73 4.766 2.569 4.397 5.133-.37 2.569 7.71 6.598 10.285 6.968 2.561.365 2.926 4.033 4.396 5.503 1.47 1.47-1.1 4.403-.735 6.233.366 1.839 3.67 3.304 3.306 6.238-.218 1.774 2.764 4.736 5.247 7.31.818-.25 1.608-.398 2.255-.398 2.478 0 2.34-2.74 4.258-1.09 1.928 1.649 4.53-.148 6.463-.282 1.923-.13 7.142 9.753 9.476 14.554 2.344 4.815 2.2 6.464 5.363 8.52 3.162 2.066 6.73.962 11.265 5.633s16.212 7.832 21.159 8.1c4.941.277 8.658-5.35 14.982-4.122 6.315 1.238 4.803 9.343 7.142 12.23 2.34 2.884 28.033 4.81 32.433 6.044 1.6.453 5.441.735 9.727.837-.102-.915-.185-1.738-.24-2.315-.366-4.408 2.94-8.072 5.88-9.532 2.93-1.474 5.496-2.204 8.436-2.574 2.94-.365 0-6.233-2.2-6.968z"/><path fill="#C52323" d="M182.938-22.54c-1.923.278-1.507-1.371-3.569-2.61-1.631-.984-6.536 3.475-10.156 6.659-1.692.563-3.36 1.192-4.83 1.635-2.02.6-3.671.8-4.512-.18-2.205-2.569 3.67-9.167-.366-11.006-4.035-1.83-.37-7.337-3.675-7.703-3.3-.365-8.432 5.504-8.432 8.073 0 2.564-8.815 1.83-8.815 4.398 0 2.57-8.072-.37-9.542 2.57-1.465 2.933-5.5-2.2-8.066-2.2-2.575 0-4.41-3.664-7.706-2.574-3.301 1.105-5.14-1.09-7.711-1.464-2.57-.365-4.406 5.503-7.332 4.403-2.94-1.104-4.41 5.503-5.515 9.172-1.1 3.664-13.577 3.664-13.207 7.697.365 4.034-7.336 5.508-8.071 2.94-.73-2.57-5.506-1.105-6.61-1.84-1.096-.73-4.402.735-4.037 4.408.366 3.664-3.3 5.864-3.665 7.328-.366 1.474-2.566 5.878-1.1 8.072 1.465 2.2-1.836 5.868 0 9.907 1.835 4.033.734 9.167 1.465 10.636.735 1.47 7.701.735 9.176 4.764 1.465 4.034-9.176 11.01-9.541 13.205-.158.92.725 1.969 1.881 3.087 4.184.18 9.481.698 14.289 1.57 6.042 1.1 36.825-3.562 37.366-4.666.554-1.1-1.091-7.97-.819-9.338.278-1.372 4.12-4.671 7.42-4.399 3.296.278 6.32.818 6.32-1.65 0-2.471 9.07-5.488 9.897-3.298.827 2.208 4.119 1.381 4.391-4.117.278-5.494-.272-9.61 3.024-9.888 3.3-.268 6.6-2.195 6.323-3.849-.282-1.64-4.123-4.94-3.023-6.039 1.1-1.1 9.347 2.75 10.443.273 1.1-2.472-.55-5.222.823-7.412 1.377-2.2 4.669-4.398 4.4-6.593-.277-2.2.269-3.572-1.654-5.494-1.923-1.927-1.1-4.399 1.377-4.671.43-.047.906-.278 1.387-.592 1.905-.379 3.546-.748 4.803-1.682 3.435-2.546 10.013-4.648 12.546-3.728 2.067.753 6.639.12 9.43-2.851-1.645-.772-3.67-1.118-4.807-.952"/><path stroke="#C52323" stroke-width="1.155" d="M182.938-22.54c-1.923.278-1.507-1.371-3.569-2.61-1.631-.984-6.536 3.475-10.156 6.659-1.692.563-3.36 1.192-4.83 1.635-2.02.6-3.671.8-4.512-.18-2.205-2.569 3.67-9.167-.366-11.006-4.035-1.83-.37-7.337-3.675-7.703-3.3-.365-8.432 5.504-8.432 8.073 0 2.564-8.815 1.83-8.815 4.398 0 2.57-8.072-.37-9.542 2.57-1.465 2.933-5.5-2.2-8.066-2.2-2.575 0-4.41-3.664-7.706-2.574-3.301 1.105-5.14-1.09-7.711-1.464-2.57-.365-4.406 5.503-7.332 4.403-2.94-1.104-4.41 5.503-5.515 9.172-1.1 3.664-13.577 3.664-13.207 7.697.365 4.034-7.336 5.508-8.071 2.94-.73-2.57-5.506-1.105-6.61-1.84-1.096-.73-4.402.735-4.037 4.408.366 3.664-3.3 5.864-3.665 7.328-.366 1.474-2.566 5.878-1.1 8.072 1.465 2.2-1.836 5.868 0 9.907 1.835 4.033.734 9.167 1.465 10.636.735 1.47 7.701.735 9.176 4.764 1.465 4.034-9.176 11.01-9.541 13.205-.158.92.725 1.969 1.881 3.087 4.184.18 9.481.698 14.289 1.57 6.042 1.1 36.825-3.562 37.366-4.666.554-1.1-1.091-7.97-.819-9.338.278-1.372 4.12-4.671 7.42-4.399 3.296.278 6.32.818 6.32-1.65 0-2.471 9.07-5.488 9.897-3.298.827 2.208 4.119 1.381 4.391-4.117.278-5.494-.272-9.61 3.024-9.888 3.3-.268 6.6-2.195 6.323-3.849-.282-1.64-4.123-4.94-3.023-6.039 1.1-1.1 9.347 2.75 10.443.273 1.1-2.472-.55-5.222.823-7.412 1.377-2.2 4.669-4.398 4.4-6.593-.277-2.2.269-3.572-1.654-5.494-1.923-1.927-1.1-4.399 1.377-4.671.43-.047.906-.278 1.387-.592 1.905-.379 3.546-.748 4.803-1.682 3.435-2.546 10.013-4.648 12.546-3.728 2.067.753 6.639.12 9.43-2.851-1.645-.772-3.67-1.118-4.807-.952z"/><path fill="#C52323" d="M205.47-7.171c-4.323-2.061-4.739-5.767-4.739-7.005 0-1.081-4.9-4.066-8.469-6.866-.471.065-1.572.245-2.824.55-.449-.444-1.05-.795-1.692-1.095-2.792 2.97-7.364 3.604-9.43 2.85-2.534-.919-9.112 1.183-12.547 3.73-1.257.933-2.898 1.302-4.803 1.681-.48.314-.957.545-1.387.592-2.477.272-3.3 2.744-1.377 4.671 1.923 1.922 1.377 3.294 1.655 5.494.268 2.195-3.024 4.394-4.401 6.593-1.373 2.19.277 4.94-.823 7.412-1.096 2.476-9.343-1.373-10.443-.273-1.1 1.1 2.741 4.399 3.023 6.039.278 1.654-3.023 3.58-6.323 3.849-3.296.277-2.746 4.394-3.024 9.888-.272 5.498-3.564 6.325-4.391 4.117-.828-2.19-9.898.827-9.898 3.299 0 2.467-3.023 1.927-6.319 1.65-3.3-.273-7.142 3.026-7.42 4.398-.272 1.368 1.373 8.238.819 9.338-.541 1.104-31.324 5.766-37.366 4.667-4.808-.873-10.105-1.391-14.289-1.571 1.59 1.566 3.717 3.271 4.36 4.985 1.224 3.258 5.135 6.229 9.54 8.068 4.402 1.834 2.196 9.537 4.402 10.271 2.2.735 5.14 6.603 2.2 6.968-2.94.37-5.506 1.1-8.437 2.574-2.94 1.46-6.245 5.124-5.88 9.532.056.582.139 1.381.24 2.315 7.49.17 16.384-.2 17.336-1.248 1.512-1.65 5.09-2.477 7.147-1.104 2.062 1.372 11.27 1.926 14.978-.134 4.516-2.51 7.285 0 7.419 2.2.134 2.19 2.196 3.155 4.258 5.072 2.061 1.927.559 4.127 1.927 6.326 1.373 2.195 4.12 1.783 8.109 3.567.559.25 1.03.568 1.484.92.25-.287.453-.513.591-.675 2.2-2.57 2.566-6.973 8.441-5.873 5.867 1.1 5.501-1.1 8.807-.365 3.305.73 5.5.365 6.966-1.83 1.47-2.204-1.465-6.602-3.291-8.441-1.835-1.83-4.41-5.864-4.04-9.528.365-3.673-5.876-3.673-5.876-6.612 0-2.93 5.876-7.698 6.976-8.797 1.105-1.1 5.866 2.938 6.966.734 1.105-2.208 4.406-.734 6.246-.37 1.835.37 4.761-3.668 5.13-6.967.366-3.299 6.611-3.669 7.712-4.768 1.1-1.1 2.935-8.433 3.67-9.907.735-1.46 5.506-.36 5.506-4.398 0-4.039 2.2-4.773 4.405-5.138 2.196-.365 1.461-4.03 1.83-6.964.366-2.938 1.836-6.242 4.767-6.977 2.94-.734-1.1-4.759-4.401-4.029-3.3.73-5.501-8.806-5.501-8.806s.365-7.698-1.475-8.798c-1.835-1.104.74-5.138 4.78-5.138 4.036 0 11.377 4.399 13.938 2.565 2.565-1.83 7.706-2.934 9.176-3.665 1.11-.559 2.649-4.075 3.32-5.724-1.702-1.155-4.513-2.546-7.259-3.85"/><path stroke="#C52323" stroke-width="1.155" d="M205.47-7.171c-4.323-2.061-4.739-5.767-4.739-7.005 0-1.081-4.9-4.066-8.469-6.866-.471.065-1.572.245-2.824.55-.449-.444-1.05-.795-1.692-1.095-2.792 2.97-7.364 3.604-9.43 2.85-2.534-.919-9.112 1.183-12.547 3.73-1.257.933-2.898 1.302-4.803 1.681-.48.314-.957.545-1.387.592-2.477.272-3.3 2.744-1.377 4.671 1.923 1.922 1.377 3.294 1.655 5.494.268 2.195-3.024 4.394-4.401 6.593-1.373 2.19.277 4.94-.823 7.412-1.096 2.476-9.343-1.373-10.443-.273-1.1 1.1 2.741 4.399 3.023 6.039.278 1.654-3.023 3.58-6.323 3.849-3.296.277-2.746 4.394-3.024 9.888-.272 5.498-3.564 6.325-4.391 4.117-.828-2.19-9.898.827-9.898 3.299 0 2.467-3.023 1.927-6.319 1.65-3.3-.273-7.142 3.026-7.42 4.398-.272 1.368 1.373 8.238.819 9.338-.541 1.104-31.324 5.766-37.366 4.667-4.808-.873-10.105-1.391-14.289-1.571 1.59 1.566 3.717 3.271 4.36 4.985 1.224 3.258 5.135 6.229 9.54 8.068 4.402 1.834 2.196 9.537 4.402 10.271 2.2.735 5.14 6.603 2.2 6.968-2.94.37-5.506 1.1-8.437 2.574-2.94 1.46-6.245 5.124-5.88 9.532.056.582.139 1.381.24 2.315 7.49.17 16.384-.2 17.336-1.248 1.512-1.65 5.09-2.477 7.147-1.104 2.062 1.372 11.27 1.926 14.978-.134 4.516-2.51 7.285 0 7.419 2.2.134 2.19 2.196 3.155 4.258 5.072 2.061 1.927.559 4.127 1.927 6.326 1.373 2.195 4.12 1.783 8.109 3.567.559.25 1.03.568 1.484.92.25-.287.453-.513.591-.675 2.2-2.57 2.566-6.973 8.441-5.873 5.867 1.1 5.501-1.1 8.807-.365 3.305.73 5.5.365 6.966-1.83 1.47-2.204-1.465-6.602-3.291-8.441-1.835-1.83-4.41-5.864-4.04-9.528.365-3.673-5.876-3.673-5.876-6.612 0-2.93 5.876-7.698 6.976-8.797 1.105-1.1 5.866 2.938 6.966.734 1.105-2.208 4.406-.734 6.246-.37 1.835.37 4.761-3.668 5.13-6.967.366-3.299 6.611-3.669 7.712-4.768 1.1-1.1 2.935-8.433 3.67-9.907.735-1.46 5.506-.36 5.506-4.398 0-4.039 2.2-4.773 4.405-5.138 2.196-.365 1.461-4.03 1.83-6.964.366-2.938 1.836-6.242 4.767-6.977 2.94-.734-1.1-4.759-4.401-4.029-3.3.73-5.501-8.806-5.501-8.806s.365-7.698-1.475-8.798c-1.835-1.104.74-5.138 4.78-5.138 4.036 0 11.377 4.399 13.938 2.565 2.565-1.83 7.706-2.934 9.176-3.665 1.11-.559 2.649-4.075 3.32-5.724-1.702-1.155-4.513-2.546-7.259-3.85z"/><path fill="#C52323" d="M574 420.444c-1.096 2.477-5.77 3.017-8.515 1.095-2.75-1.918-6.153 2.606-4.396 4.944.823 1.104 6.592 5.498 13.461 2.204 6.879-3.3 11.543-.282 13.189-3.849 1.655-3.572-12.639-6.866-13.739-4.394zm13.739 13.455c1.655 2.472 6.324 2.472 8.256 4.121 1.923 1.645 8.788 5.222 8.788.55 0-4.671-18.87-7.42-17.044-4.671zm-20.604-76.909c4.947-3.017 6.042-8.793 5.492-14.286-.545-5.49 12.089-5.767 14.016-7.961 1.928-2.195-2.755-5.767-6.319-7.421-3.573-1.645-.555-5.217-3.023-7.411-2.473-2.195-6.597-7.97-3.024-8.239 3.574-.282-2.477-5.22.55-6.87.403-.222.874-.458 1.374-.703-1.803-.892-3.384-1.492-4.401-1.492-4.392 0-14.835-1.104-14.294 6.034.564 7.148-6.037 4.399-5.492 8.248.55 3.849-3.296 3.849-2.75 8.788.56 4.944-2.742 2.745-8.243 5.494-5.491 2.75-3.296-1.65-8.788-1.65-5.5 0-6.05 2.754-9.351 3.845-3.301 1.095-9.888-.546-12.089 1.095-2.196 1.654-5.496-3.84-7.697-3.84-1.118 0-2.09-2.999-2.783-5.942-.393-.079-.753-.13-1.063-.102-3.569.278-9.481 9.708-6.046 12.915 4.123 3.849 3.027 9.883 4.946 12.905 1.928 3.026 7.979 3.567 7.979 9.338 0 5.766 5.21 14.832 8.792 12.364 3.569-2.472 6.315 1.1 7.415 3.567 1.1 2.472 9.616-1.922 12.37-1.372 2.751.555 11.257 2.2 11.816 5.494.55 3.299 8.247-.277 13.467-2.195 5.219-1.927 2.2-17.58 7.146-20.603zm76.424 70.722a8.82 8.82 0 0 1-3.024 1.275c-.365 1.021-.735 2.163-1.368 2.652-.772.606-2.094-.596-3.032-1.668-5.312 2.204-8.113 8.558-4.424 10.526 3.55 1.89 8.713-3.128 11.667-6.667a40.71 40.71 0 0 0 1.253-1.576c.199-.263.532-.55.93-.836.272-.204.582-.407.929-.615-.865-1.201-1.965-2.37-2.931-3.091zm118.966-69.627c-4.123.278-4.673 7.416-8.242 7.416-3.573 0-8.52 7.42-15.116 9.62-6.593 2.195-6.875-18.949-9.893-23.075-3.023-4.121-19.508-7.42-21.159-2.749-1.65 4.676-7.377 2.204-7.974 6.048-.545 3.567 1.378 2.468 4.947 2.468 3.573 0 3.573 2.749 5.219 6.316 1.655 3.58 11.547 1.1 14.843.832 3.301-.282 3.846 4.39-.823 2.749-4.669-1.65-4.669 2.19-7.97 1.363-3.295-.822-7.696-.545-5.5 1.372 2.205 1.922 5.769 3.85 5.769 8.243 0 4.399 6.324 3.577 6.324 0 0-3.567 3.3 1.1 9.624 2.745 6.32 1.654 1.928 4.126 8.243 4.399 6.315.281 20.608 4.948 26.105 9.065 5.505 4.122 1.65 6.866 5.223 10.72 3.574 3.84 4.67 8.238-.277 8.238-4.946 0-10.166 4.94-8.793 7.411 1.369 2.477 17.595-1.1 21.436-1.1 2.52 0 5.057 4.473 9.897 7.717v-58.625c-11.903-4.006-28.494-11.394-31.883-11.173zm-216.28 59.887c-.273-3.294-10.993-.277-16.212-2.472-5.224-2.204 5.77-4.117 9.343-6.326 3.573-2.19-2.2-3.017-10.989-.263-8.806 2.74-18.967-6.048-19.244-2.204-.268 3.849-15.94-1.65-19.786-4.39-3.841-2.749-18.685-6.325-21.713-1.1-3.018 5.217-5.635.537-4.391 5.49.823 3.295 4.391 1.377 6.865 1.377 2.473 0 1.377 4.671 4.946 5.212 3.573.56 15.398 3.853 16.494 1.382 1.1-2.477 12.093 0 17.585 4.394 5.5 4.39 18.14 4.671 23.09 3.849 4.942-.828 10.439 3.29 12.362.54 1.927-2.74 5.496 4.399 10.997.282 5.497-4.122-9.07-2.477-9.347-5.771zm144.826-47.245c-7.142-2.2-19.346-.323-18.14 3.295 1.1 3.294 6.87 1.926 12.649 1.926 5.769 0 8.787 4.117 11.815 4.117 3.019 0 .828-7.143-6.324-9.338zm-58.806 50.267c-7.42-1.095-12.366 4.394-19.79 1.645-7.415-2.74-18.523.055-17.312 2.472 1.1 2.199 7.692 2.476 15.112 2.749 7.42.272 14.02-3.849 18.962-4.117 4.947-.282 10.452-1.65 3.028-2.75zm21.709-46.427c1.1 4.399 9.07 6.866 11.27 3.026 2.196-3.849-12.542-8.123-11.27-3.026zm22.54-34.33c6.042.55 3.287-3.022 3.287-6.871 0-3.845-5.487-.546-5.487-2.472 0-1.918-1.923-9.611-6.324-3.572-4.396 6.044 1.42 20.973 4.942 20.33 3.028-.545-2.469-7.966 3.582-7.416zm-209.96 43.95c-.278-3.845 1.372-7.693 1.372-9.62 0-1.918 1.369-2.74 3.842-2.2 2.478.555 2.205-5.22.277-5.766-1.927-.54-3.018-7.411-7.701-7.411-4.665 0-3.842 3.84-1.091 4.117 2.75.277 4.391 2.476 3.569 4.403-.823 1.922-1.919-1.927-5.77-1.65-3.85.273-1.373-4.68-5.774-4.948-4.391-.277-3.564-8.239-8.247-8.239-4.668 0-4.941-3.848-1.918-6.593 3.019-2.754-4.674-5.221-4.674-8.52 0-3.3-4.946-1.368-4.946-4.117 0-2.75-2.196-1.368-4.674-4.667-2.468-3.299-3.568-.282-5.769-2.75-2.196-2.471-5.223-3.843-7.142-3.02-1.923.826-6.324-3.573-7.97-7.971-1.312-3.498-14.016-9.334-15.666-14.005-1.65-4.667-6.047-6.598-13.461-6.316-7.42.272-10.35-7.268-12.098-3.577-2.196 4.676 7.97 15.114 12.643 17.859 4.669 2.749 7.142 12.632 12.639 13.187 5.5.545 6.046 17.853 10.17 18.676 4.119.827 12.92 14.286 14.289 21.425 1.373 7.143 10.442 10.715 13.466 15.932 3.023 5.22 15.111 12.364 16.762 14.554 1.65 2.2 3.3 7.144 4.678 4.667 1.373-2.467 7.142 0 9.893.282 2.75.277 3.569-9.888 3.3-13.732zm125.586-7.144c4.119.273 3.573 6.317 2.75 9.888-.827 3.567-2.491 12.055 1.105 10.706 4.392-1.645 7.142-7.139 4.665-9.06-2.478-1.923-2.196-14.01-1.1-17.027 1.1-3.022 8.524-.823 6.046 3.844-2.469 4.671 4.669 4.117 4.669 9.338 0 5.221 4.123 2.472 8.52 1.1 4.4-1.368 3.582-3.85.55-7.144-3.019-3.294 2.2-7.96-1.919-10.71-4.123-2.75-6.874-6.866-3.028-7.689 3.851-.827 15.39-7.416 14.017-10.165-1.373-2.749-17.58.55-18.963 5.49-1.368 4.948-12.911-.55-11.538-9.066 1.373-8.506 24.181-9.888 30.778-6.862 6.597 3.018 13.739-4.943 16.212-9.615 2.473-4.671-5.215.823-9.897 3.85-4.67 3.016-17.035-.278-23.355-2.478-6.319-2.194-6.046 3.85-11.27 4.672-5.219.822-4.123 12.36-6.592 13.727-2.478 1.382-2.478 9.893-7.42 17.868-4.95 7.956 1.646 9.06 5.77 9.333zm-207.483-46.972c-.55 2.75 2.468 10.706 5.769 7.42 3.3-3.298-5.233-10.114-5.77-7.42zm103.327 40.374c0-2.467-7.09-1.27-4.946 2.204 2.2 3.563 4.946.273 4.946-2.204zm-89.861-16.75c-.546 1.369 2.473 6.867 4.391 5.217 1.928-1.65-2.658-9.564-4.391-5.216z"/><path stroke="#C52323" stroke-width="1.155" d="M574 420.444c-1.096 2.477-5.77 3.017-8.515 1.095-2.75-1.918-6.153 2.606-4.396 4.944.823 1.104 6.592 5.498 13.461 2.204 6.879-3.3 11.543-.282 13.189-3.849 1.655-3.572-12.639-6.866-13.739-4.394zm13.739 13.455c1.655 2.472 6.324 2.472 8.256 4.121 1.923 1.645 8.788 5.222 8.788.55 0-4.671-18.87-7.42-17.044-4.671zm-20.604-76.909c4.947-3.017 6.042-8.793 5.492-14.286-.545-5.49 12.089-5.767 14.016-7.961 1.928-2.195-2.755-5.767-6.319-7.421-3.573-1.645-.555-5.217-3.023-7.411-2.473-2.195-6.597-7.97-3.024-8.239 3.574-.282-2.477-5.22.55-6.87.403-.222.874-.458 1.374-.703-1.803-.892-3.384-1.492-4.401-1.492-4.392 0-14.835-1.104-14.294 6.034.564 7.148-6.037 4.399-5.492 8.248.55 3.849-3.296 3.849-2.75 8.788.56 4.944-2.742 2.745-8.243 5.494-5.491 2.75-3.296-1.65-8.788-1.65-5.5 0-6.05 2.754-9.351 3.845-3.301 1.095-9.888-.546-12.089 1.095-2.196 1.654-5.496-3.84-7.697-3.84-1.118 0-2.09-2.999-2.783-5.942-.393-.079-.753-.13-1.063-.102-3.569.278-9.481 9.708-6.046 12.915 4.123 3.849 3.027 9.883 4.946 12.905 1.928 3.026 7.979 3.567 7.979 9.338 0 5.766 5.21 14.832 8.792 12.364 3.569-2.472 6.315 1.1 7.415 3.567 1.1 2.472 9.616-1.922 12.37-1.372 2.751.555 11.257 2.2 11.816 5.494.55 3.299 8.247-.277 13.467-2.195 5.219-1.927 2.2-17.58 7.146-20.603zm76.424 70.722a8.82 8.82 0 0 1-3.024 1.275c-.365 1.021-.735 2.163-1.368 2.652-.772.606-2.094-.596-3.032-1.668-5.312 2.204-8.113 8.558-4.424 10.526 3.55 1.89 8.713-3.128 11.667-6.667a40.71 40.71 0 0 0 1.253-1.576c.199-.263.532-.55.93-.836.272-.204.582-.407.929-.615-.865-1.201-1.965-2.37-2.931-3.091zm118.966-69.627c-4.123.278-4.673 7.416-8.242 7.416-3.573 0-8.52 7.42-15.116 9.62-6.593 2.195-6.875-18.949-9.893-23.075-3.023-4.121-19.508-7.42-21.159-2.749-1.65 4.676-7.377 2.204-7.974 6.048-.545 3.567 1.378 2.468 4.947 2.468 3.573 0 3.573 2.749 5.219 6.316 1.655 3.58 11.547 1.1 14.843.832 3.301-.282 3.846 4.39-.823 2.749-4.669-1.65-4.669 2.19-7.97 1.363-3.295-.822-7.696-.545-5.5 1.372 2.205 1.922 5.769 3.85 5.769 8.243 0 4.399 6.324 3.577 6.324 0 0-3.567 3.3 1.1 9.624 2.745 6.32 1.654 1.928 4.126 8.243 4.399 6.315.281 20.608 4.948 26.105 9.065 5.505 4.122 1.65 6.866 5.223 10.72 3.574 3.84 4.67 8.238-.277 8.238-4.946 0-10.166 4.94-8.793 7.411 1.369 2.477 17.595-1.1 21.436-1.1 2.52 0 5.057 4.473 9.897 7.717v-58.625c-11.903-4.006-28.494-11.394-31.883-11.173zm-216.28 59.887c-.273-3.294-10.993-.277-16.212-2.472-5.224-2.204 5.77-4.117 9.343-6.326 3.573-2.19-2.2-3.017-10.989-.263-8.806 2.74-18.967-6.048-19.244-2.204-.268 3.849-15.94-1.65-19.786-4.39-3.841-2.749-18.685-6.325-21.713-1.1-3.018 5.217-5.635.537-4.391 5.49.823 3.295 4.391 1.377 6.865 1.377 2.473 0 1.377 4.671 4.946 5.212 3.573.56 15.398 3.853 16.494 1.382 1.1-2.477 12.093 0 17.585 4.394 5.5 4.39 18.14 4.671 23.09 3.849 4.942-.828 10.439 3.29 12.362.54 1.927-2.74 5.496 4.399 10.997.282 5.497-4.122-9.07-2.477-9.347-5.771zm144.826-47.245c-7.142-2.2-19.346-.323-18.14 3.295 1.1 3.294 6.87 1.926 12.649 1.926 5.769 0 8.787 4.117 11.815 4.117 3.019 0 .828-7.143-6.324-9.338zm-58.806 50.267c-7.42-1.095-12.366 4.394-19.79 1.645-7.415-2.74-18.523.055-17.312 2.472 1.1 2.199 7.692 2.476 15.112 2.749 7.42.272 14.02-3.849 18.962-4.117 4.947-.282 10.452-1.65 3.028-2.75zm21.709-46.427c1.1 4.399 9.07 6.866 11.27 3.026 2.196-3.849-12.542-8.123-11.27-3.026zm22.54-34.33c6.042.55 3.287-3.022 3.287-6.871 0-3.845-5.487-.546-5.487-2.472 0-1.918-1.923-9.611-6.324-3.572-4.396 6.044 1.42 20.973 4.942 20.33 3.028-.545-2.469-7.966 3.582-7.416zm-209.96 43.95c-.278-3.845 1.372-7.693 1.372-9.62 0-1.918 1.369-2.74 3.842-2.2 2.478.555 2.205-5.22.277-5.766-1.927-.54-3.018-7.411-7.701-7.411-4.665 0-3.842 3.84-1.091 4.117 2.75.277 4.391 2.476 3.569 4.403-.823 1.922-1.919-1.927-5.77-1.65-3.85.273-1.373-4.68-5.774-4.948-4.391-.277-3.564-8.239-8.247-8.239-4.668 0-4.941-3.848-1.918-6.593 3.019-2.754-4.674-5.221-4.674-8.52 0-3.3-4.946-1.368-4.946-4.117 0-2.75-2.196-1.368-4.674-4.667-2.468-3.299-3.568-.282-5.769-2.75-2.196-2.471-5.223-3.843-7.142-3.02-1.923.826-6.324-3.573-7.97-7.971-1.312-3.498-14.016-9.334-15.666-14.005-1.65-4.667-6.047-6.598-13.461-6.316-7.42.272-10.35-7.268-12.098-3.577-2.196 4.676 7.97 15.114 12.643 17.859 4.669 2.749 7.142 12.632 12.639 13.187 5.5.545 6.046 17.853 10.17 18.676 4.119.827 12.92 14.286 14.289 21.425 1.373 7.143 10.442 10.715 13.466 15.932 3.023 5.22 15.111 12.364 16.762 14.554 1.65 2.2 3.3 7.144 4.678 4.667 1.373-2.467 7.142 0 9.893.282 2.75.277 3.569-9.888 3.3-13.732zm125.586-7.144c4.119.273 3.573 6.317 2.75 9.888-.827 3.567-2.491 12.055 1.105 10.706 4.392-1.645 7.142-7.139 4.665-9.06-2.478-1.923-2.196-14.01-1.1-17.027 1.1-3.022 8.524-.823 6.046 3.844-2.469 4.671 4.669 4.117 4.669 9.338 0 5.221 4.123 2.472 8.52 1.1 4.4-1.368 3.582-3.85.55-7.144-3.019-3.294 2.2-7.96-1.919-10.71-4.123-2.75-6.874-6.866-3.028-7.689 3.851-.827 15.39-7.416 14.017-10.165-1.373-2.749-17.58.55-18.963 5.49-1.368 4.948-12.911-.55-11.538-9.066 1.373-8.506 24.181-9.888 30.778-6.862 6.597 3.018 13.739-4.943 16.212-9.615 2.473-4.671-5.215.823-9.897 3.85-4.67 3.016-17.035-.278-23.355-2.478-6.319-2.194-6.046 3.85-11.27 4.672-5.219.822-4.123 12.36-6.592 13.727-2.478 1.382-2.478 9.893-7.42 17.868-4.95 7.956 1.646 9.06 5.77 9.333zm-207.483-46.972c-.55 2.75 2.468 10.706 5.769 7.42 3.3-3.298-5.233-10.114-5.77-7.42zm103.327 40.374c0-2.467-7.09-1.27-4.946 2.204 2.2 3.563 4.946.273 4.946-2.204zm-89.861-16.75c-.546 1.369 2.473 6.867 4.391 5.217 1.928-1.65-2.658-9.564-4.391-5.216z"/><path fill="#C52323" d="M708.66 20.783c0-2.75-6.046-2.204-6.318-4.676-.278-2.472-4.397-1.09-8.515 1.927-4.124 3.017-5.502 3.567-3.851 6.589 1.65 3.021 4.119.277 5.219-2.745 1.1-3.022 3.855 4.394 1.377 9.338-2.477 4.949.315 11.912 3.57 11.26 2.75-.545 6.323-10.437 10.447-15.659 4.119-5.216-1.928-3.299-1.928-6.034zm18.963-10.72c-1.1 3.027-4.396 1.654-8.792 2.477-4.396.822-4.549 11.302-1.373 12.36 2.469.822 4.396.822 5.22-2.472.822-3.295 5.223-4.394 7.973-3.027 2.746 1.382 6.32-4.121 6.32-8.238 0-4.122-8.247-4.122-9.348-1.1zm60.462-71.419c-2.746 1.377-4.674 9.892-1.646 12.36 3.018 2.472-4.947 7.148-4.678 12.364.277 5.222-4.947 5.222-5.774 9.061-.823 3.854-3.842 3.027-8.515 6.594-4.665 3.571-7.147-.55-6.047-3.018 1.1-2.476-7.142 1.373-6.874 7.421.282 6.039-7.688 6.584-5.77 9.333 1.929 2.754-6.036 4.39-5.773 1.918.282-2.467-4.946-1.086-11.256 1.382-6.32 2.472-10.175-2.75-13.744.822-3.573 3.576-9.624 9.893-14.293 10.715-4.665.822-1.974 6.478 0 5.494 3.3-1.654 8.524 0 10.174-2.477 1.646-2.472 15.107-5.489 23.35-5.766 8.242-.277 3.3 3.84 3.85 8.243.55 4.394 7.425 3.571 10.993-.55 3.574-4.122 6.32-3.854 3.297-6.326-3.024-2.467.554-4.666 2.755-1.367 2.19 3.294 9.065 3.571 11.81-.823 2.751-4.398 3.574.823 6.87.546 3.3-.273 5.224-8.511 5.501-5.494.278 3.022 5.497 2.2 8.793-1.368 3.3-3.576.277-9.892 2.473-13.187 2.196-3.294 4.396-10.165 2.196-14.287-2.196-4.116 4.95-6.866 8.52-10.165 3.578-3.294-4.12-19.77-4.397-24.72-.272-4.943-9.07 1.923-11.815 3.295zm50.568-37.63c-1.923-2.467-5.22 1.377-9.343 2.195-4.123.823-17.04-9.883-20.34-14.832-3.3-4.939-8.792-.817-6.042 2.75 2.75 3.571-.56 4.666-.56 9.615 0 4.94-3.29 4.94-2.74 8.238.55 3.295-4.401 2.75-7.702 3.295-3.291.554.282 3.853-3.569 5.503-3.846 1.645-3.573 4.39-1.65 5.489 1.928 1.095.555 4.667 0 7.139-.55 2.472 2.473.554 4.678-1.923 2.196-2.467 4.489 1.193 4.947-1.1.55-2.74-5.774-4.116-5.502-6.87.278-2.735 4.397.827 7.697-.818 3.301-1.65 9.893-.272 14.012 3.295 4.123 3.571 5.228 2.204 6.051-2.195.823-4.394 7.142-6.316 13.462-6.316 6.323 0 6.869-3.031 4.946-4.4-1.919-1.367 10.447-9.337 10.17-11.532-.273-2.2-6.592 4.944-8.515 2.467z"/><path fill="#FFF" d="M482.053 137.377c-2.565-.365-9.171-5.129-9.171-6.968 0-1.834 3.31-4.768-2.57-5.498-5.862-.735-6.602-2.939-7.702-4.038-1.1-1.1-5.875 2.199-7.34 4.768-1.462 2.569-2.936-.73-6.237 1.1-3.305 1.834-6.601-2.565-8.071 0-1.47 2.569-5.14-1.465-6.976.73-.698.84-1.613 1.52-2.533 1.973 1.609 1.797 3.351 3.548 3.351 4.902 0 2.352 4.71 4.117 4.71 7.06 0 2.943 5.89 5.305 7.66 4.122 1.767-1.179 5.895-2.357 6.477 1.76.587 4.126 2.945 4.126 2.945 7.065 0 2.943-5.89 1.183-7.068 4.117-1.179 2.943 10.008 6.473 10.008 8.83 0 2.347 3.532 5.295 4.71 8.233 1.18 2.944 6.482 6.478 7.651 10.008 1.18 3.526 5.89 5.295 7.66 7.056 1.761 1.77 2.349 5.891 1.761 9.417-.582 3.53-.591 10.003 2.945 15.303 3.532 5.3-4.123 7.647-6.476 10.59-2.349 2.939-1.18 7.06-8.243 5.295-7.063-1.77 1.184 5.887 0 8.234-1.178 2.36-10.595-2.347-10.595 0 0 1.418-3.18 3.257-5.723 4.496 1.012 1.321 2.44 2.06 4.11 3.11 2.205 1.371-2.737 3.71-2.603 8.099.134 4.399 3.435 5.498 4.669 3.71 1.234-1.788 6.324-5.77 8.386-6.455 2.061-.683 0-3.705 2.195-3.571 2.196.134 1.512-3.16 2.478-4.949.966-1.779 2.469-1.1 5.77-.956 3.3.138 7.964-3.027 12.638-6.044 4.674-3.022 5.497-3.706 7.28-12.36 1.795-8.65-2.06-18.953-2.195-21.564-.13-2.606-6.458-14.693-8.792-14.554-2.34.138-13.055-10.854-14.983-12.638-1.918-1.788-1.368-4.805-4.119-7.148-2.75-2.328-3.023-8.372-2.334-12.627.689-4.26 6.735-5.222 6.601-8.11-.138-2.883.541-5.35 3.56-5.484 3.028-.148 5.912-2.62 7.285-4.815.199-.323.481-.526.79-.674-.767-.883-1.432-1.451-1.909-1.525z"/></g></g></svg>