<svg xmlns="http://www.w3.org/2000/svg" width="1191" height="899"><g fill="none" fill-rule="evenodd"><path fill="#1D1F1F" d="M739.5 245.564c-1.14 1.139-4.537 3.26-7.45 5.607 1.428 2.38 1.15 6.439 3.932 6.697 3.927.384 3.556 6.37-.749 5.431-4.298-.937-4.31 5.797-.566 11.6 3.744 5.796-7.105 12.348-4.11 15.344 2.99 2.977.56 6.545 1.863 8.414 1.316 1.87 17.218-.742 24.134-7.854 6.928-7.118 8.79-6.174 12.346-5.237 3.562.932 7.111-2.624 5.23-5.431-1.87-2.807-3.927-9.724-3.367-18.34.333-4.997-6.482-14.035-13.096-21.254-2.045 1.65-3.901 2.524-6.676 2.524-4.5 0-9.49.497-11.491 2.499"/><path stroke="#111212" stroke-width="1.573" d="M739.5 245.564c-1.14 1.139-4.537 3.26-7.45 5.607 1.428 2.38 1.15 6.439 3.932 6.697 3.927.384 3.556 6.37-.749 5.431-4.298-.937-4.31 5.797-.566 11.6 3.744 5.796-7.105 12.348-4.11 15.344 2.99 2.977.56 6.545 1.863 8.414 1.316 1.87 17.218-.742 24.134-7.854 6.928-7.118 8.79-6.174 12.346-5.237 3.562.932 7.111-2.624 5.23-5.431-1.87-2.807-3.927-9.724-3.367-18.34.333-4.997-6.482-14.035-13.096-21.254-2.045 1.65-3.901 2.524-6.676 2.524-4.5 0-9.49.497-11.491 2.499z"/><path fill="#1D1F1F" d="M308.041 472.074c-2.234-12.398-3.48-24.426-5.116-24.426-2.265 0-5.292 10.611-9.08 9.85-3.801-.749-3.801-13.639.748-13.639 4.55 0 9.855-9.856 9.855-12.895 0-3.021-4.537-3.021-9.093-3.021-4.55 0-14.404.755-14.404.755s-6.073-2.272-6.073-6.067c0-3.795-2.266-6.829-8.338-6.829-6.054 0-6.054-6.054-10.604 0-4.55 6.067 9.855 6.067 8.338 10.624-1.516 4.538-6.066 1.517-6.821 5.3-.762 3.788.768 13.65 3.033 18.95 1.743 4.09 4.367 14.444 4.462 23.154 3.53-.68 5.179-2.316 8.457-2.316 4.11 0 9.723-.554 10.094-4.865.378-4.299 5.053-7.477 7.665-6.174 2.624 1.315 6.55 11.788 6.74 17.213.056 1.73.805 4.015 1.97 6.388 2.088-2.064 4.53-3.707 4.53-3.707s1.536-5.771 3.637-8.295"/><path stroke="#111212" stroke-width="1.573" d="M308.041 472.074c-2.234-12.398-3.48-24.426-5.116-24.426-2.265 0-5.292 10.611-9.08 9.85-3.801-.749-3.801-13.639.748-13.639 4.55 0 9.855-9.856 9.855-12.895 0-3.021-4.537-3.021-9.093-3.021-4.55 0-14.404.755-14.404.755s-6.073-2.272-6.073-6.067c0-3.795-2.266-6.829-8.338-6.829-6.054 0-6.054-6.054-10.604 0-4.55 6.067 9.855 6.067 8.338 10.624-1.516 4.538-6.066 1.517-6.821 5.3-.762 3.788.768 13.65 3.033 18.95 1.743 4.09 4.367 14.444 4.462 23.154 3.53-.68 5.179-2.316 8.457-2.316 4.11 0 9.723-.554 10.094-4.865.378-4.299 5.053-7.477 7.665-6.174 2.624 1.315 6.55 11.788 6.74 17.213.056 1.73.805 4.015 1.97 6.388 2.088-2.064 4.53-3.707 4.53-3.707s1.536-5.771 3.637-8.295z"/><path fill="#1D1F1F" d="M260.486 450.676c-2.265-5.3-3.795-15.162-3.033-18.95.755-3.783 5.305-.762 6.821-5.3 1.517-4.557-12.887-4.557-8.338-10.624 4.55-6.054 4.55 0 10.604 0 6.072 0 8.338 3.034 8.338 6.829s6.073 6.067 6.073 6.067 9.854-.755 14.404-.755c4.556 0 9.093 0 9.093 3.02 0 3.04-5.305 12.896-9.855 12.896-4.55 0-4.55 12.89-.748 13.639 3.788.761 6.815-9.85 9.08-9.85 1.636 0 2.882 12.028 5.116 24.426.592-.698 1.202-1.202 1.85-1.202 2.996 0 1.498-10.485 3.5-13.487 2-2.996 1.006-12.48 2.504-12.48s10.49 2.995 9.993.496c-.503-2.498 5.487-11.001 4.493-15.495-1.007-4.493 3.493-9.994 3.493-15.482 0-5.495 4.996-6.993 8.495-9.995 3.493-2.995 9.49-6.992 10.49-4.5 1 2.499 8.49 4.5 5.494 0-3.002-4.493-3.002-7.483-1-8.484 2-1 3.001-5.997 3.001-5.997s-6.494-1.001-7.495-4.003c-1-2.99-5.003-5.986-5.003-8.49 0-2.5-3.498-1.498-6.488 1.007-3.001 2.498-8.495-3.003-14.99.497-6.487 3.499-7.991 7.483-10.987 6.986-3.001-.504-2.504 2.498-4.996 4.997-2.498 2.499-4.5 5.5-5.99 5.5-1.499 0-6.495 2.5-6.495 2.5s3.499 7.489 1.498 10.988c-2.002 3.5-7.004 0-12.486 1.504-5.5 1.498-7.998-2.007-12-1-3.99 1-6.482-2.505-8.477-2.008-2.007.503-5.002-4.5-4.002-8.49s-2.007-9.491-4.002-6.495c-1.995 3.002-4.984 1.504-4.984 5.997 0 4.488 2.498 9.989-.504 12.99-3.001 3.003-18.991 4.507-21.98 2.002-3.002-2.499-15.984-3.996-16.482-6.501-.497-2.499-4.499-6.986-7.004-6.986-2.492 0-9.993 3.486-11.981 1.988-2.001-1.491-6.998-5.488-10.497-5.985-3.499-.503-8.992-3.008-9.49-5.003-.496-1.995-8.488-2.996-9.992-4.998-1.498-2-6.488-2.492-6.488-4.99 0-2.493 2-6.496 2-9.498 0-3.002 5.992-5.985 5.992-7.986 0-2.002-5.488-5.501-5.488-5.501s-3.505-6.495-7.5-6.495c-4.003 0-6.999-6.992-10.491-7.49-3.493-.497-2.498-7.495-4.5-10-1.988-2.493-.497-8.484 3.002-5.488 3.493 2.995 9.993 0 7.489-4.5-2.499-4.494-6.992-8.478-6.992-10.983 0-2.499 3.008-10-.497-12.002-3.499-1.989-6.494-4.991-7.495-8.484-1-3.5-4.996-6.004-4.996-6.004l-4.99.503s-2.996 7.993-4.997 8.994c-2.001.994-8.999 2.499-12.491 4.99-3.487 2.5-13.48-3.492-18.973-3.492-5.5 0-9.006 5.494-6.507 6.998 2.504 1.498 2.007 11.984 2.007 11.984s2.996 12.99 7.489 11.996c4.493-.995 9.993 4.487 5.99 5.488-3.99 1-5.99 5.5-6.487 9.503-.504 3.997.497 8.988-2.492 9.485-3.002.497-5.998 1.498-5.998 6.998 0 5.501-6.494 4.003-7.494 5.992-1 2.008-3.5 11.996-4.997 13.494-1.498 1.498-10 2.001-10.496 6.495-.504 4.493-4.487 9.994-6.985 9.49-2.505-.497-6.998-2.504-8.502.504-1.498 3.002-7.98-2.498-9.484-1-1.497 1.497-9.495 7.992-9.495 11.983 0 4.002 8.495 4.002 7.998 9.006-.504 4.99 3.001 10.485 5.5 12.978 2.485 2.504 6.481 8.496 4.48 11.498-1.995 2.99-4.984 3.487-9.483 2.492-4.5-1-4.002 1.996-11.988.498-7.998-1.498-8.495 4.5-11.49 7.999-.19.22-.466.529-.806.919 3.77 2.983 5.355 8.301 11.629 10.724 7.3 2.807 13.85-4.682 13.85.743 0 5.431-17.217 4.311-17.582 5.992-.377 1.686 17.759 23.576 26.934 21.89 9.162-1.688 15.896-11.606 13.271-13.098-2.617-1.492 1.504-7.672 3.933-6.546 2.43 1.12.378 10.845 3.178 13.091 2.813 2.24 1.876 6.357 0 11.606-1.862 5.236 1.876 15.52 2.43 21.323.566 5.797 4.493 14.211 5.808 22.815 1.309 8.622 6.733 24.331 11.786 33.866 5.054 9.541 8.968 28.253 12.334 32.74 3.367 4.487 11.976 18.145 11.976 26.56 0 8.42 9.168 20.202 12.346 22.455 3.185 2.241 10.107-2.618 11.787-7.867 1.686-5.236 11.22-7.294 11.78-11.782.567-4.487 1.492-8.043 4.865-8.603 3.366-.566 3.366-4.11 3.366-8.981 0-4.865.372-11.782 3.744-16.087 3.36-4.298 3.927-15.904 1.87-20.574-2.058-4.676-.938-11.222.937-15.91 1.863-4.67 1.12-10.108 4.676-10.467 3.549-.378 8.79-3.568 12.529-8.61 3.75-5.054 15.153-11.977 19.269-15.344 4.109-3.367 16.644-14.406 20.395-20.574 3.732-6.18 14.392-8.226 19.262-13.286 4.865-5.041 2.99-7.66 3.927-13.097.938-5.413 16.638-7.66 22.63-7.66 1.226 0 2.233-.132 3.146-.308-.095-8.71-2.719-19.064-4.462-23.154"/><path stroke="#111212" stroke-width="1.573" d="M260.486 450.676c-2.265-5.3-3.795-15.162-3.033-18.95.755-3.783 5.305-.762 6.821-5.3 1.517-4.557-12.887-4.557-8.338-10.624 4.55-6.054 4.55 0 10.604 0 6.072 0 8.338 3.034 8.338 6.829s6.073 6.067 6.073 6.067 9.854-.755 14.404-.755c4.556 0 9.093 0 9.093 3.02 0 3.04-5.305 12.896-9.855 12.896-4.55 0-4.55 12.89-.748 13.639 3.788.761 6.815-9.85 9.08-9.85 1.636 0 2.882 12.028 5.116 24.426.592-.698 1.202-1.202 1.85-1.202 2.996 0 1.498-10.485 3.5-13.487 2-2.996 1.006-12.48 2.504-12.48s10.49 2.995 9.993.496c-.503-2.498 5.487-11.001 4.493-15.495-1.007-4.493 3.493-9.994 3.493-15.482 0-5.495 4.996-6.993 8.495-9.995 3.493-2.995 9.49-6.992 10.49-4.5 1 2.499 8.49 4.5 5.494 0-3.002-4.493-3.002-7.483-1-8.484 2-1 3.001-5.997 3.001-5.997s-6.494-1.001-7.495-4.003c-1-2.99-5.003-5.986-5.003-8.49 0-2.5-3.498-1.498-6.488 1.007-3.001 2.498-8.495-3.003-14.99.497-6.487 3.499-7.991 7.483-10.987 6.986-3.001-.504-2.504 2.498-4.996 4.997-2.498 2.499-4.5 5.5-5.99 5.5-1.499 0-6.495 2.5-6.495 2.5s3.499 7.489 1.498 10.988c-2.002 3.5-7.004 0-12.486 1.504-5.5 1.498-7.998-2.007-12-1-3.99 1-6.482-2.505-8.477-2.008-2.007.503-5.002-4.5-4.002-8.49s-2.007-9.491-4.002-6.495c-1.995 3.002-4.984 1.504-4.984 5.997 0 4.488 2.498 9.989-.504 12.99-3.001 3.003-18.991 4.507-21.98 2.002-3.002-2.499-15.984-3.996-16.482-6.501-.497-2.499-4.499-6.986-7.004-6.986-2.492 0-9.993 3.486-11.981 1.988-2.001-1.491-6.998-5.488-10.497-5.985-3.499-.503-8.992-3.008-9.49-5.003-.496-1.995-8.488-2.996-9.992-4.998-1.498-2-6.488-2.492-6.488-4.99 0-2.493 2-6.496 2-9.498 0-3.002 5.992-5.985 5.992-7.986 0-2.002-5.488-5.501-5.488-5.501s-3.505-6.495-7.5-6.495c-4.003 0-6.999-6.992-10.491-7.49-3.493-.497-2.498-7.495-4.5-10-1.988-2.493-.497-8.484 3.002-5.488 3.493 2.995 9.993 0 7.489-4.5-2.499-4.494-6.992-8.478-6.992-10.983 0-2.499 3.008-10-.497-12.002-3.499-1.989-6.494-4.991-7.495-8.484-1-3.5-4.996-6.004-4.996-6.004l-4.99.503s-2.996 7.993-4.997 8.994c-2.001.994-8.999 2.499-12.491 4.99-3.487 2.5-13.48-3.492-18.973-3.492-5.5 0-9.006 5.494-6.507 6.998 2.504 1.498 2.007 11.984 2.007 11.984s2.996 12.99 7.489 11.996c4.493-.995 9.993 4.487 5.99 5.488-3.99 1-5.99 5.5-6.487 9.503-.504 3.997.497 8.988-2.492 9.485-3.002.497-5.998 1.498-5.998 6.998 0 5.501-6.494 4.003-7.494 5.992-1 2.008-3.5 11.996-4.997 13.494-1.498 1.498-10 2.001-10.496 6.495-.504 4.493-4.487 9.994-6.985 9.49-2.505-.497-6.998-2.504-8.502.504-1.498 3.002-7.98-2.498-9.484-1-1.497 1.497-9.495 7.992-9.495 11.983 0 4.002 8.495 4.002 7.998 9.006-.504 4.99 3.001 10.485 5.5 12.978 2.485 2.504 6.481 8.496 4.48 11.498-1.995 2.99-4.984 3.487-9.483 2.492-4.5-1-4.002 1.996-11.988.498-7.998-1.498-8.495 4.5-11.49 7.999-.19.22-.466.529-.806.919 3.77 2.983 5.355 8.301 11.629 10.724 7.3 2.807 13.85-4.682 13.85.743 0 5.431-17.217 4.311-17.582 5.992-.377 1.686 17.759 23.576 26.934 21.89 9.162-1.688 15.896-11.606 13.271-13.098-2.617-1.492 1.504-7.672 3.933-6.546 2.43 1.12.378 10.845 3.178 13.091 2.813 2.24 1.876 6.357 0 11.606-1.862 5.236 1.876 15.52 2.43 21.323.566 5.797 4.493 14.211 5.808 22.815 1.309 8.622 6.733 24.331 11.786 33.866 5.054 9.541 8.968 28.253 12.334 32.74 3.367 4.487 11.976 18.145 11.976 26.56 0 8.42 9.168 20.202 12.346 22.455 3.185 2.241 10.107-2.618 11.787-7.867 1.686-5.236 11.22-7.294 11.78-11.782.567-4.487 1.492-8.043 4.865-8.603 3.366-.566 3.366-4.11 3.366-8.981 0-4.865.372-11.782 3.744-16.087 3.36-4.298 3.927-15.904 1.87-20.574-2.058-4.676-.938-11.222.937-15.91 1.863-4.67 1.12-10.108 4.676-10.467 3.549-.378 8.79-3.568 12.529-8.61 3.75-5.054 15.153-11.977 19.269-15.344 4.109-3.367 16.644-14.406 20.395-20.574 3.732-6.18 14.392-8.226 19.262-13.286 4.865-5.041 2.99-7.66 3.927-13.097.938-5.413 16.638-7.66 22.63-7.66 1.226 0 2.233-.132 3.146-.308-.095-8.71-2.719-19.064-4.462-23.154z"/><path fill="#1D1F1F" d="M633.131 95.113c-4.071-4.884-10.59-2.436-12.214 1.636-1.636 4.072-4.902-1.636-12.227-1.636-7.344 0-8.156 4.078-13.045-.812-4.877-4.884 1.63-6.52 1.63-6.52l.818-6.52 10.119-20.241c-2.889-1.184-7.124-1.65-9.157-.888-2.995 1.12-10.1.384-10.848-2.24-.75-2.625-12.718-2.996-15.714-.75-2.989 2.248-9.722 4.11-10.094 6.735-.383 2.624-7.482 1.87-10.106 3.738-2.618 1.876-16.09 2.625-16.456 4.123-.371 1.498-14.587 1.869-16.833 0-2.247-1.87-14.593 0-16.091-3.002-1.504-2.99-6.74-4.488-6.74-7.1 0-2.624-9.351-2.624-10.471-4.865-1.127-2.247-8.603-3.373-9.723-2.624-1.126.749-9.363-2.247-11.597-2.618-2.247-.378-9.352 1.491-11.598 1.491-2.247 0-6.362 4.123-8.974 4.488-2.624.384-9.735-4.488-11.226-3.361-1.498 1.12-5.991-3.739-7.854-5.98-1.881-2.252 0-8.615-1.498-10.856-1.491-2.247-9.722-2.247-12.346-3.738-2.618-1.504-6.74-3.745-9.364-3.745-2.612 0-6.727-.743-7.853-1.87-1.114-1.126-6.728-2.995-9.34-3.744-2.623-.743-3 2.618-4.492 4.116-1.498 1.498-5.991 1.876-6.734 4.487-.755 2.619-5.99 3.368-5.242 6.363.756 2.996 2.625 8.988 4.487 10.473 1.876 1.498.755 5.985-.365 7.49-1.132 1.491-8.986 2.612-10.484 5.242-1.485 2.618-5.23-.384-8.973-2.63-3.745-2.247-8.238-.743-10.1.761-1.87 1.485-8.603-3.745-10.484-4.122-1.863-.372-2.24-7.484-4.116-7.106-1.856.365-14.964-2.247-17.576-3.002-2.624-.743-8.23-.371-8.974 1.498-.755 1.882-7.488 1.504-8.608 3.745-1.127 2.247-6.362 3.367-8.225 5.614-1.882 2.247-8.237 2.247-9.735 5.607-1.485 3.374-9.345 4.865-11.592 5.237-2.246.384-8.23 1.504-8.608 3.367-.157.805-1.101.912-2.272.774.139.503.308.95.41 1.51 1.553 8.535 5.178 8.29 9.067 11.656 3.89 3.361 7.243 5.954 11.384 6.219 4.147.264 10.364 5.167 10.88 8.804.516 3.613 4.4 7.76 6.734 9.58 2.328 1.812-.774 8.03-.774 12.688 0 4.657-5.695 5.695-2.85 10.365 2.85 4.658 22.786 6.98 28.48 6.98 5.696 0 7.772 5.444 9.497 5.727 3.587.592 4.065 4.884 8.149 5.702 4.071.812 8.15 3.26 9.779 10.605 1.624 7.326 6.52 9.774 7.331 13.04.818 3.261 9.786.813 16.299 1.631 6.525.818 25.272 0 30.161.818 4.89.812 16.299 0 22.818 4.884 6.526 4.89 9.78.812 13.864 3.26 4.077 2.436 7.325 4.072 13.032 3.254 5.708-.818 5.702 4.085 9.78 4.903 4.07.818 11.415-6.527 22.012-11.417 10.584-4.884 22.818-1.63 28.52-.812 5.7.812 16.298-2.442 22.817-9.787 6.526-7.325 14.669-5.708 15.487-12.228.818-6.52-6.513-8.969-3.266-14.67 3.266-5.703 8.974-4.891 12.24-3.255 3.247 1.624 12.22 4.072 20.37-1.636 8.149-5.702 11.409-4.884 18.74-5.702 7.337-.818 6.52-5.709 11.415-10.599 4.896-4.89 10.59-6.526 15.493-6.526 4.883 0 11.396-4.89 16.299-3.26 4.89 1.63 12.214 2.448 13.038-1.63.812-4.066-12.233-12.23-16.31-17.12"/><path stroke="#111212" stroke-width="1.573" d="M633.131 95.113c-4.071-4.884-10.59-2.436-12.214 1.636-1.636 4.072-4.902-1.636-12.227-1.636-7.344 0-8.156 4.078-13.045-.812-4.877-4.884 1.63-6.52 1.63-6.52l.818-6.52 10.119-20.241c-2.889-1.184-7.124-1.65-9.157-.888-2.995 1.12-10.1.384-10.848-2.24-.75-2.625-12.718-2.996-15.714-.75-2.989 2.248-9.722 4.11-10.094 6.735-.383 2.624-7.482 1.87-10.106 3.738-2.618 1.876-16.09 2.625-16.456 4.123-.371 1.498-14.587 1.869-16.833 0-2.247-1.87-14.593 0-16.091-3.002-1.504-2.99-6.74-4.488-6.74-7.1 0-2.624-9.351-2.624-10.471-4.865-1.127-2.247-8.603-3.373-9.723-2.624-1.126.749-9.363-2.247-11.597-2.618-2.247-.378-9.352 1.491-11.598 1.491-2.247 0-6.362 4.123-8.974 4.488-2.624.384-9.735-4.488-11.226-3.361-1.498 1.12-5.991-3.739-7.854-5.98-1.881-2.252 0-8.615-1.498-10.856-1.491-2.247-9.722-2.247-12.346-3.738-2.618-1.504-6.74-3.745-9.364-3.745-2.612 0-6.727-.743-7.853-1.87-1.114-1.126-6.728-2.995-9.34-3.744-2.623-.743-3 2.618-4.492 4.116-1.498 1.498-5.991 1.876-6.734 4.487-.755 2.619-5.99 3.368-5.242 6.363.756 2.996 2.625 8.988 4.487 10.473 1.876 1.498.755 5.985-.365 7.49-1.132 1.491-8.986 2.612-10.484 5.242-1.485 2.618-5.23-.384-8.973-2.63-3.745-2.247-8.238-.743-10.1.761-1.87 1.485-8.603-3.745-10.484-4.122-1.863-.372-2.24-7.484-4.116-7.106-1.856.365-14.964-2.247-17.576-3.002-2.624-.743-8.23-.371-8.974 1.498-.755 1.882-7.488 1.504-8.608 3.745-1.127 2.247-6.362 3.367-8.225 5.614-1.882 2.247-8.237 2.247-9.735 5.607-1.485 3.374-9.345 4.865-11.592 5.237-2.246.384-8.23 1.504-8.608 3.367-.157.805-1.101.912-2.272.774.139.503.308.95.41 1.51 1.553 8.535 5.178 8.29 9.067 11.656 3.89 3.361 7.243 5.954 11.384 6.219 4.147.264 10.364 5.167 10.88 8.804.516 3.613 4.4 7.76 6.734 9.58 2.328 1.812-.774 8.03-.774 12.688 0 4.657-5.695 5.695-2.85 10.365 2.85 4.658 22.786 6.98 28.48 6.98 5.696 0 7.772 5.444 9.497 5.727 3.587.592 4.065 4.884 8.149 5.702 4.071.812 8.15 3.26 9.779 10.605 1.624 7.326 6.52 9.774 7.331 13.04.818 3.261 9.786.813 16.299 1.631 6.525.818 25.272 0 30.161.818 4.89.812 16.299 0 22.818 4.884 6.526 4.89 9.78.812 13.864 3.26 4.077 2.436 7.325 4.072 13.032 3.254 5.708-.818 5.702 4.085 9.78 4.903 4.07.818 11.415-6.527 22.012-11.417 10.584-4.884 22.818-1.63 28.52-.812 5.7.812 16.298-2.442 22.817-9.787 6.526-7.325 14.669-5.708 15.487-12.228.818-6.52-6.513-8.969-3.266-14.67 3.266-5.703 8.974-4.891 12.24-3.255 3.247 1.624 12.22 4.072 20.37-1.636 8.149-5.702 11.409-4.884 18.74-5.702 7.337-.818 6.52-5.709 11.415-10.599 4.896-4.89 10.59-6.526 15.493-6.526 4.883 0 11.396-4.89 16.299-3.26 4.89 1.63 12.214 2.448 13.038-1.63.812-4.066-12.233-12.23-16.31-17.12z"/><path fill="#1D1F1F" d="M150.512 178.366c-4.865-5.608-6.356-1.876-11.97-3.361-5.613-1.498-28.06-3.751-32.552-1.882-4.487 1.882-13.845-3.367-16.827-4.859-3.008-1.498-12.731 0-13.096 5.243-.378 5.243-4.493 5.23-11.233 1.863-6.727-3.36-16.827-3.36-17.198.378-.384 3.744-5.248 7.483-7.86 8.603-.994.428-2.429 3.462-3.82 7.049 2.064.787 3.323 2.555 4.695 4.204 2.492 2.983 8.986 2.493 9.993-.497 1-3.002 11.484 2.99 17.481 7.98 5.991 5.004-3.001 1.498-5.5 6.502-2.504 4.99-9.98 0-11.981 2.001-2.001 1.995-14.984 2.99-18.489 2.493-3.499-.498-9.49 4.99-8.992 7.495.503 2.499 13.498-1.504 17.991 1.498 4.493 2.996 8.986-3.002 11.49.497 2.487 3.506 7.987 1.001 10.485 2.002 2.486 1 16.355-.982 16.468-1 1.536-1.795 2.07-4.199 2.07-6.27 0-3.367 2.807-2.523 5.62-3.367 2.8-.85 4.77-4.493 7.01-4.493s5.337-3.367 7.57-2.518c2.247.837 5.054 4.765 7.854 2.518 2.813-2.24 3.65-.283 7.577-5.054 3.933-4.77 6.456-3.927 11.51-3.36 5.883.66 8.413-2.248 10.1-5.609 1.68-3.373 6.733-3.373 9.817-5.614 3.09-2.246 9.263-4.77 11.232-5.614.944-.409 1.158-1.397 1.152-2.718-4.525-3.632-6.52.604-10.597-4.11"/><path stroke="#111212" stroke-width="1.573" d="M150.512 178.366c-4.865-5.608-6.356-1.876-11.97-3.361-5.613-1.498-28.06-3.751-32.552-1.882-4.487 1.882-13.845-3.367-16.827-4.859-3.008-1.498-12.731 0-13.096 5.243-.378 5.243-4.493 5.23-11.233 1.863-6.727-3.36-16.827-3.36-17.198.378-.384 3.744-5.248 7.483-7.86 8.603-.994.428-2.429 3.462-3.82 7.049 2.064.787 3.323 2.555 4.695 4.204 2.492 2.983 8.986 2.493 9.993-.497 1-3.002 11.484 2.99 17.481 7.98 5.991 5.004-3.001 1.498-5.5 6.502-2.504 4.99-9.98 0-11.981 2.001-2.001 1.995-14.984 2.99-18.489 2.493-3.499-.498-9.49 4.99-8.992 7.495.503 2.499 13.498-1.504 17.991 1.498 4.493 2.996 8.986-3.002 11.49.497 2.487 3.506 7.987 1.001 10.485 2.002 2.486 1 16.355-.982 16.468-1 1.536-1.795 2.07-4.199 2.07-6.27 0-3.367 2.807-2.523 5.62-3.367 2.8-.85 4.77-4.493 7.01-4.493s5.337-3.367 7.57-2.518c2.247.837 5.054 4.765 7.854 2.518 2.813-2.24 3.65-.283 7.577-5.054 3.933-4.77 6.456-3.927 11.51-3.36 5.883.66 8.413-2.248 10.1-5.609 1.68-3.373 6.733-3.373 9.817-5.614 3.09-2.246 9.263-4.77 11.232-5.614.944-.409 1.158-1.397 1.152-2.718-4.525-3.632-6.52.604-10.597-4.11z"/><path fill="#1D1F1F" d="M146.767 277.227c-4.493-.258-13.114 4.192-14.341 8.239.887.975 1.737 2.184 2.133 3.562 1 3.493 3.996 6.495 7.495 8.484 2.152 1.227 1.844 4.55 1.278 7.49 1.988-.07 4.02-.227 5.393-.548 3.656-.844 11.51-12.065 12.623-15.155 1.127-3.084-9.81-11.789-14.58-12.072"/><path stroke="#111212" stroke-width="1.573" d="M146.767 277.227c-4.493-.258-13.114 4.192-14.341 8.239.887.975 1.737 2.184 2.133 3.562 1 3.493 3.996 6.495 7.495 8.484 2.152 1.227 1.844 4.55 1.278 7.49 1.988-.07 4.02-.227 5.393-.548 3.656-.844 11.51-12.065 12.623-15.155 1.127-3.084-9.81-11.789-14.58-12.072z"/><path fill="#1D1F1F" d="M787.181 175.817c-4.89 1.636-6.526-4.079-10.604-4.079-4.077 0-3.26 9.787-7.324 9.787-4.085 0-3.273 5.702-8.974 6.508-5.695.818-7.338.818-4.89 4.903 2.442 4.072-3.253 2.442-8.149 2.442-4.896 0-4.896-3.254-8.15-3.254-3.259 0-5.7 5.702-8.148 8.956-2.448 3.266-18.747 10.598-23.637 13.047-1.39.692-2.567 2.85-3.568 5.563 5.834.479 11.862 3.827 14.474 7.131 3.556 4.487-4.122 9.535-7.488 13.651-3.367 4.122 2.057 4.305 2.246 7.672.195 3.36 4.688 6.174 6.368 3.185 1.68-2.984 4.481-1.876 9.723-1.876 1.53 0 2.391.73 2.99 1.718 2.913-2.347 6.31-4.468 7.45-5.607 2.001-2.002 6.991-2.499 11.49-2.499 2.776 0 4.632-.875 6.677-2.524-4.763-5.192-9.42-9.447-11.214-10.542-4.298-2.618-1.686-9.919 3.55-11.221 5.248-1.31 18.148-11.228 22.081-13.469 3.927-2.247 1.31-9.541 4.487-15.344 1.655-3.027 7.866-8.805 14.084-13.645-1.334-.572-2.549-.824-3.474-.503"/><path stroke="#111212" stroke-width="1.573" d="M787.181 175.817c-4.89 1.636-6.526-4.079-10.604-4.079-4.077 0-3.26 9.787-7.324 9.787-4.085 0-3.273 5.702-8.974 6.508-5.695.818-7.338.818-4.89 4.903 2.442 4.072-3.253 2.442-8.149 2.442-4.896 0-4.896-3.254-8.15-3.254-3.259 0-5.7 5.702-8.148 8.956-2.448 3.266-18.747 10.598-23.637 13.047-1.39.692-2.567 2.85-3.568 5.563 5.834.479 11.862 3.827 14.474 7.131 3.556 4.487-4.122 9.535-7.488 13.651-3.367 4.122 2.057 4.305 2.246 7.672.195 3.36 4.688 6.174 6.368 3.185 1.68-2.984 4.481-1.876 9.723-1.876 1.53 0 2.391.73 2.99 1.718 2.913-2.347 6.31-4.468 7.45-5.607 2.001-2.002 6.991-2.499 11.49-2.499 2.776 0 4.632-.875 6.677-2.524-4.763-5.192-9.42-9.447-11.214-10.542-4.298-2.618-1.686-9.919 3.55-11.221 5.248-1.31 18.148-11.228 22.081-13.469 3.927-2.247 1.31-9.541 4.487-15.344 1.655-3.027 7.866-8.805 14.084-13.645-1.334-.572-2.549-.824-3.474-.503z"/><path fill="#1D1F1F" d="M254.319 392.069c-.862-.063-1.8-.095-2.901-.063-7.293.283-11.78-3.368-16.557-3.09-4.77.276-18.507-5.048-24.41-9.819-5.883-4.77-21.88-14.872-25.813-18.8-3.927-3.926-9.534-3.926-10.1-1.963-.51 1.8-3.398 1.958-7.753 2.398-1.114 1.951-5.745 4.582-5.745 7.225 0 3.002-2.001 7.005-2.001 9.498 0 2.498 4.99 2.99 6.488 4.99 1.504 2.002 9.496 3.003 9.993 4.998.497 1.995 5.99 4.5 9.49 5.003 3.498.497 8.495 4.494 10.496 5.985 1.988 1.498 9.49-1.988 11.981-1.988 2.505 0 6.507 4.487 7.004 6.986.498 2.505 13.48 4.002 16.481 6.501 2.99 2.505 18.98 1 21.981-2.001 3.002-3.002.504-8.503.504-12.99 0-1.498.346-2.304.862-2.87"/><path stroke="#111212" stroke-width="1.573" d="M254.319 392.069c-.862-.063-1.8-.095-2.901-.063-7.293.283-11.78-3.368-16.557-3.09-4.77.276-18.507-5.048-24.41-9.819-5.883-4.77-21.88-14.872-25.813-18.8-3.927-3.926-9.534-3.926-10.1-1.963-.51 1.8-3.398 1.958-7.753 2.398-1.114 1.951-5.745 4.582-5.745 7.225 0 3.002-2.001 7.005-2.001 9.498 0 2.498 4.99 2.99 6.488 4.99 1.504 2.002 9.496 3.003 9.993 4.998.497 1.995 5.99 4.5 9.49 5.003 3.498.497 8.495 4.494 10.496 5.985 1.988 1.498 9.49-1.988 11.981-1.988 2.505 0 6.507 4.487 7.004 6.986.498 2.505 13.48 4.002 16.481 6.501 2.99 2.505 18.98 1 21.981-2.001 3.002-3.002.504-8.503.504-12.99 0-1.498.346-2.304.862-2.87z"/><path fill="#1D1F1F" d="M387.325 599.27c0-4.985-3.99-5.488-3.99-9.485 0-3.996 0-10.995-4.996-15.482-5.003-4.5-7.501-11.008-4.5-13.5 2.996-2.486.498-9.491 1.995-8.994 1.504.504 3.506-4.5.498-5.992-2.996-1.497 0-7.489-2.492-8.49-2.505-1-9.49-8.993-9.49-11.486 0-2.498 2.001-16.496 2.498-19.982.497-3.506 5.488-4.003 6.992-4.003 1.497 0 7.494.497 9.496-3.002 2-3.493 10.484-3.997 11.484-6.495 1-2.486 6.5-2.486 6.5-5.488 0-3.002 6.482-10.498 6.482-10.498.101-.02.17.031.258.031-.749-1.328-2.391-.132-5.695 1.183-5.607 2.254-8.413-.837-7.853-4.204.56-3.373-3.927-3.373-7.017-3.373-3.083 0-1.12-5.048 0-8.415 1.133-3.367-1.12-5.324-4.77-5.614-3.643-.277-5.33-8.131-3.927-10.384 1.41-2.241-7.57-4.205-11.497-2.241-3.933 1.964-1.126-3.367-2.246-6.18-1.127-2.801 5.047-12.342 10.383-17.667 5.33-5.337 3.084-12.354 3.084-18.529 0-6.174-2.524-6.174-5.047-6.174-2.53 0-2.813-3.644-2.813-7.01 0-3.368-5.33-5.892-8.414-3.645-.428.308-1.19.749-2.133 1.246.126.032.239.05.239.05s-1 4.998-3.002 5.998c-2 1.001-2 3.99 1 8.484 2.996 4.5-4.492 2.499-5.493 0-1-2.492-6.997 1.505-10.49 4.5-3.499 3.002-8.495 4.5-8.495 9.995 0 5.488-4.5 10.989-3.493 15.482.994 4.494-4.996 12.997-4.493 15.495.497 2.499-8.495-.497-9.993-.497-1.498 0-.504 9.485-2.505 12.48-2 3.003-.503 13.488-3.499 13.488-2.989 0-5.487 9.497-5.487 9.497s-2.442 1.643-4.53 3.707c2.447 5.01 6.915 10.473 11.874 12.512 7.293 2.983 12.151 17.761 14.404 25.622 2.24 7.854.743 15.91-1.869 20.391-2.624 4.494.925 4.683 5.23 6.923 4.31 2.241 9.168 2.996 12.346-1.497 3.19-4.494 9.729-7.666 10.667-12.72.937-5.048 3.926 2.43 6.544 5.054 2.624 2.618 4.493 7.666 5.053 14.022.56 6.363 1.12 22.267 6.539 27.315 5.43 5.047 6.368 16.093 4.864 20.02-1.485 3.934 2.813 10.662 1.687 14.973-.227.856-.466 2.077-.737 3.436 4.877.932 10.85-20.857 10.85-20.857"/><path stroke="#111212" stroke-width="1.573" d="M387.325 599.27c0-4.985-3.99-5.488-3.99-9.485 0-3.996 0-10.995-4.996-15.482-5.003-4.5-7.501-11.008-4.5-13.5 2.996-2.486.498-9.491 1.995-8.994 1.504.504 3.506-4.5.498-5.992-2.996-1.497 0-7.489-2.492-8.49-2.505-1-9.49-8.993-9.49-11.486 0-2.498 2.001-16.496 2.498-19.982.497-3.506 5.488-4.003 6.992-4.003 1.497 0 7.494.497 9.496-3.002 2-3.493 10.484-3.997 11.484-6.495 1-2.486 6.5-2.486 6.5-5.488 0-3.002 6.482-10.498 6.482-10.498.101-.02.17.031.258.031-.749-1.328-2.391-.132-5.695 1.183-5.607 2.254-8.413-.837-7.853-4.204.56-3.373-3.927-3.373-7.017-3.373-3.083 0-1.12-5.048 0-8.415 1.133-3.367-1.12-5.324-4.77-5.614-3.643-.277-5.33-8.131-3.927-10.384 1.41-2.241-7.57-4.205-11.497-2.241-3.933 1.964-1.126-3.367-2.246-6.18-1.127-2.801 5.047-12.342 10.383-17.667 5.33-5.337 3.084-12.354 3.084-18.529 0-6.174-2.524-6.174-5.047-6.174-2.53 0-2.813-3.644-2.813-7.01 0-3.368-5.33-5.892-8.414-3.645-.428.308-1.19.749-2.133 1.246.126.032.239.05.239.05s-1 4.998-3.002 5.998c-2 1.001-2 3.99 1 8.484 2.996 4.5-4.492 2.499-5.493 0-1-2.492-6.997 1.505-10.49 4.5-3.499 3.002-8.495 4.5-8.495 9.995 0 5.488-4.5 10.989-3.493 15.482.994 4.494-4.996 12.997-4.493 15.495.497 2.499-8.495-.497-9.993-.497-1.498 0-.504 9.485-2.505 12.48-2 3.003-.503 13.488-3.499 13.488-2.989 0-5.487 9.497-5.487 9.497s-2.442 1.643-4.53 3.707c2.447 5.01 6.915 10.473 11.874 12.512 7.293 2.983 12.151 17.761 14.404 25.622 2.24 7.854.743 15.91-1.869 20.391-2.624 4.494.925 4.683 5.23 6.923 4.31 2.241 9.168 2.996 12.346-1.497 3.19-4.494 9.729-7.666 10.667-12.72.937-5.048 3.926 2.43 6.544 5.054 2.624 2.618 4.493 7.666 5.053 14.022.56 6.363 1.12 22.267 6.539 27.315 5.43 5.047 6.368 16.093 4.864 20.02-1.485 3.934 2.813 10.662 1.687 14.973-.227.856-.466 2.077-.737 3.436 4.877.932 10.85-20.857 10.85-20.857z"/><path fill="#1D1F1F" d="M299.974 393.466c-7.533-6.917-9.578-1.34-14.606-3.99-5.33-2.801-7.853-3.645-10.377-1.68-2.53 1.963-6.456 1.68-8.986 7.854-.824 2.026-1.856 3.92-2.85 5.343.874 1.882 2.214 3.204 3.29 2.933 1.995-.497 4.487 3.008 8.477 2.008 4.002-1.007 6.5 2.498 12 1 5.482-1.504 10.484 1.995 12.486-1.504 2-3.5-1.498-10.989-1.498-10.989s.919-.46 2.064-.975"/><path stroke="#111212" stroke-width="1.573" d="M299.974 393.466c-7.533-6.917-9.578-1.34-14.606-3.99-5.33-2.801-7.853-3.645-10.377-1.68-2.53 1.963-6.456 1.68-8.986 7.854-.824 2.026-1.856 3.92-2.85 5.343.874 1.882 2.214 3.204 3.29 2.933 1.995-.497 4.487 3.008 8.477 2.008 4.002-1.007 6.5 2.498 12 1 5.482-1.504 10.484 1.995 12.486-1.504 2-3.5-1.498-10.989-1.498-10.989s.919-.46 2.064-.975z"/><path fill="#1D1F1F" d="M490.724 476.373c-3.493-.497-12.486-6.986-12.486-9.491 0-2.499 4.506-6.495-3.498-7.49-7.98-1-8.987-4.002-10.484-5.5-1.498-1.498-7.999 2.995-9.993 6.495-1.989 3.499-3.996-.995-8.49 1.498-4.499 2.498-8.986-3.493-10.987 0-2.001 3.499-6.998-1.995-9.496.994-.95 1.145-2.196 2.07-3.448 2.687 2.19 2.449 4.562 4.834 4.562 6.678 0 3.204 6.412 5.608 6.412 9.617 0 4.009 8.018 7.225 10.428 5.614 2.404-1.605 8.023-3.21 8.816 2.398.8 5.62 4.009 5.62 4.009 9.623 0 4.009-8.017 1.611-9.622 5.607-1.605 4.01 13.624 8.818 13.624 12.028 0 3.197 4.808 7.212 6.412 11.215 1.605 4.01 8.823 8.824 10.415 13.632 1.605 4.802 8.017 7.213 10.427 9.61 2.398 2.411 3.197 8.025 2.398 12.827-.793 4.809-.806 13.626 4.009 20.845 4.807 7.219-5.614 10.416-8.817 14.425-3.197 4.003-1.604 9.617-11.22 7.213-9.615-2.41 1.611 8.018 0 11.215-1.605 3.216-14.423-3.197-14.423 0 0 1.932-4.33 4.437-7.79 6.124 1.377 1.8 3.322 2.807 5.594 4.236 3.001 1.869-3.726 5.054-3.543 11.033.182 5.991 4.675 7.49 6.355 5.053 1.68-2.435 8.61-7.86 11.416-8.792 2.806-.931 0-5.047 2.989-4.865 2.989.183 2.058-4.305 3.373-6.74 1.315-2.424 3.36-1.498 7.853-1.303 4.493.189 10.843-4.123 17.205-8.232 6.362-4.117 7.482-5.048 9.911-16.836 2.442-11.782-2.806-25.817-2.989-29.373-.176-3.55-8.79-20.014-11.969-19.825-3.184.189-17.77-14.784-20.395-17.213-2.612-2.436-1.863-6.546-5.607-9.737-3.744-3.172-4.116-11.404-3.178-17.2.938-5.803 9.169-7.112 8.986-11.046-.188-3.927.737-7.288 4.846-7.47 4.122-.202 8.048-3.569 9.917-6.558.271-.441.655-.718 1.077-.92-1.045-1.201-1.951-1.976-2.6-2.076"/><path fill="#1D1F1F" d="M459.272 618.113c0-3.197 12.818 3.216 14.423 0 1.611-3.197-9.615-13.626 0-11.215 9.616 2.404 8.023-3.21 11.22-7.213 3.203-4.009 13.624-7.206 8.817-14.425-3.405-5.123-4.387-11.014-4.387-15.74-3.096 2.442-6.853 2.63-8.973 1.787-2.706-1.089-8.64-1.624-8.64 2.7 0 4.311-4.317 5.394-3.782 3.235.54-2.152-4.317-1.618-7.017-4.859-2.706-3.241-12.422 1.083-17.28-.535-4.865-1.63-12.422 2.694-17.268 8.642-4.877 5.934.529 5.934.529 11.334 0 5.407 3.24 5.407 1.623 9.718-.05.107-.081.264-.12.384 4.764 2.096 2.89 8.043 3.418 11.398.56 3.543 5.242 1.485 7.853 1.303 2.624-.19-1.686 4.11.56 6.734 2.247 2.618 8.792-2.24 10.1.938a8.359 8.359 0 0 0 1.133 1.938c3.461-1.687 7.79-4.192 7.79-6.124"/><path stroke="#111212" stroke-width="1.573" d="M459.272 618.113c0-3.197 12.818 3.216 14.423 0 1.611-3.197-9.615-13.626 0-11.215 9.616 2.404 8.023-3.21 11.22-7.213 3.203-4.009 13.624-7.206 8.817-14.425-3.405-5.123-4.387-11.014-4.387-15.74-3.096 2.442-6.853 2.63-8.973 1.787-2.706-1.089-8.64-1.624-8.64 2.7 0 4.311-4.317 5.394-3.782 3.235.54-2.152-4.317-1.618-7.017-4.859-2.706-3.241-12.422 1.083-17.28-.535-4.865-1.63-12.422 2.694-17.268 8.642-4.877 5.934.529 5.934.529 11.334 0 5.407 3.24 5.407 1.623 9.718-.05.107-.081.264-.12.384 4.764 2.096 2.89 8.043 3.418 11.398.56 3.543 5.242 1.485 7.853 1.303 2.624-.19-1.686 4.11.56 6.734 2.247 2.618 8.792-2.24 10.1.938a8.359 8.359 0 0 0 1.133 1.938c3.461-1.687 7.79-4.192 7.79-6.124z"/><path fill="#1D1F1F" d="M460.07 517.13c0-3.209-15.228-8.017-13.623-12.027 1.605-3.996 9.622-1.598 9.622-5.607 0-4.003-3.21-4.003-4.009-9.623-.793-5.608-6.412-4.003-8.816-2.398-2.41 1.611-10.428-1.605-10.428-5.614 0-4.01-6.412-6.413-6.412-9.617 0-1.844-2.372-4.23-4.562-6.678-2.033 1.02-4.11 1.247-5.04.315-1.499-1.498-3.5 4.991-1.996 6.489 1.498 1.504 3.493 10.995-.497 10-4.002-1-4.002-6.494-6.507-5.997 0 0-6.481 7.496-6.481 10.498 0 2.014-2.486 2.687-4.424 3.663 1.158 1.025 2.14 1.957 2.473 2.467 1.089 1.61-.529 5.935 1.076 9.717 1.624 3.776 7.03-2.159 8.64 3.241 1.63 5.394-1.07 8.1-1.07 13.494 0 5.406-4.323 4.871-3.24 9.73 1.076 4.853 7.016-1.076 11.333-4.324 4.323-3.253 7.57-2.706 9.181-.535 1.624 2.16 7.023.535 8.105-2.17 1.083-2.688 9.175-3.777 11.875-.536 2.706 3.241 5.4 7.024 9.175 9.183 3.782 2.152-2.693 14.041 1.082 15.123 3.783 1.077 9.182 7.018 8.647 13.5-.466 5.57 2.643 9.554-1.63 14.344 2.656 1.724 5.846 1.705 5.406 3.474-.535 2.159 3.782 1.076 3.782-3.235 0-4.324 5.934-3.789 8.64-2.7 2.12.843 5.877.655 8.973-1.787 0-1.945.145-3.701.378-5.105.8-4.802 0-10.416-2.398-12.826-2.41-2.398-8.822-4.809-10.427-9.61-1.592-4.81-8.81-9.624-10.415-13.633-1.604-4.003-6.412-8.018-6.412-11.215"/><path stroke="#111212" stroke-width="1.573" d="M460.07 517.13c0-3.209-15.228-8.017-13.623-12.027 1.605-3.996 9.622-1.598 9.622-5.607 0-4.003-3.21-4.003-4.009-9.623-.793-5.608-6.412-4.003-8.816-2.398-2.41 1.611-10.428-1.605-10.428-5.614 0-4.01-6.412-6.413-6.412-9.617 0-1.844-2.372-4.23-4.562-6.678-2.033 1.02-4.11 1.247-5.04.315-1.499-1.498-3.5 4.991-1.996 6.489 1.498 1.504 3.493 10.995-.497 10-4.002-1-4.002-6.494-6.507-5.997 0 0-6.481 7.496-6.481 10.498 0 2.014-2.486 2.687-4.424 3.663 1.158 1.025 2.14 1.957 2.473 2.467 1.089 1.61-.529 5.935 1.076 9.717 1.624 3.776 7.03-2.159 8.64 3.241 1.63 5.394-1.07 8.1-1.07 13.494 0 5.406-4.323 4.871-3.24 9.73 1.076 4.853 7.016-1.076 11.333-4.324 4.323-3.253 7.57-2.706 9.181-.535 1.624 2.16 7.023.535 8.105-2.17 1.083-2.688 9.175-3.777 11.875-.536 2.706 3.241 5.4 7.024 9.175 9.183 3.782 2.152-2.693 14.041 1.082 15.123 3.783 1.077 9.182 7.018 8.647 13.5-.466 5.57 2.643 9.554-1.63 14.344 2.656 1.724 5.846 1.705 5.406 3.474-.535 2.159 3.782 1.076 3.782-3.235 0-4.324 5.934-3.789 8.64-2.7 2.12.843 5.877.655 8.973-1.787 0-1.945.145-3.701.378-5.105.8-4.802 0-10.416-2.398-12.826-2.41-2.398-8.822-4.809-10.427-9.61-1.592-4.81-8.81-9.624-10.415-13.633-1.604-4.003-6.412-8.018-6.412-11.215z"/><path fill="#1D1F1F" d="M426.914 591.824c0-5.4-5.406-5.4-.529-11.334 4.846-5.948 12.403-10.272 17.268-8.642 4.858 1.618 14.574-2.706 17.28.535.478.586 1.038 1 1.611 1.385 4.273-4.79 1.164-8.774 1.63-14.344.535-6.482-4.864-12.423-8.647-13.5-3.775-1.082 2.7-12.97-1.082-15.123-3.776-2.159-6.469-5.942-9.175-9.183-2.7-3.241-10.792-2.152-11.875.535-1.082 2.706-6.481 4.33-8.105 2.171-1.61-2.17-4.858-2.718-9.181.535-4.317 3.248-10.257 9.177-11.334 4.324-1.082-4.859 3.241-4.324 3.241-9.73 0-5.394 2.7-8.1 1.07-13.494-1.61-5.4-7.016.535-8.64-3.24-1.605-3.783.013-8.107-1.076-9.718-.334-.51-1.315-1.442-2.473-2.467-.932.472-1.75 1.02-2.077 1.825-1 2.498-9.483 3.002-11.484 6.495-2.002 3.5-7.999 3.002-9.496 3.002-1.504 0-6.495.497-6.992 4.003-.497 3.486-2.498 17.484-2.498 19.982 0 2.493 6.985 10.486 9.49 11.486 2.492 1.001-.504 6.993 2.492 8.49 3.008 1.492 1.006 6.496-.498 5.992-1.497-.497 1.001 6.508-1.994 8.994-3.002 2.492-.504 9 4.5 13.5 4.996 4.487 4.996 11.486 4.996 15.482 0 3.997 3.99 4.5 3.99 9.485 0 0-5.973 21.789-10.85 20.857-1.044 5.444-2.36 13.991-3.568 18.636-1.491 5.796-2.611 10.844.755 11.222 3.367.377 10.1 8.037 16.639 16.275a28.961 28.961 0 0 1 3.788 6.262 30.35 30.35 0 0 1 7.344.491c4.971.932 6.211 4.972 6.211 7.465 0 2.492 8.414 1.56 9.968 1.24 1.19-.233-.34-3.745 3.895-5.105-2.542-3.612-9.143-7.999-14.555-8.484-6.356-.56-9.358-10.107-8.791-14.4.56-4.305-4.676-8.05-4.676-11.781 0-3.751-3.744-3.934-8.036-5.998-4.31-2.058.925-14.772 1.491-20.203.554-5.419 9.54-20.952 6.929-25.81-2.624-4.866 9.156-8.604 10.66-3.192 1.491 5.432 2.051 8.05 9.54 7.679 7.476-.372 7.476 5.425 13.46 7.118.353.088.592.258.888.384.038-.12.069-.277.12-.384 1.617-4.311-1.624-4.311-1.624-9.718"/><path stroke="#111212" stroke-width="1.573" d="M426.914 591.824c0-5.4-5.406-5.4-.529-11.334 4.846-5.948 12.403-10.272 17.268-8.642 4.858 1.618 14.574-2.706 17.28.535.478.586 1.038 1 1.611 1.385 4.273-4.79 1.164-8.774 1.63-14.344.535-6.482-4.864-12.423-8.647-13.5-3.775-1.082 2.7-12.97-1.082-15.123-3.776-2.159-6.469-5.942-9.175-9.183-2.7-3.241-10.792-2.152-11.875.535-1.082 2.706-6.481 4.33-8.105 2.171-1.61-2.17-4.858-2.718-9.181.535-4.317 3.248-10.257 9.177-11.334 4.324-1.082-4.859 3.241-4.324 3.241-9.73 0-5.394 2.7-8.1 1.07-13.494-1.61-5.4-7.016.535-8.64-3.24-1.605-3.783.013-8.107-1.076-9.718-.334-.51-1.315-1.442-2.473-2.467-.932.472-1.75 1.02-2.077 1.825-1 2.498-9.483 3.002-11.484 6.495-2.002 3.5-7.999 3.002-9.496 3.002-1.504 0-6.495.497-6.992 4.003-.497 3.486-2.498 17.484-2.498 19.982 0 2.493 6.985 10.486 9.49 11.486 2.492 1.001-.504 6.993 2.492 8.49 3.008 1.492 1.006 6.496-.498 5.992-1.497-.497 1.001 6.508-1.994 8.994-3.002 2.492-.504 9 4.5 13.5 4.996 4.487 4.996 11.486 4.996 15.482 0 3.997 3.99 4.5 3.99 9.485 0 0-5.973 21.789-10.85 20.857-1.044 5.444-2.36 13.991-3.568 18.636-1.491 5.796-2.611 10.844.755 11.222 3.367.377 10.1 8.037 16.639 16.275a28.961 28.961 0 0 1 3.788 6.262 30.35 30.35 0 0 1 7.344.491c4.971.932 6.211 4.972 6.211 7.465 0 2.492 8.414 1.56 9.968 1.24 1.19-.233-.34-3.745 3.895-5.105-2.542-3.612-9.143-7.999-14.555-8.484-6.356-.56-9.358-10.107-8.791-14.4.56-4.305-4.676-8.05-4.676-11.781 0-3.751-3.744-3.934-8.036-5.998-4.31-2.058.925-14.772 1.491-20.203.554-5.419 9.54-20.952 6.929-25.81-2.624-4.866 9.156-8.604 10.66-3.192 1.491 5.432 2.051 8.05 9.54 7.679 7.476-.372 7.476 5.425 13.46 7.118.353.088.592.258.888.384.038-.12.069-.277.12-.384 1.617-4.311-1.624-4.311-1.624-9.718z"/><path fill="#1D1F1F" d="M629.733 683.473c-3.36.743-11.22.372-11.22-2.995 0-3.368-7.111-9.724-11.598-9.724-4.493 0-9.735 8.975-10.1 12.72-.371 3.744-7.488 3.367-6.74 8.597.296 2.07-1.032 2.951-2.743 3.493 1.145 4.519 1.787 7.779.126 7.363-2.99-.749-3.745 2.996-8.225 2.996-1.542 0-4.128-3.877-6.86-8.93-.081-.013-.176-.051-.251-.051-2.99 0-9.723 10.473-11.22 17.585-1.498 7.111-8.225 4.865-18.331 5.607-10.1.756-5.991 11.228-8.232 16.1-2.051 4.443-13.145-3.594-18.759-4.733.944 4.009 2.266 8.093 3.789 8.093 2.995 0 7.488 7.484 10.477 5.23 2.996-2.234 11.963 0 16.456-1.491 4.493-1.485 5.242-5.236 12.73-5.236 7.477 0 4.488 5.991 11.963 2.246 7.489-3.744 11.982-.749 11.22-7.483-.742-6.728 4.494-6.728 3.745-11.97-.743-5.243 8.244-1.498 7.476-11.235-.736-9.724 13.48-8.22 19.457-8.22 1.385 0 3.537.819 5.991 2.034 4.43-2.184 10.78-5.06 7.854-7.647-3.36-2.99 10.106-.378 11.598-4.865 1.497-4.494-5.236-8.239-8.603-7.484zm-191.347 14.394c.188-8.415-7.86-7.47-9.73-13.267-1.874-5.803-5.052-2.442-6.179-6.18-.163-.554-.522-1.171-.969-1.807-4.235 1.36-2.706 4.872-3.895 5.104-1.554.321-9.968 1.253-9.968-1.24 0-2.492-1.24-6.532-6.211-7.464a30.35 30.35 0 0 0-7.344-.49c2.996 6.658 3.373 13.707 3.505 19.365.202 7.483 11.227 19.46 12.913 24.319 1.687 4.865 4.865 6.363 12.164 11.606 7.294 5.236 21.51 13.65 24.31 12.348 2.806-1.316-4.298-13.664-8.414-17.956-4.115-4.311-.377-15.917-.182-24.338z"/><path stroke="#111212" stroke-width="1.573" d="M629.733 683.473c-3.36.743-11.22.372-11.22-2.995 0-3.368-7.111-9.724-11.598-9.724-4.493 0-9.735 8.975-10.1 12.72-.371 3.744-7.488 3.367-6.74 8.597.296 2.07-1.032 2.951-2.743 3.493 1.145 4.519 1.787 7.779.126 7.363-2.99-.749-3.745 2.996-8.225 2.996-1.542 0-4.128-3.877-6.86-8.93-.081-.013-.176-.051-.251-.051-2.99 0-9.723 10.473-11.22 17.585-1.498 7.111-8.225 4.865-18.331 5.607-10.1.756-5.991 11.228-8.232 16.1-2.051 4.443-13.145-3.594-18.759-4.733.944 4.009 2.266 8.093 3.789 8.093 2.995 0 7.488 7.484 10.477 5.23 2.996-2.234 11.963 0 16.456-1.491 4.493-1.485 5.242-5.236 12.73-5.236 7.477 0 4.488 5.991 11.963 2.246 7.489-3.744 11.982-.749 11.22-7.483-.742-6.728 4.494-6.728 3.745-11.97-.743-5.243 8.244-1.498 7.476-11.235-.736-9.724 13.48-8.22 19.457-8.22 1.385 0 3.537.819 5.991 2.034 4.43-2.184 10.78-5.06 7.854-7.647-3.36-2.99 10.106-.378 11.598-4.865 1.497-4.494-5.236-8.239-8.603-7.484zm-191.347 14.394c.188-8.415-7.86-7.47-9.73-13.267-1.874-5.803-5.052-2.442-6.179-6.18-.163-.554-.522-1.171-.969-1.807-4.235 1.36-2.706 4.872-3.895 5.104-1.554.321-9.968 1.253-9.968-1.24 0-2.492-1.24-6.532-6.211-7.464a30.35 30.35 0 0 0-7.344-.49c2.996 6.658 3.373 13.707 3.505 19.365.202 7.483 11.227 19.46 12.913 24.319 1.687 4.865 4.865 6.363 12.164 11.606 7.294 5.236 21.51 13.65 24.31 12.348 2.806-1.316-4.298-13.664-8.414-17.956-4.115-4.311-.377-15.917-.182-24.338z"/><path fill="#1D1F1F" d="M579.233 705.923c4.48 0 5.236-3.745 8.225-2.996 1.661.416 1.02-2.844-.126-7.363-2.662.843-6.236.824-6.236 2.87 0 3.291-5.664-1.221-8.722-1.442 2.73 5.054 5.317 8.931 6.859 8.931"/><path stroke="#111212" stroke-width="1.573" d="M579.233 705.923c4.48 0 5.236-3.745 8.225-2.996 1.661.416 1.02-2.844-.126-7.363-2.662.843-6.236.824-6.236 2.87 0 3.291-5.664-1.221-8.722-1.442 2.73 5.054 5.317 8.931 6.859 8.931zM799.2 317.557c0-3.744-8.23-3.002-8.602-6.369-.378-3.367-5.985-1.485-11.591 2.625-5.614 4.11-7.489 4.858-5.242 8.974 2.246 4.116 5.607.378 7.104-3.738 1.498-4.116 5.248 5.985 1.875 12.72-3.372 6.74.428 16.225 4.859 15.337 3.744-.742 8.608-14.217 14.221-21.33 5.607-7.105-2.624-4.493-2.624-8.219zm25.814-14.601c-1.498 4.122-5.985 2.253-11.97 3.373-5.984 1.12-6.191 15.395-1.868 16.836 3.36 1.12 5.984 1.12 7.104-3.367 1.12-4.488 7.111-5.985 10.856-4.122 3.738 1.881 8.602-5.614 8.602-11.222 0-5.614-11.227-5.614-12.724-1.498zm82.304-97.282c-3.738 1.876-6.362 13.475-2.24 16.836 4.11 3.367-6.733 9.736-6.368 16.842.377 7.112-6.734 7.112-7.86 12.342-1.12 5.249-5.23 4.122-11.592 8.98-6.35 4.866-9.728-.748-8.23-4.109 1.497-3.373-9.723 1.87-9.358 10.108.384 8.226-10.465 8.968-7.854 12.713 2.624 3.751-8.218 5.979-7.86 2.612.384-3.36-6.733-1.48-15.323 1.882-8.602 3.367-13.85-3.745-18.708 1.12-4.865 4.871-13.102 13.475-19.458 14.595-6.35 1.12-2.687 8.824 0 7.483 4.493-2.253 11.604 0 13.85-3.373 2.24-3.367 20.566-7.477 31.786-7.855 11.22-.377 4.493 5.23 5.242 11.228.749 5.986 10.106 4.865 14.964-.749 4.865-5.614 8.603-5.249 4.487-8.616-4.115-3.36.755-6.356 3.75-1.863 2.984 4.488 12.341 4.865 16.079-1.12 3.744-5.992 4.864 1.12 9.351.743 4.493-.372 7.111-11.593 7.489-7.483.377 4.116 7.482 2.995 11.969-1.863 4.493-4.872.377-13.475 3.367-17.963 2.989-4.487 5.984-13.846 2.989-19.46-2.99-5.607 6.74-9.352 11.597-13.846 4.871-4.487-5.607-26.93-5.984-33.671-.371-6.735-12.347 2.618-16.085 4.487zm68.838-51.256c-2.618-3.36-7.105 1.876-12.718 2.99-5.613 1.12-23.195-13.463-27.689-20.203-4.493-6.728-11.969-1.114-8.224 3.745 3.744 4.865-.762 6.356-.762 13.097 0 6.728-4.48 6.728-3.731 11.222.748 4.487-5.991 3.744-10.484 4.487-4.48.755.384 5.249-4.858 7.496-5.236 2.24-4.865 5.979-2.247 7.477 2.624 1.491.755 6.356 0 9.723-.749 3.368 3.367.756 6.368-2.618 2.99-3.36 6.11 1.624 6.734-1.498.749-3.732-7.86-5.607-7.489-9.358.378-3.726 5.985 1.126 10.478-1.114 4.493-2.247 13.467-.372 19.074 4.487 5.613 4.865 7.117 3.002 8.237-2.99 1.12-5.985 9.722-8.603 18.325-8.603 8.608 0 9.351-4.129 6.733-5.992-2.611-1.863 14.222-12.72 13.845-15.709-.372-2.995-8.974 6.735-11.592 3.361z"/><path fill="#1D1F1F" d="M518.626 498.269c-4.864 0-17.217 7.105-12.346 17.2 4.864 10.102 20.949 3.374 21.32-1.12.377-4.487 7.709-11.549 6.74-14.96-.75-2.618-10.843-1.12-15.714-1.12zm133.554-50.885c-4.11 14.966 5.475 22.575 6.733 21.7 3.738-2.618 19.08-34.797 15.714-39.285-3.367-4.487-18.332 2.612-22.447 17.585zM835.49 93.06c.384-6.74-7.488-4.488-10.1-2.618-2.618 1.869-10.1 0-12.346 4.487-2.247 4.487-5.985 1.87-11.22 2.625-5.23.748-12.725-1.505-12.347-4.872.377-3.367-3.002-6.728-2.618-10.844.371-4.116-5.236-2.247-8.986-5.991-3.744-3.739-11.214-6.357-12.718-5.608-1.492.743-5.985-4.116-12.347-4.494-6.356-.384-5.607-4.494-4.858-7.112.743-2.612-5.242-10.85-6.368-15.344-1.12-4.48-5.6-5.23-7.476-14.96-1.87-9.724-7.111-7.106-5.985-11.593 1.12-4.487-6.355-6.74-8.23-9.365-1.87-2.618-9.73-1.498-15.343-4.481-5.613-2.99-8.973-.749-14.21-2.247-5.235-1.498-17.216 1.498-18.702 1.498-1.497 0-10.855-1.876-16.084 5.23-5.242 7.118-1.127 6.74 1.114 6.74 2.246 0 3.366 6.735 3.744 8.982.384 2.24-3.744 5.614-5.613 6.356-1.863.756-7.105 8.981-7.854 11.984-.749 2.99-6.733 10.466-5.99 13.09.742 2.619-2.983 5.23-5.608 5.608-2.617.384-9.722 5.614-11.969 6.363-2.246.75-11.22-.749-12.346-3.367-.353-.85-1.454-1.548-2.82-2.108l-10.118 20.24-.818 6.52s-6.507 1.637-1.63 6.52c4.89 4.89 5.701.813 13.045.813 7.325 0 10.59 5.708 12.227 1.636 1.623-4.072 8.143-6.52 12.214-1.636 4.078 4.89 17.123 13.053 16.311 17.118-.824 4.079-8.149 3.26-13.038 1.63-4.903-1.63-11.416 3.26-16.299 3.26-4.902 0-10.597 1.637-15.493 6.527-4.896 4.89-4.078 9.78-11.415 10.599-7.331.818-10.591 0-18.74 5.702-8.15 5.708-17.123 3.26-20.37 1.636-3.266-1.636-8.974-2.448-12.24 3.254-3.247 5.702 4.084 8.15 3.266 14.67-.818 6.521-8.961 4.904-15.487 12.23-6.52 7.344-17.117 10.598-22.818 9.786-5.701-.818-17.935-4.072-28.52.812-10.596 4.89-17.94 12.235-22.012 11.417-4.077-.818-4.071-5.721-9.779-4.903-5.707.818-8.955-.818-13.032-3.254-4.084-2.448-7.338 1.63-13.864-3.26-6.519-4.884-17.928-4.072-22.818-4.884-4.89-.818-23.636 0-30.161-.818-6.513-.818-15.48 1.63-16.299-1.63-.812-3.267-5.707-5.715-7.331-13.04-1.63-7.345-5.708-9.794-9.78-10.606-4.083-.818-4.561-5.11-8.148-5.702-1.725-.283-3.801-5.727-9.496-5.727s-25.631-2.322-28.482-6.98c-2.844-4.67 2.85-5.708 2.85-10.365 0-4.658 3.103-10.876.775-12.688-2.335-1.82-6.218-5.967-6.734-9.58-.516-3.637-6.733-8.54-10.88-8.804-4.14-.265-7.495-2.858-11.384-6.219-3.889-3.367-7.514-3.121-9.068-11.656-.1-.56-.27-1.007-.409-1.51-1.56-.17-3.555-.774-4.833-.774-1.013 0-2.221-.837-3.316-1.976-1.02 3.562-4.386 5.337-4.386 8.15 0 3.103-1.297 6.98-5.444 6.98-4.134 0-8.017 3.115-8.281 9.591-.264 6.47 3.625 7.25 1.812 10.102-1.812 2.85-9.326 5.69-11.918 4.399-2.587-1.297-7.502-.522-11.649-1.032-4.14-.516-7.255-5.702-8.545 0-1.297 5.702-9.842 22.525-7.766 24.344 2.07 1.819 3.619 5.954 0 5.954-3.624 0-7.25-.516-9.061-2.335-1.813-1.8-7.747 2.536-11.913 2.335-1.938-.101-10.075 3.55-7.268 4.953 2.807 1.403 2.807 8.138 2.807 10.938 0 2.807 6.173 11.228 5.053 14.035-1.12 2.807-6.734 5.891-6.734 9.535 0 3.65 1.12 7.024-.837 7.867-1.97.844-8.143 3.368-11.232 5.614-3.084 2.241-8.137 2.241-9.817 5.614-1.687 3.361-4.217 6.269-10.1 5.608-5.054-.566-7.577-1.41-11.51 3.36-3.927 4.772-4.764 2.814-7.577 5.055-2.8 2.247-5.607-1.68-7.853-2.518-2.234-.85-5.33 2.518-7.57 2.518s-4.21 3.644-7.01 4.493c-2.814.844-5.62 0-5.62 3.368 0 2.07-.535 4.474-2.07 6.268h.012l1.995 10.983s12 4.002 12.497 8.005c.504 3.997 2.499 16.987 2.499 16.987s-.158.019-.365.038c4.858 3.814 11.528 7.88 11.528 9.352 0 1.687.567 6.734 6.45 9.541 3.738 1.775 7.564 3.67 9.88 5.243.29-.717.479-1.196.479-1.196l4.99-.503s1.472.938 2.863 2.442c1.227-4.047 9.848-8.497 14.341-8.239 4.77.283 15.708 8.988 14.581 12.072-1.114 3.09-8.967 14.311-12.623 15.155-1.372.32-3.405.478-5.393.547-.34 1.844-.78 3.55-.78 4.513 0 2.505 4.492 6.489 6.99 10.983 2.505 4.5-3.995 7.495-7.488 4.5-3.499-2.996-4.99 2.995-3.002 5.488 2.002 2.505 1.007 9.503 4.5 10 3.492.498 6.488 7.49 10.49 7.49 3.996 0 7.501 6.495 7.501 6.495s5.488 3.5 5.488 5.5c0 .233-.095.492-.246.762 4.355-.44 7.243-.598 7.753-2.398.566-1.963 6.173-1.963 10.1 1.964 3.933 3.927 19.93 14.029 25.813 18.8 5.903 4.77 19.64 10.094 24.41 9.817 4.777-.277 9.264 3.374 16.557 3.09a28.1 28.1 0 0 1 2.901.064c1.038-1.096 2.788-1.12 4.122-3.128 1.995-2.996 5.003 2.504 4.002 6.495-.466 1.856-.05 3.92.711 5.557.995-1.422 2.027-3.317 2.85-5.343 2.53-6.174 6.457-5.891 8.987-7.855 2.524-1.964 5.047-1.12 10.377 1.68 5.028 2.65 7.073-2.926 14.606 3.99 1.567-.698 3.562-1.522 4.43-1.522 1.491 0 3.493-3.002 5.99-5.501 2.493-2.499 1.996-5.5 4.997-4.997 2.996.497 4.5-3.487 10.988-6.986 6.494-3.5 11.988 2.001 14.99-.497 2.989-2.505 6.487-3.506 6.487-1.007 0 2.504 4.003 5.5 5.003 8.49.894 2.687 6.148 3.77 7.256 3.952.944-.497 1.705-.938 2.133-1.246 3.084-2.247 8.414.277 8.414 3.644s.283 7.011 2.813 7.011c2.523 0 5.047 0 5.047 6.174 0 6.175 2.246 13.192-3.084 18.53-5.336 5.324-11.51 14.865-10.383 17.666 1.12 2.813-1.687 8.144 2.246 6.18 3.927-1.964 12.907 0 11.497 2.24-1.403 2.254.284 10.108 3.927 10.385 3.65.29 5.903 2.247 4.77 5.614-1.12 3.367-3.083 8.415 0 8.415 3.09 0 7.577 0 7.017 3.373-.56 3.367 2.246 6.458 7.853 4.204 3.304-1.315 4.946-2.51 5.695-1.183 2.234-.075 2.392 5.004 6.25 5.967 3.989.994 1.994-8.497.496-10.001-1.504-1.498.497-7.987 1.995-6.489 1.498 1.498 5.985 0 8.49-3.002 2.497-2.99 7.494 2.505 9.495-.994 2.001-3.493 6.488 2.498 10.988 0 4.493-2.493 6.5 2.001 8.489-1.498 1.994-3.5 8.495-7.993 9.993-6.495 1.497 1.498 2.504 4.5 10.484 5.5 8.004.995 3.498 4.991 3.498 7.49 0 2.505 8.993 8.994 12.486 9.49.648.101 1.554.876 2.599 2.078 2.429-1.19 6.764.799 7.727-2.065 1.12-3.373 5.23-2.448 6.91.365 1.686 2.801 3.555 3.367 7.3 0 3.744-3.367 5.606 3.367 3.366 5.25-2.246 1.856-.742 7.652 2.807 11.026 3.549 3.367 4.109-2.058 3.366-5.419-.748-3.367 5.985-6.74 17.772-10.662 11.78-3.933 24.498-12.543 24.687-14.406.188-1.87 8.42 3.361 12.346.371 3.927-2.989 18.143-3.367 21.887-3.555 3.744-.183 3.549-3.374 7.482-6.54 3.92-3.19 2.99-4.688 7.482-5.991 4.487-1.31 7.287-5.432 7.287-7.679 0-2.246 8.42-2.99 8.609-5.418.189-2.43 6.368-3.179 6.368-6.175 0-2.983 3.732-2.435 5.425-4.682 1.686-2.24-1.315-8.786 1.686-9.724 2.977-.938-1.132-4.494-1.686-6.168-.566-1.686 5.613-2.07 8.778-4.122 3.185-2.058 5.249-5.243 5.802-8.792.567-3.556 5.796-6.728 8.225-7.672 2.442-.926 3.373-5.98 2.624-10.284-.742-4.305 4.311-3.191 2.064-4.872-2.246-1.68.932-6.356 5.419-7.66 4.486-1.308-2.807-3.373-5.236-1.497-2.43 1.87-5.053-5.425-7.3-2.624-2.234 2.807-8.596-1.687-4.487-2.612 4.116-.944 10.478-5.614 13.291-6.552 2.8-.944-4.128-7.112-7.677-6.923-3.55.182-7.476-8.232-11.22-8.232-3.745 0 2.8-2.619 7.11-.372 4.298 2.235 9.345 4.116 11.22 2.235 1.87-1.863-7.293-9.34-10.66-11.965-3.373-2.624-.195-6.174-2.246-7.678-2.058-1.485-6.551-11.027-8.049-15.332-1.491-4.31-9.35-5.053-11.22-7.854-1.863-2.813.189-9.359 5.99-11.788 5.797-2.43 3.361-7.3 5.985-6.74 2.625.566 4.852-.56 6.923-4.86 2.057-4.298 5.607-1.686 7.664-3.933 2.064-2.24 11.227-2.052 14.398-4.299 3.185-2.24-2.989-9.17-7.293-8.05-4.292 1.121-9.345-.56-12.347-5.047-2.989-4.494-10.842 8.232-16.833 11.04-5.985 2.806-9.911-5.055-7.86-10.102 2.064-5.054-4.67-4.865-13.09-4.494-8.419.378-5.235-14.966-.182-15.709 5.054-.749 12.53 4.67 15.714-4.676 3.178-9.359 7.658-2.064 14.775-10.29 7.111-8.232 15.33-13.286 21.51-8.421 6.167 4.858-6.545 12.537-8.603 17.207-2.058 4.676 1.863 6.18-1.869 9.723-3.744 3.569 1.485 4.494 8.785-.182 7.293-4.664 16.267-10.284 23.384-13.085 1.894-.749 3.99-.944 6.104-.774 1.001-2.712 2.178-4.871 3.568-5.563 4.89-2.449 21.189-9.78 23.637-13.047 2.447-3.254 4.89-8.956 8.149-8.956 3.253 0 3.253 3.254 8.15 3.254 4.895 0 10.59 1.63 8.148-2.442-2.448-4.085-.805-4.085 4.89-4.903 5.701-.806 4.89-6.508 8.974-6.508 4.065 0 3.247-9.787 7.324-9.787 4.078 0 5.714 5.715 10.604 4.079.925-.321 2.14-.07 3.474.503a92.117 92.117 0 0 1 3.09-2.322c-.491-5.104.1-9.686-.894-12.097-1.875-4.493 0-7.854-.762-10.472-.742-2.625-1.12-8.981 1.882-8.981 2.99 0 6.733-7.49 10.465-4.865 3.744 2.624 11.22 3.367 11.22 0 0-3.368 5.242-3.745 5.991-8.239.743-4.487 6.356-5.608 7.489-9.724 1.113-4.11 2.989-13.846 6.727-16.086 3.744-2.247-.75-3.733-.372-10.473z"/><path stroke="#111212" stroke-width="1.573" d="M518.626 498.269c-4.864 0-17.217 7.105-12.346 17.2 4.864 10.102 20.949 3.374 21.32-1.12.377-4.487 7.709-11.549 6.74-14.96-.75-2.618-10.843-1.12-15.714-1.12zm133.554-50.885c-4.11 14.966 5.475 22.575 6.733 21.7 3.738-2.618 19.08-34.797 15.714-39.285-3.367-4.487-18.332 2.612-22.447 17.585zM835.49 93.06c.384-6.74-7.488-4.488-10.1-2.618-2.618 1.869-10.1 0-12.346 4.487-2.247 4.487-5.985 1.87-11.22 2.625-5.23.748-12.725-1.505-12.347-4.872.377-3.367-3.002-6.728-2.618-10.844.371-4.116-5.236-2.247-8.986-5.991-3.744-3.739-11.214-6.357-12.718-5.608-1.492.743-5.985-4.116-12.347-4.494-6.356-.384-5.607-4.494-4.858-7.112.743-2.612-5.242-10.85-6.368-15.344-1.12-4.48-5.6-5.23-7.476-14.96-1.87-9.724-7.111-7.106-5.985-11.593 1.12-4.487-6.355-6.74-8.23-9.365-1.87-2.618-9.73-1.498-15.343-4.481-5.613-2.99-8.973-.749-14.21-2.247-5.235-1.498-17.216 1.498-18.702 1.498-1.497 0-10.855-1.876-16.084 5.23-5.242 7.118-1.127 6.74 1.114 6.74 2.246 0 3.366 6.735 3.744 8.982.384 2.24-3.744 5.614-5.613 6.356-1.863.756-7.105 8.981-7.854 11.984-.749 2.99-6.733 10.466-5.99 13.09.742 2.619-2.983 5.23-5.608 5.608-2.617.384-9.722 5.614-11.969 6.363-2.246.75-11.22-.749-12.346-3.367-.353-.85-1.454-1.548-2.82-2.108l-10.118 20.24-.818 6.52s-6.507 1.637-1.63 6.52c4.89 4.89 5.701.813 13.045.813 7.325 0 10.59 5.708 12.227 1.636 1.623-4.072 8.143-6.52 12.214-1.636 4.078 4.89 17.123 13.053 16.311 17.118-.824 4.079-8.149 3.26-13.038 1.63-4.903-1.63-11.416 3.26-16.299 3.26-4.902 0-10.597 1.637-15.493 6.527-4.896 4.89-4.078 9.78-11.415 10.599-7.331.818-10.591 0-18.74 5.702-8.15 5.708-17.123 3.26-20.37 1.636-3.266-1.636-8.974-2.448-12.24 3.254-3.247 5.702 4.084 8.15 3.266 14.67-.818 6.521-8.961 4.904-15.487 12.23-6.52 7.344-17.117 10.598-22.818 9.786-5.701-.818-17.935-4.072-28.52.812-10.596 4.89-17.94 12.235-22.012 11.417-4.077-.818-4.071-5.721-9.779-4.903-5.707.818-8.955-.818-13.032-3.254-4.084-2.448-7.338 1.63-13.864-3.26-6.519-4.884-17.928-4.072-22.818-4.884-4.89-.818-23.636 0-30.161-.818-6.513-.818-15.48 1.63-16.299-1.63-.812-3.267-5.707-5.715-7.331-13.04-1.63-7.345-5.708-9.794-9.78-10.606-4.083-.818-4.561-5.11-8.148-5.702-1.725-.283-3.801-5.727-9.496-5.727s-25.631-2.322-28.482-6.98c-2.844-4.67 2.85-5.708 2.85-10.365 0-4.658 3.103-10.876.775-12.688-2.335-1.82-6.218-5.967-6.734-9.58-.516-3.637-6.733-8.54-10.88-8.804-4.14-.265-7.495-2.858-11.384-6.219-3.889-3.367-7.514-3.121-9.068-11.656-.1-.56-.27-1.007-.409-1.51-1.56-.17-3.555-.774-4.833-.774-1.013 0-2.221-.837-3.316-1.976-1.02 3.562-4.386 5.337-4.386 8.15 0 3.103-1.297 6.98-5.444 6.98-4.134 0-8.017 3.115-8.281 9.591-.264 6.47 3.625 7.25 1.812 10.102-1.812 2.85-9.326 5.69-11.918 4.399-2.587-1.297-7.502-.522-11.649-1.032-4.14-.516-7.255-5.702-8.545 0-1.297 5.702-9.842 22.525-7.766 24.344 2.07 1.819 3.619 5.954 0 5.954-3.624 0-7.25-.516-9.061-2.335-1.813-1.8-7.747 2.536-11.913 2.335-1.938-.101-10.075 3.55-7.268 4.953 2.807 1.403 2.807 8.138 2.807 10.938 0 2.807 6.173 11.228 5.053 14.035-1.12 2.807-6.734 5.891-6.734 9.535 0 3.65 1.12 7.024-.837 7.867-1.97.844-8.143 3.368-11.232 5.614-3.084 2.241-8.137 2.241-9.817 5.614-1.687 3.361-4.217 6.269-10.1 5.608-5.054-.566-7.577-1.41-11.51 3.36-3.927 4.772-4.764 2.814-7.577 5.055-2.8 2.247-5.607-1.68-7.853-2.518-2.234-.85-5.33 2.518-7.57 2.518s-4.21 3.644-7.01 4.493c-2.814.844-5.62 0-5.62 3.368 0 2.07-.535 4.474-2.07 6.268h.012l1.995 10.983s12 4.002 12.497 8.005c.504 3.997 2.499 16.987 2.499 16.987s-.158.019-.365.038c4.858 3.814 11.528 7.88 11.528 9.352 0 1.687.567 6.734 6.45 9.541 3.738 1.775 7.564 3.67 9.88 5.243.29-.717.479-1.196.479-1.196l4.99-.503s1.472.938 2.863 2.442c1.227-4.047 9.848-8.497 14.341-8.239 4.77.283 15.708 8.988 14.581 12.072-1.114 3.09-8.967 14.311-12.623 15.155-1.372.32-3.405.478-5.393.547-.34 1.844-.78 3.55-.78 4.513 0 2.505 4.492 6.489 6.99 10.983 2.505 4.5-3.995 7.495-7.488 4.5-3.499-2.996-4.99 2.995-3.002 5.488 2.002 2.505 1.007 9.503 4.5 10 3.492.498 6.488 7.49 10.49 7.49 3.996 0 7.501 6.495 7.501 6.495s5.488 3.5 5.488 5.5c0 .233-.095.492-.246.762 4.355-.44 7.243-.598 7.753-2.398.566-1.963 6.173-1.963 10.1 1.964 3.933 3.927 19.93 14.029 25.813 18.8 5.903 4.77 19.64 10.094 24.41 9.817 4.777-.277 9.264 3.374 16.557 3.09a28.1 28.1 0 0 1 2.901.064c1.038-1.096 2.788-1.12 4.122-3.128 1.995-2.996 5.003 2.504 4.002 6.495-.466 1.856-.05 3.92.711 5.557.995-1.422 2.027-3.317 2.85-5.343 2.53-6.174 6.457-5.891 8.987-7.855 2.524-1.964 5.047-1.12 10.377 1.68 5.028 2.65 7.073-2.926 14.606 3.99 1.567-.698 3.562-1.522 4.43-1.522 1.491 0 3.493-3.002 5.99-5.501 2.493-2.499 1.996-5.5 4.997-4.997 2.996.497 4.5-3.487 10.988-6.986 6.494-3.5 11.988 2.001 14.99-.497 2.989-2.505 6.487-3.506 6.487-1.007 0 2.504 4.003 5.5 5.003 8.49.894 2.687 6.148 3.77 7.256 3.952.944-.497 1.705-.938 2.133-1.246 3.084-2.247 8.414.277 8.414 3.644s.283 7.011 2.813 7.011c2.523 0 5.047 0 5.047 6.174 0 6.175 2.246 13.192-3.084 18.53-5.336 5.324-11.51 14.865-10.383 17.666 1.12 2.813-1.687 8.144 2.246 6.18 3.927-1.964 12.907 0 11.497 2.24-1.403 2.254.284 10.108 3.927 10.385 3.65.29 5.903 2.247 4.77 5.614-1.12 3.367-3.083 8.415 0 8.415 3.09 0 7.577 0 7.017 3.373-.56 3.367 2.246 6.458 7.853 4.204 3.304-1.315 4.946-2.51 5.695-1.183 2.234-.075 2.392 5.004 6.25 5.967 3.989.994 1.994-8.497.496-10.001-1.504-1.498.497-7.987 1.995-6.489 1.498 1.498 5.985 0 8.49-3.002 2.497-2.99 7.494 2.505 9.495-.994 2.001-3.493 6.488 2.498 10.988 0 4.493-2.493 6.5 2.001 8.489-1.498 1.994-3.5 8.495-7.993 9.993-6.495 1.497 1.498 2.504 4.5 10.484 5.5 8.004.995 3.498 4.991 3.498 7.49 0 2.505 8.993 8.994 12.486 9.49.648.101 1.554.876 2.599 2.078 2.429-1.19 6.764.799 7.727-2.065 1.12-3.373 5.23-2.448 6.91.365 1.686 2.801 3.555 3.367 7.3 0 3.744-3.367 5.606 3.367 3.366 5.25-2.246 1.856-.742 7.652 2.807 11.026 3.549 3.367 4.109-2.058 3.366-5.419-.748-3.367 5.985-6.74 17.772-10.662 11.78-3.933 24.498-12.543 24.687-14.406.188-1.87 8.42 3.361 12.346.371 3.927-2.989 18.143-3.367 21.887-3.555 3.744-.183 3.549-3.374 7.482-6.54 3.92-3.19 2.99-4.688 7.482-5.991 4.487-1.31 7.287-5.432 7.287-7.679 0-2.246 8.42-2.99 8.609-5.418.189-2.43 6.368-3.179 6.368-6.175 0-2.983 3.732-2.435 5.425-4.682 1.686-2.24-1.315-8.786 1.686-9.724 2.977-.938-1.132-4.494-1.686-6.168-.566-1.686 5.613-2.07 8.778-4.122 3.185-2.058 5.249-5.243 5.802-8.792.567-3.556 5.796-6.728 8.225-7.672 2.442-.926 3.373-5.98 2.624-10.284-.742-4.305 4.311-3.191 2.064-4.872-2.246-1.68.932-6.356 5.419-7.66 4.486-1.308-2.807-3.373-5.236-1.497-2.43 1.87-5.053-5.425-7.3-2.624-2.234 2.807-8.596-1.687-4.487-2.612 4.116-.944 10.478-5.614 13.291-6.552 2.8-.944-4.128-7.112-7.677-6.923-3.55.182-7.476-8.232-11.22-8.232-3.745 0 2.8-2.619 7.11-.372 4.298 2.235 9.345 4.116 11.22 2.235 1.87-1.863-7.293-9.34-10.66-11.965-3.373-2.624-.195-6.174-2.246-7.678-2.058-1.485-6.551-11.027-8.049-15.332-1.491-4.31-9.35-5.053-11.22-7.854-1.863-2.813.189-9.359 5.99-11.788 5.797-2.43 3.361-7.3 5.985-6.74 2.625.566 4.852-.56 6.923-4.86 2.057-4.298 5.607-1.686 7.664-3.933 2.064-2.24 11.227-2.052 14.398-4.299 3.185-2.24-2.989-9.17-7.293-8.05-4.292 1.121-9.345-.56-12.347-5.047-2.989-4.494-10.842 8.232-16.833 11.04-5.985 2.806-9.911-5.055-7.86-10.102 2.064-5.054-4.67-4.865-13.09-4.494-8.419.378-5.235-14.966-.182-15.709 5.054-.749 12.53 4.67 15.714-4.676 3.178-9.359 7.658-2.064 14.775-10.29 7.111-8.232 15.33-13.286 21.51-8.421 6.167 4.858-6.545 12.537-8.603 17.207-2.058 4.676 1.863 6.18-1.869 9.723-3.744 3.569 1.485 4.494 8.785-.182 7.293-4.664 16.267-10.284 23.384-13.085 1.894-.749 3.99-.944 6.104-.774 1.001-2.712 2.178-4.871 3.568-5.563 4.89-2.449 21.189-9.78 23.637-13.047 2.447-3.254 4.89-8.956 8.149-8.956 3.253 0 3.253 3.254 8.15 3.254 4.895 0 10.59 1.63 8.148-2.442-2.448-4.085-.805-4.085 4.89-4.903 5.701-.806 4.89-6.508 8.974-6.508 4.065 0 3.247-9.787 7.324-9.787 4.078 0 5.714 5.715 10.604 4.079.925-.321 2.14-.07 3.474.503a92.117 92.117 0 0 1 3.09-2.322c-.491-5.104.1-9.686-.894-12.097-1.875-4.493 0-7.854-.762-10.472-.742-2.625-1.12-8.981 1.882-8.981 2.99 0 6.733-7.49 10.465-4.865 3.744 2.624 11.22 3.367 11.22 0 0-3.368 5.242-3.745 5.991-8.239.743-4.487 6.356-5.608 7.489-9.724 1.113-4.11 2.989-13.846 6.727-16.086 3.744-2.247-.75-3.733-.372-10.473z"/><path fill="#1D1F1F" d="M731.489 665.511c4.493-5.242-2.995-19.082-2.995-28.05 0-8.988-12.347-6.376-8.974-.762 3.367 5.607-6.356 1.12-7.111 6.734-.743 5.614-7.86 1.126-7.482 5.614.384 4.487-7.476 0-11.22-2.618-3.745-2.619-8.98 7.105-14.594 8.61-5.607 1.497-8.59 13.411-4.864 13.09 4.493-.371 6.733-6.363 11.22-5.979 4.493.365 3.002-4.493 9.358-3.373 6.356 1.126 1.869 20.209 10.484 21.7 8.596 1.499 8.973 6.735 13.083 6.735 4.109 0-.737-11.964-.372-16.087.372-4.122 8.974-.371 13.467-5.614zm-33.673-29.184c1.504 3.745 12.346-2.24 9.357-5.985-2.989-3.739-10.465 3.185-9.357 5.985zm-66.585-7.483c-5.23 6.734-17.74 17.918-16.091 20.958 2.247 4.11 16.09-16.47 22.83-21.33 6.728-4.858 5.608-8.974 3.367-13.468-2.253-4.494-4.87 7.106-10.106 13.84zm44.138-7.106c1.882-.377 6.375 0 6.734-3.744.377-3.739 4.493 6.734 1.126 10.095-3.367 3.38-3.367 12.732 1.875 13.859 5.236 1.12 14.958-16.836 13.46-20.21-1.49-3.373-5.984 2.241-4.857-2.24 1.12-4.494-13.473-16.093-19.08-14.98-5.614 1.134-3.663 18.095.742 17.22zm-20.943-36.295c1.127 5.242 3.745 16.099 11.97 13.468 8.23-2.612-12.781-17.232-11.97-13.468zm23.945-3.361c7.11-1.133 16.833 7.854 15.336 11.221-1.498 3.361.377 14.212 3.744 11.216 3.367-2.977 8.602.749 5.236 5.614-3.367 4.871 5.235 9.73 6.355 15.722 1.12 5.985 4.865 1.12 4.122-3.368-.742-4.493.743-4.122 5.607-7.483 4.87-3.367-.377-8.98-3.367-15.344-2.982-6.357-14.221-4.11-14.221-10.108 0-5.979-8.219-7.854-8.603-11.221-.371-3.367-11.22-6.734-17.576-2.99-6.356 3.745-1.881-6.74-6.362-11.599-4.493-4.865 3.367-11.977 8.609-17.962 5.23-5.98-1.504-16.08-.755-20.574.755-4.488.37-5.986-2.247-4.488-2.612 1.492-13.467-4.487-18.325-1.498-4.864 2.996-.371 27.686-2.624 29.562-2.24 1.863-5.148-4.01-5.99-1.498-1.12 3.36.383 17.207 3.372 17.207 3.002 0 5.242 3.745 3.367 9.73-1.87 5.985 5.607 6.728 12.718 4.11 7.117-2.612 4.493 4.871 11.604 3.75z"/><path stroke="#111212" stroke-width="1.573" d="M731.489 665.511c4.493-5.242-2.995-19.082-2.995-28.05 0-8.988-12.347-6.376-8.974-.762 3.367 5.607-6.356 1.12-7.111 6.734-.743 5.614-7.86 1.126-7.482 5.614.384 4.487-7.476 0-11.22-2.618-3.745-2.619-8.98 7.105-14.594 8.61-5.607 1.497-8.59 13.411-4.864 13.09 4.493-.371 6.733-6.363 11.22-5.979 4.493.365 3.002-4.493 9.358-3.373 6.356 1.126 1.869 20.209 10.484 21.7 8.596 1.499 8.973 6.735 13.083 6.735 4.109 0-.737-11.964-.372-16.087.372-4.122 8.974-.371 13.467-5.614zm-33.673-29.184c1.504 3.745 12.346-2.24 9.357-5.985-2.989-3.739-10.465 3.185-9.357 5.985zm-66.585-7.483c-5.23 6.734-17.74 17.918-16.091 20.958 2.247 4.11 16.09-16.47 22.83-21.33 6.728-4.858 5.608-8.974 3.367-13.468-2.253-4.494-4.87 7.106-10.106 13.84zm44.138-7.106c1.882-.377 6.375 0 6.734-3.744.377-3.739 4.493 6.734 1.126 10.095-3.367 3.38-3.367 12.732 1.875 13.859 5.236 1.12 14.958-16.836 13.46-20.21-1.49-3.373-5.984 2.241-4.857-2.24 1.12-4.494-13.473-16.093-19.08-14.98-5.614 1.134-3.663 18.095.742 17.22zm-20.943-36.295c1.127 5.242 3.745 16.099 11.97 13.468 8.23-2.612-12.781-17.232-11.97-13.468zm23.945-3.361c7.11-1.133 16.833 7.854 15.336 11.221-1.498 3.361.377 14.212 3.744 11.216 3.367-2.977 8.602.749 5.236 5.614-3.367 4.871 5.235 9.73 6.355 15.722 1.12 5.985 4.865 1.12 4.122-3.368-.742-4.493.743-4.122 5.607-7.483 4.87-3.367-.377-8.98-3.367-15.344-2.982-6.357-14.221-4.11-14.221-10.108 0-5.979-8.219-7.854-8.603-11.221-.371-3.367-11.22-6.734-17.576-2.99-6.356 3.745-1.881-6.74-6.362-11.599-4.493-4.865 3.367-11.977 8.609-17.962 5.23-5.98-1.504-16.08-.755-20.574.755-4.488.37-5.986-2.247-4.488-2.612 1.492-13.467-4.487-18.325-1.498-4.864 2.996-.371 27.686-2.624 29.562-2.24 1.863-5.148-4.01-5.99-1.498-1.12 3.36.383 17.207 3.372 17.207 3.002 0 5.242 3.745 3.367 9.73-1.87 5.985 5.607 6.728 12.718 4.11 7.117-2.612 4.493 4.871 11.604 3.75z"/><path fill="#1D1F1F" d="M1065.188 805.445c-5.979-3.75-11.22-6.362-3.745.743 7.489 7.112 3.455 13.141 7.86 11.983 7.105-1.869 1.87-8.98-4.115-12.726zm-12.718 14.218c0 3.36-5.978 5.243-15.342 8.975-9.339 3.738-26.33-4.286-26.934 1.12-.365 3.373 10.484 9.365 20.578 9.365 10.1 0 26.19-10.108 26.19-13.097 0-2.99 6.357-8.232 3.739-11.228-2.612-2.99-8.231 1.498-8.231 4.865zm-21.327 66.6c-2.611-1.127-9.345-5.614-8.98-8.604.378-2.99-7.476-2.618-12.711-5.985-5.236-3.373-3.367-14.217-8.98-16.842-5.614-2.624-9.735-10.85-3.002-10.479 6.733.378 7.866-3.367 2.624-8.226-5.236-4.865-24.316-6.734-25.07-13.84-.743-7.118-34.781-23.953-49.746-27.327-2.662-.591-5.865-1.567-9.351-2.738v79.855c3.467 2.329 7.784 4.198 13.46 4.462 16.456.743 12.353-8.61 15.336-8.61 3.002 0 4.122-5.236 7.489-9.352 3.366-4.11 17.96-.755 26.562 5.979 8.602 6.74 18.696 26.572 27.676 24.703 8.986-1.87 18.337 5.242 26.568 4.858 8.238-.377.743-6.727-1.875-7.854z"/><path stroke="#111212" stroke-width="1.573" d="M1065.188 805.445c-5.979-3.75-11.22-6.362-3.745.743 7.489 7.112 3.455 13.141 7.86 11.983 7.105-1.869 1.87-8.98-4.115-12.726zm-12.718 14.218c0 3.36-5.978 5.243-15.342 8.975-9.339 3.738-26.33-4.286-26.934 1.12-.365 3.373 10.484 9.365 20.578 9.365 10.1 0 26.19-10.108 26.19-13.097 0-2.99 6.357-8.232 3.739-11.228-2.612-2.99-8.231 1.498-8.231 4.865zm-21.327 66.6c-2.611-1.127-9.345-5.614-8.98-8.604.378-2.99-7.476-2.618-12.711-5.985-5.236-3.373-3.367-14.217-8.98-16.842-5.614-2.624-9.735-10.85-3.002-10.479 6.733.378 7.866-3.367 2.624-8.226-5.236-4.865-24.316-6.734-25.07-13.84-.743-7.118-34.781-23.953-49.746-27.327-2.662-.591-5.865-1.567-9.351-2.738v79.855c3.467 2.329 7.784 4.198 13.46 4.462 16.456.743 12.353-8.61 15.336-8.61 3.002 0 4.122-5.236 7.489-9.352 3.366-4.11 17.96-.755 26.562 5.979 8.602 6.74 18.696 26.572 27.676 24.703 8.986-1.87 18.337 5.242 26.568 4.858 8.238-.377.743-6.727-1.875-7.854z"/><path fill="#1D1F1F" d="M157.988 632.966c-3.367.372-2.618 7.106-4.493 11.965-1.87 4.871-1.486 9.724-.743 16.835.743 7.119 0 14.596 6.362 18.712 7.3 4.726 19.074-7.484 19.458-17.963.365-10.472-17.759-29.863-20.584-29.549"/><path stroke="#111212" stroke-width="1.573" d="M157.988 632.966c-3.367.372-2.618 7.106-4.493 11.965-1.87 4.871-1.486 9.724-.743 16.835.743 7.119 0 14.596 6.362 18.712 7.3 4.726 19.074-7.484 19.458-17.963.365-10.472-17.759-29.863-20.584-29.549z"/><path fill="#1D1F1F" d="M1168.347 866.236c-2.807 6.18 8.42 16.842 10.1 17.12 1.68.282-7.93-21.871-10.1-17.12zm9.817 24.98c.56 1.404 7.86 8.138 11.503 5.614 3.65-2.53-12.46-8.018-11.503-5.614zm-23.007-12.348c1.126 5.62 9.54 8.981 12.913 7.017 3.36-1.963-14.065-12.82-12.913-7.017zm2.246-12.065c3.09-1.958-17.368-13.173-17.682-9.541-.277 3.367 14.593 11.51 17.682 9.54zm-42.086-22.45c-.283 1.397 8.696 10.102 10.66 8.704 1.963-1.403-10.15-11.24-10.66-8.704zm-23.938-15.715c-.756 3.373 11.245 21.178 15.707 18.34 8.23-5.23-14.959-21.707-15.707-18.34z"/><path stroke="#111212" stroke-width="1.573" d="M1168.347 866.236c-2.807 6.18 8.42 16.842 10.1 17.12 1.68.282-7.93-21.871-10.1-17.12zm9.817 24.98c.56 1.404 7.86 8.138 11.503 5.614 3.65-2.53-12.46-8.018-11.503-5.614zm-23.007-12.348c1.126 5.62 9.54 8.981 12.913 7.017 3.36-1.963-14.065-12.82-12.913-7.017zm2.246-12.065c3.09-1.958-17.368-13.173-17.682-9.541-.277 3.367 14.593 11.51 17.682 9.54zm-42.086-22.45c-.283 1.397 8.696 10.102 10.66 8.704 1.963-1.403-10.15-11.24-10.66-8.704zm-23.938-15.715c-.756 3.373 11.245 21.178 15.707 18.34 8.23-5.23-14.959-21.707-15.707-18.34z"/><path fill="#1D1F1F" d="M1168.347 866.236c-2.807 6.18 8.42 16.842 10.1 17.12 1.68.282-7.93-21.871-10.1-17.12zm9.817 24.98c.56 1.404 7.86 8.138 11.503 5.614 3.65-2.53-12.46-8.018-11.503-5.614zm-23.007-12.348c1.126 5.62 9.54 8.981 12.913 7.017 3.36-1.963-14.065-12.82-12.913-7.017zm2.246-12.065c3.09-1.958-17.368-13.173-17.682-9.541-.277 3.367 14.593 11.51 17.682 9.54zm-42.086-22.45c-.283 1.397 8.696 10.102 10.66 8.704 1.963-1.403-10.15-11.24-10.66-8.704zm-23.938-15.715c-.756 3.373 11.245 21.178 15.707 18.34 8.23-5.23-14.959-21.707-15.707-18.34z"/><path stroke="#111212" stroke-width="1.573" d="M1168.347 866.236c-2.807 6.18 8.42 16.842 10.1 17.12 1.68.282-7.93-21.871-10.1-17.12zm9.817 24.98c.56 1.404 7.86 8.138 11.503 5.614 3.65-2.53-12.46-8.018-11.503-5.614zm-23.007-12.348c1.126 5.62 9.54 8.981 12.913 7.017 3.36-1.963-14.065-12.82-12.913-7.017zm2.246-12.065c3.09-1.958-17.368-13.173-17.682-9.541-.277 3.367 14.593 11.51 17.682 9.54zm-42.086-22.45c-.283 1.397 8.696 10.102 10.66 8.704 1.963-1.403-10.15-11.24-10.66-8.704zm-23.938-15.715c-.756 3.373 11.245 21.178 15.707 18.34 8.23-5.23-14.959-21.707-15.707-18.34z"/><path fill="#1D1F1F" d="M78.685 254.992c2.806 1.686 2.24 3.933 4.858 3.556 2.152-.303 6.67.667 8.841 2.775 2.304-.56 4.217-.774 4.217-.774s-1.995-12.99-2.499-16.987c-.497-4.003-12.497-8.005-12.497-8.005l-1.995-10.983s-13.99 2.002-16.481 1c-2.498-1-7.998 1.505-10.484-2-2.505-3.5-6.998 2.498-11.49-.498-4.494-3.002-17.489 1-17.992-1.498-.497-2.505 5.493-7.993 8.992-7.495.844.12 2.24.157 3.902.113 1.642-2.644 5.355-8.912 4.462-10.391-1.12-1.87-5.607-.371-8.603 1.87-3.002 2.252-8.602-1.121-9.729 2.252-1.126 3.361-2.611 6.728-5.978 6.728-3.367 0-.755 5.627-4.115 7.112-3.38 1.498-11.233 1.127-11.976 4.494-.742 3.36 8.596 5.608 7.86 9.724-.749 4.122 4.864 8.61 1.498 11.228-2.882 2.24-5.475 5.878-5.23 13.204 2.436 1.567 4.77 2.945 5.928.63 2.001-4.004 12.989 0 12.989-3.5s12-2.499 12-5.992c0-3.5 6.985-11.492 11.479-10.995 4.499.497-.491 8 5.002 10.492 5.494 2.505-2.504 11.492.498 14.991 1.126 1.303 3.303 1.083 5.978.296 2.032-.585 4.36-1.485 6.74-2.266 4.914-4.349 11.59-10.422 13.825-9.081"/><path stroke="#111212" stroke-width="1.573" d="M78.685 254.992c2.806 1.686 2.24 3.933 4.858 3.556 2.152-.303 6.67.667 8.841 2.775 2.304-.56 4.217-.774 4.217-.774s-1.995-12.99-2.499-16.987c-.497-4.003-12.497-8.005-12.497-8.005l-1.995-10.983s-13.99 2.002-16.481 1c-2.498-1-7.998 1.505-10.484-2-2.505-3.5-6.998 2.498-11.49-.498-4.494-3.002-17.489 1-17.992-1.498-.497-2.505 5.493-7.993 8.992-7.495.844.12 2.24.157 3.902.113 1.642-2.644 5.355-8.912 4.462-10.391-1.12-1.87-5.607-.371-8.603 1.87-3.002 2.252-8.602-1.121-9.729 2.252-1.126 3.361-2.611 6.728-5.978 6.728-3.367 0-.755 5.627-4.115 7.112-3.38 1.498-11.233 1.127-11.976 4.494-.742 3.36 8.596 5.608 7.86 9.724-.749 4.122 4.864 8.61 1.498 11.228-2.882 2.24-5.475 5.878-5.23 13.204 2.436 1.567 4.77 2.945 5.928.63 2.001-4.004 12.989 0 12.989-3.5s12-2.499 12-5.992c0-3.5 6.985-11.492 11.479-10.995 4.499.497-.491 8 5.002 10.492 5.494 2.505-2.504 11.492.498 14.991 1.126 1.303 3.303 1.083 5.978.296 2.032-.585 4.36-1.485 6.74-2.266 4.914-4.349 11.59-10.422 13.825-9.081z"/><path fill="#1D1F1F" d="M615.889 861.944c-1.492 3.373-7.854 4.11-11.592 1.492-3.744-2.612-8.375 3.55-5.984 6.734 1.12 1.504 8.974 7.49 18.325 3.002 9.364-4.494 15.713-.384 17.953-5.243 2.253-4.865-17.204-9.352-18.702-5.985zm18.702 18.327c2.253 3.367 8.609 3.367 11.24 5.614 2.617 2.24 11.962 7.112 11.962.75 0-6.364-25.687-10.108-23.202-6.364zm-28.047-104.758c6.733-4.11 8.225-11.977 7.476-19.46-.743-7.477 16.456-7.855 19.08-10.845 2.624-2.99-3.75-7.854-8.602-10.107-4.865-2.24-.756-7.106-4.116-10.095-3.367-2.99-8.98-10.857-4.116-11.222 4.865-.384-3.373-7.112.75-9.359a45.54 45.54 0 0 1 1.868-.956c-2.454-1.215-4.606-2.033-5.99-2.033-5.979 0-20.194-1.505-19.458 8.22.768 9.736-8.219 5.99-7.476 11.234.749 5.242-4.487 5.242-3.744 11.97.761 6.734-3.732 3.739-11.22 7.483-7.476 3.745-4.487-2.246-11.963-2.246-7.489 0-8.238 3.75-12.73 5.236-4.494 1.491-13.461-.743-16.457 1.491-2.989 2.254-7.482-5.23-10.477-5.23-1.523 0-2.845-4.084-3.789-8.093-.534-.107-1.025-.177-1.447-.139-4.858.378-12.907 13.223-8.231 17.591 5.613 5.243 4.122 13.462 6.733 17.578 2.624 4.123 10.862 4.86 10.862 12.72 0 7.855 7.092 20.203 11.969 16.842 4.858-3.367 8.596 1.498 10.094 4.859 1.497 3.367 13.089-2.618 16.84-1.87 3.744.756 15.323 2.996 16.084 7.484.749 4.493 11.226-.378 18.331-2.99 7.105-2.624 2.996-23.947 9.729-28.063zm104.034 96.331a12.002 12.002 0 0 1-4.116 1.737c-.497 1.391-1 2.946-1.862 3.613-1.051.824-2.851-.812-4.129-2.272-7.23 3.002-11.044 11.656-6.022 14.337 4.833 2.574 11.862-4.261 15.883-9.082a55.446 55.446 0 0 0 1.706-2.146c.27-.359.723-.75 1.265-1.14.37-.276.792-.553 1.264-.836-1.176-1.637-2.674-3.23-3.99-4.21zm161.947-94.84c-5.613.378-6.362 10.102-11.22 10.102-4.865 0-11.598 10.107-20.578 13.103-8.974 2.99-9.357-25.81-13.467-31.43-4.115-5.615-26.556-10.108-28.802-3.745-2.247 6.369-10.044 3.002-10.855 8.238-.743 4.859 1.875 3.36 6.733 3.36 4.864 0 4.864 3.746 7.105 8.604 2.252 4.878 15.72 1.498 20.206 1.133 4.493-.384 5.236 5.98-1.12 3.745-6.356-2.247-6.356 2.983-10.849 1.857-4.487-1.12-10.478-.743-7.489 1.869 3.002 2.618 7.854 5.243 7.854 11.228 0 5.991 8.609 4.871 8.609 0 0-4.859 4.493 1.498 13.101 3.738 8.603 2.253 2.625 5.62 11.22 5.992 8.597.384 28.054 6.74 35.536 12.348 7.495 5.614 2.247 9.353 7.111 14.602 4.865 5.23 6.356 11.221-.377 11.221-6.734 0-13.838 6.728-11.97 10.095 1.864 3.374 23.952-1.498 29.18-1.498 3.43 0 6.885 6.093 13.474 10.51v-79.854c-16.204-5.456-38.79-15.52-43.402-15.218zm-294.419 81.573c-.37-4.487-14.964-.378-22.069-3.367-7.11-3.002 7.854-5.608 12.718-8.616 4.865-2.984-2.995-4.11-14.958-.359-11.988 3.732-25.82-8.238-26.197-3.002-.365 5.243-21.698-2.247-26.934-5.98-5.23-3.744-25.436-8.615-29.557-1.497-4.11 7.106-7.671.73-5.979 7.477 1.12 4.487 5.979 1.875 9.345 1.875 3.367 0 1.876 6.363 6.734 7.1 4.864.761 20.961 5.249 22.453 1.882 1.497-3.374 16.462 0 23.938 5.985 7.488 5.979 24.693 6.363 31.433 5.242 6.727-1.126 14.209 4.482 16.827.737 2.624-3.732 7.482 5.991 14.97.384 7.483-5.614-12.346-3.374-12.724-7.861zm197.15-64.353c-9.723-2.996-26.336-.44-24.693 4.487 1.497 4.488 9.35 2.625 17.217 2.625 7.854 0 11.963 5.607 16.085 5.607 4.109 0 1.126-9.73-8.609-12.72zm-80.052 68.469c-10.1-1.492-16.833 5.985-26.94 2.24-10.093-3.732-25.215.076-23.566 3.368 1.497 2.996 10.471 3.373 20.571 3.744 10.1.372 19.086-5.242 25.813-5.607 6.734-.384 14.229-2.247 4.122-3.745zm29.552-63.24c1.497 5.992 12.346 9.353 15.342 4.123 2.989-5.242-17.073-11.064-15.342-4.122zm30.684-46.761c8.224.749 4.474-4.116 4.474-9.36 0-5.235-7.47-.742-7.47-3.366 0-2.612-2.618-13.091-8.608-4.865-5.985 8.232 1.932 28.567 6.727 27.692 4.122-.743-3.36-10.85 4.877-10.101zm-285.816 59.865c-.378-5.236 1.869-10.479 1.869-13.103 0-2.612 1.862-3.732 5.229-2.996 3.373.755 3.002-7.112.377-7.855-2.624-.736-4.109-10.095-10.483-10.095-6.35 0-5.23 5.23-1.486 5.608 3.745.378 5.979 3.374 4.859 5.998-1.12 2.618-2.612-2.624-7.854-2.247-5.242.371-1.869-6.375-7.86-6.74-5.978-.378-4.852-11.222-11.226-11.222-6.356 0-6.727-5.243-2.612-8.981 4.11-3.751-6.362-7.112-6.362-11.606s-6.733-1.863-6.733-5.608c0-3.744-2.99-1.862-6.362-6.356-3.36-4.494-4.859-.384-7.854-3.745-2.989-3.367-7.11-5.236-9.722-4.116-2.618 1.127-8.61-4.865-10.85-10.857-1.787-4.764-19.08-12.713-21.326-19.076-2.246-6.357-8.231-8.987-18.325-8.603-10.1.371-14.09-9.9-16.468-4.872-2.99 6.37 10.849 20.587 17.21 24.325 6.357 3.745 9.723 17.207 17.206 17.963 7.488.742 8.23 24.319 13.844 25.439 5.607 1.126 17.588 19.46 19.451 29.184 1.87 9.73 14.216 14.595 18.331 21.7 4.116 7.112 20.572 16.842 22.818 19.826 2.247 2.995 4.493 9.73 6.369 6.356 1.869-3.36 9.722 0 13.466.384 3.745.378 4.859-13.468 4.494-18.705zm170.958-9.73c5.607.372 4.865 8.604 3.744 13.469-1.126 4.859-3.391 16.42 1.504 14.582 5.979-2.24 9.723-9.723 6.35-12.342-3.373-2.618-2.99-19.082-1.498-23.192 1.498-4.116 11.604-1.12 8.231 5.236-3.36 6.363 6.356 5.608 6.356 12.72 0 7.112 5.613 3.367 11.598 1.498 5.99-1.863 4.877-5.243.749-9.73-4.11-4.488 2.995-10.844-2.612-14.589-5.613-3.745-9.357-9.352-4.122-10.473 5.242-1.126 20.95-10.101 19.08-13.846-1.869-3.745-23.931.75-25.813 7.477-1.863 6.74-17.576-.749-15.707-12.348 1.869-11.587 32.918-13.469 41.898-9.346 8.98 4.11 18.702-6.735 22.069-13.098 3.367-6.362-7.098 1.12-13.473 5.243-6.356 4.11-23.19-.378-31.792-3.373-8.602-2.99-8.23 5.242-15.342 6.363-7.104 1.12-5.613 16.835-8.973 18.698-3.373 1.882-3.373 13.475-10.1 24.338-6.74 10.838 2.24 12.342 7.853 12.713zM358.14 738.845c-.749 3.745 3.36 14.583 7.853 10.108 4.494-4.494-7.123-13.777-7.853-10.108zm140.658 54.995c0-3.361-9.653-1.73-6.733 3.002 2.995 4.852 6.733.371 6.733-3.002zM376.47 771.025c-.742 1.863 3.367 9.353 5.978 7.106 2.624-2.247-3.618-13.028-5.978-7.106z"/><path stroke="#111212" stroke-width="1.573" d="M615.889 861.944c-1.492 3.373-7.854 4.11-11.592 1.492-3.744-2.612-8.375 3.55-5.984 6.734 1.12 1.504 8.974 7.49 18.325 3.002 9.364-4.494 15.713-.384 17.953-5.243 2.253-4.865-17.204-9.352-18.702-5.985zm18.702 18.327c2.253 3.367 8.609 3.367 11.24 5.614 2.617 2.24 11.962 7.112 11.962.75 0-6.364-25.687-10.108-23.202-6.364zm-28.047-104.758c6.733-4.11 8.225-11.977 7.476-19.46-.743-7.477 16.456-7.855 19.08-10.845 2.624-2.99-3.75-7.854-8.602-10.107-4.865-2.24-.756-7.106-4.116-10.095-3.367-2.99-8.98-10.857-4.116-11.222 4.865-.384-3.373-7.112.75-9.359a45.54 45.54 0 0 1 1.868-.956c-2.454-1.215-4.606-2.033-5.99-2.033-5.979 0-20.194-1.505-19.458 8.22.768 9.736-8.219 5.99-7.476 11.234.749 5.242-4.487 5.242-3.744 11.97.761 6.734-3.732 3.739-11.22 7.483-7.476 3.745-4.487-2.246-11.963-2.246-7.489 0-8.238 3.75-12.73 5.236-4.494 1.491-13.461-.743-16.457 1.491-2.989 2.254-7.482-5.23-10.477-5.23-1.523 0-2.845-4.084-3.789-8.093-.534-.107-1.025-.177-1.447-.139-4.858.378-12.907 13.223-8.231 17.591 5.613 5.243 4.122 13.462 6.733 17.578 2.624 4.123 10.862 4.86 10.862 12.72 0 7.855 7.092 20.203 11.969 16.842 4.858-3.367 8.596 1.498 10.094 4.859 1.497 3.367 13.089-2.618 16.84-1.87 3.744.756 15.323 2.996 16.084 7.484.749 4.493 11.226-.378 18.331-2.99 7.105-2.624 2.996-23.947 9.729-28.063zm104.034 96.331a12.002 12.002 0 0 1-4.116 1.737c-.497 1.391-1 2.946-1.862 3.613-1.051.824-2.851-.812-4.129-2.272-7.23 3.002-11.044 11.656-6.022 14.337 4.833 2.574 11.862-4.261 15.883-9.082a55.446 55.446 0 0 0 1.706-2.146c.27-.359.723-.75 1.265-1.14.37-.276.792-.553 1.264-.836-1.176-1.637-2.674-3.23-3.99-4.21zm161.947-94.84c-5.613.378-6.362 10.102-11.22 10.102-4.865 0-11.598 10.107-20.578 13.103-8.974 2.99-9.357-25.81-13.467-31.43-4.115-5.615-26.556-10.108-28.802-3.745-2.247 6.369-10.044 3.002-10.855 8.238-.743 4.859 1.875 3.36 6.733 3.36 4.864 0 4.864 3.746 7.105 8.604 2.252 4.878 15.72 1.498 20.206 1.133 4.493-.384 5.236 5.98-1.12 3.745-6.356-2.247-6.356 2.983-10.849 1.857-4.487-1.12-10.478-.743-7.489 1.869 3.002 2.618 7.854 5.243 7.854 11.228 0 5.991 8.609 4.871 8.609 0 0-4.859 4.493 1.498 13.101 3.738 8.603 2.253 2.625 5.62 11.22 5.992 8.597.384 28.054 6.74 35.536 12.348 7.495 5.614 2.247 9.353 7.111 14.602 4.865 5.23 6.356 11.221-.377 11.221-6.734 0-13.838 6.728-11.97 10.095 1.864 3.374 23.952-1.498 29.18-1.498 3.43 0 6.885 6.093 13.474 10.51v-79.854c-16.204-5.456-38.79-15.52-43.402-15.218zm-294.419 81.573c-.37-4.487-14.964-.378-22.069-3.367-7.11-3.002 7.854-5.608 12.718-8.616 4.865-2.984-2.995-4.11-14.958-.359-11.988 3.732-25.82-8.238-26.197-3.002-.365 5.243-21.698-2.247-26.934-5.98-5.23-3.744-25.436-8.615-29.557-1.497-4.11 7.106-7.671.73-5.979 7.477 1.12 4.487 5.979 1.875 9.345 1.875 3.367 0 1.876 6.363 6.734 7.1 4.864.761 20.961 5.249 22.453 1.882 1.497-3.374 16.462 0 23.938 5.985 7.488 5.979 24.693 6.363 31.433 5.242 6.727-1.126 14.209 4.482 16.827.737 2.624-3.732 7.482 5.991 14.97.384 7.483-5.614-12.346-3.374-12.724-7.861zm197.15-64.353c-9.723-2.996-26.336-.44-24.693 4.487 1.497 4.488 9.35 2.625 17.217 2.625 7.854 0 11.963 5.607 16.085 5.607 4.109 0 1.126-9.73-8.609-12.72zm-80.052 68.469c-10.1-1.492-16.833 5.985-26.94 2.24-10.093-3.732-25.215.076-23.566 3.368 1.497 2.996 10.471 3.373 20.571 3.744 10.1.372 19.086-5.242 25.813-5.607 6.734-.384 14.229-2.247 4.122-3.745zm29.552-63.24c1.497 5.992 12.346 9.353 15.342 4.123 2.989-5.242-17.073-11.064-15.342-4.122zm30.684-46.761c8.224.749 4.474-4.116 4.474-9.36 0-5.235-7.47-.742-7.47-3.366 0-2.612-2.618-13.091-8.608-4.865-5.985 8.232 1.932 28.567 6.727 27.692 4.122-.743-3.36-10.85 4.877-10.101zm-285.816 59.865c-.378-5.236 1.869-10.479 1.869-13.103 0-2.612 1.862-3.732 5.229-2.996 3.373.755 3.002-7.112.377-7.855-2.624-.736-4.109-10.095-10.483-10.095-6.35 0-5.23 5.23-1.486 5.608 3.745.378 5.979 3.374 4.859 5.998-1.12 2.618-2.612-2.624-7.854-2.247-5.242.371-1.869-6.375-7.86-6.74-5.978-.378-4.852-11.222-11.226-11.222-6.356 0-6.727-5.243-2.612-8.981 4.11-3.751-6.362-7.112-6.362-11.606s-6.733-1.863-6.733-5.608c0-3.744-2.99-1.862-6.362-6.356-3.36-4.494-4.859-.384-7.854-3.745-2.989-3.367-7.11-5.236-9.722-4.116-2.618 1.127-8.61-4.865-10.85-10.857-1.787-4.764-19.08-12.713-21.326-19.076-2.246-6.357-8.231-8.987-18.325-8.603-10.1.371-14.09-9.9-16.468-4.872-2.99 6.37 10.849 20.587 17.21 24.325 6.357 3.745 9.723 17.207 17.206 17.963 7.488.742 8.23 24.319 13.844 25.439 5.607 1.126 17.588 19.46 19.451 29.184 1.87 9.73 14.216 14.595 18.331 21.7 4.116 7.112 20.572 16.842 22.818 19.826 2.247 2.995 4.493 9.73 6.369 6.356 1.869-3.36 9.722 0 13.466.384 3.745.378 4.859-13.468 4.494-18.705zm170.958-9.73c5.607.372 4.865 8.604 3.744 13.469-1.126 4.859-3.391 16.42 1.504 14.582 5.979-2.24 9.723-9.723 6.35-12.342-3.373-2.618-2.99-19.082-1.498-23.192 1.498-4.116 11.604-1.12 8.231 5.236-3.36 6.363 6.356 5.608 6.356 12.72 0 7.112 5.613 3.367 11.598 1.498 5.99-1.863 4.877-5.243.749-9.73-4.11-4.488 2.995-10.844-2.612-14.589-5.613-3.745-9.357-9.352-4.122-10.473 5.242-1.126 20.95-10.101 19.08-13.846-1.869-3.745-23.931.75-25.813 7.477-1.863 6.74-17.576-.749-15.707-12.348 1.869-11.587 32.918-13.469 41.898-9.346 8.98 4.11 18.702-6.735 22.069-13.098 3.367-6.362-7.098 1.12-13.473 5.243-6.356 4.11-23.19-.378-31.792-3.373-8.602-2.99-8.23 5.242-15.342 6.363-7.104 1.12-5.613 16.835-8.973 18.698-3.373 1.882-3.373 13.475-10.1 24.338-6.74 10.838 2.24 12.342 7.853 12.713zM358.14 738.845c-.749 3.745 3.36 14.583 7.853 10.108 4.494-4.494-7.123-13.777-7.853-10.108zm140.658 54.995c0-3.361-9.653-1.73-6.733 3.002 2.995 4.852 6.733.371 6.733-3.002zM376.47 771.025c-.742 1.863 3.367 9.353 5.978 7.106 2.624-2.247-3.618-13.028-5.978-7.106z"/><path fill="#1D1F1F" d="M722.503 864.19c-5.053-.257-7.08 3.91-10.837 6.886-.346.27-.717.516-1.088.768 1.315.982 2.813 2.574 3.99 4.21 7.243-4.304 25.687-9.66 26.656-12.24 1.12-2.99-11.226.742-18.721.377zm-17.954 9.725c-1.447.12-2.819.484-4.078 1.007 1.278 1.46 3.078 3.096 4.129 2.272.862-.667 1.365-2.222 1.862-3.613a16.07 16.07 0 0 1-1.68.29c-.082.012-.145.037-.233.044z"/><path stroke="#111212" stroke-width="1.573" d="M722.503 864.19c-5.053-.257-7.08 3.91-10.837 6.886-.346.27-.717.516-1.088.768 1.315.982 2.813 2.574 3.99 4.21 7.243-4.304 25.687-9.66 26.656-12.24 1.12-2.99-11.226.742-18.721.377zm-17.954 9.725c-1.447.12-2.819.484-4.078 1.007 1.278 1.46 3.078 3.096 4.129 2.272.862-.667 1.365-2.222 1.862-3.613a16.07 16.07 0 0 1-1.68.29c-.082.012-.145.037-.233.044z"/><path fill="#1D1F1F" d="M799.2 317.557c0-3.744-8.23-3.002-8.602-6.369-.378-3.367-5.985-1.485-11.591 2.625-5.614 4.11-7.489 4.858-5.242 8.974 2.246 4.116 5.607.378 7.104-3.738 1.498-4.116 5.248 5.985 1.875 12.72-3.372 6.74.428 16.225 4.859 15.337 3.744-.742 8.608-14.217 14.221-21.33 5.607-7.105-2.624-4.493-2.624-8.219zm25.814-14.601c-1.498 4.122-5.985 2.253-11.97 3.373-5.984 1.12-6.191 15.395-1.868 16.836 3.36 1.12 5.984 1.12 7.104-3.367 1.12-4.488 7.111-5.985 10.856-4.122 3.738 1.881 8.602-5.614 8.602-11.222 0-5.614-11.227-5.614-12.724-1.498zm82.304-97.282c-3.738 1.876-6.362 13.475-2.24 16.836 4.11 3.367-6.733 9.736-6.368 16.842.377 7.112-6.734 7.112-7.86 12.342-1.12 5.249-5.23 4.122-11.592 8.98-6.35 4.866-9.728-.748-8.23-4.109 1.497-3.373-9.723 1.87-9.358 10.108.384 8.226-10.465 8.968-7.854 12.713 2.624 3.751-8.218 5.979-7.86 2.612.384-3.36-6.733-1.48-15.323 1.882-8.602 3.367-13.85-3.745-18.708 1.12-4.865 4.871-13.102 13.475-19.458 14.595-6.35 1.12-2.687 8.824 0 7.483 4.493-2.253 11.604 0 13.85-3.373 2.24-3.367 20.566-7.477 31.786-7.855 11.22-.377 4.493 5.23 5.242 11.228.749 5.986 10.106 4.865 14.964-.749 4.865-5.614 8.603-5.249 4.487-8.616-4.115-3.36.755-6.356 3.75-1.863 2.984 4.488 12.341 4.865 16.079-1.12 3.744-5.992 4.864 1.12 9.351.743 4.493-.372 7.111-11.593 7.489-7.483.377 4.116 7.482 2.995 11.969-1.863 4.493-4.872.377-13.475 3.367-17.963 2.989-4.487 5.984-13.846 2.989-19.46-2.99-5.607 6.74-9.352 11.597-13.846 4.871-4.487-5.607-26.93-5.984-33.671-.371-6.735-12.347 2.618-16.085 4.487zm68.838-51.256c-2.618-3.36-7.105 1.876-12.718 2.99-5.613 1.12-23.195-13.463-27.689-20.203-4.493-6.728-11.969-1.114-8.224 3.745 3.744 4.865-.762 6.356-.762 13.097 0 6.728-4.48 6.728-3.731 11.222.748 4.487-5.991 3.744-10.484 4.487-4.48.755.384 5.249-4.858 7.496-5.236 2.24-4.865 5.979-2.247 7.477 2.624 1.491.755 6.356 0 9.723-.749 3.368 3.367.756 6.368-2.618 2.99-3.36 6.11 1.624 6.734-1.498.749-3.732-7.86-5.607-7.489-9.358.378-3.726 5.985 1.126 10.478-1.114 4.493-2.247 13.467-.372 19.074 4.487 5.613 4.865 7.117 3.002 8.237-2.99 1.12-5.985 9.722-8.603 18.325-8.603 8.608 0 9.351-4.129 6.733-5.992-2.611-1.863 14.222-12.72 13.845-15.709-.372-2.995-8.974 6.735-11.592 3.361z"/><path fill="#ED2524" d="M490.724 476.373c-3.493-.497-12.486-6.986-12.486-9.491 0-2.499 4.506-6.495-3.498-7.49-7.98-1-8.987-4.002-10.484-5.5-1.498-1.498-7.999 2.995-9.993 6.495-1.989 3.499-3.996-.995-8.49 1.498-4.499 2.498-8.986-3.493-10.987 0-2.001 3.499-6.998-1.995-9.496.994-.95 1.145-2.196 2.07-3.448 2.687 2.19 2.449 4.562 4.834 4.562 6.678 0 3.204 6.412 5.608 6.412 9.617 0 4.009 8.018 7.225 10.428 5.614 2.404-1.605 8.023-3.21 8.816 2.398.8 5.62 4.009 5.62 4.009 9.623 0 4.009-8.017 1.611-9.622 5.607-1.605 4.01 13.624 8.818 13.624 12.028 0 3.197 4.808 7.212 6.412 11.215 1.605 4.01 8.823 8.824 10.415 13.632 1.605 4.802 8.017 7.213 10.427 9.61 2.398 2.411 3.197 8.025 2.398 12.827-.793 4.809-.806 13.626 4.009 20.845 4.807 7.219-5.614 10.416-8.817 14.425-3.197 4.003-1.604 9.617-11.22 7.213-9.615-2.41 1.611 8.018 0 11.215-1.605 3.216-14.423-3.197-14.423 0 0 1.932-4.33 4.437-7.79 6.124 1.377 1.8 3.322 2.807 5.594 4.236 3.001 1.869-3.726 5.054-3.543 11.033.182 5.991 4.675 7.49 6.355 5.053 1.68-2.435 8.61-7.86 11.416-8.792 2.806-.931 0-5.047 2.989-4.865 2.989.183 2.058-4.305 3.373-6.74 1.315-2.424 3.36-1.498 7.853-1.303 4.493.189 10.843-4.123 17.205-8.232 6.362-4.117 7.482-5.048 9.911-16.836 2.442-11.782-2.806-25.817-2.989-29.373-.176-3.55-8.79-20.014-11.969-19.825-3.184.189-17.77-14.784-20.395-17.213-2.612-2.436-1.863-6.546-5.607-9.737-3.744-3.172-4.116-11.404-3.178-17.2.938-5.803 9.169-7.112 8.986-11.046-.188-3.927.737-7.288 4.846-7.47 4.122-.202 8.048-3.569 9.917-6.558.271-.441.655-.718 1.077-.92-1.045-1.201-1.951-1.976-2.6-2.076z"/></g></svg>